<svg width="406" height="407" viewBox="0 0 406 407" fill="none" xmlns="http://www.w3.org/2000/svg">
<path d="M377.765 99.3603L374.007 93.4856V93.4823C369.709 86.7904 365.023 80.356 359.966 74.2169C356.208 69.6819 352.233 65.3614 348.087 61.2586H348.09C341.07 54.051 333.534 47.3658 325.539 41.2567C319.182 36.437 312.547 31.9957 305.667 27.9529L299.923 24.5835C270.252 8.45027 237.017 -0.000488281 203.249 -0.000488281C169.481 -0.000488281 136.243 8.44985 106.575 24.5835L100.831 27.9529H100.827C73.1353 44.1196 49.6102 66.5472 32.1437 93.442L28.3858 99.3601C10.4768 129.565 0.71076 163.898 0.0376839 199.001C-0.638873 234.108 7.80473 268.794 24.5411 299.663L27.9541 305.407V305.41C44.1482 333.062 66.5886 356.541 93.4868 373.963L99.3615 377.721C130.741 396.333 166.552 406.153 203.032 406.153C239.513 406.153 275.327 396.333 306.703 377.721L312.578 373.963C315.917 371.803 319.203 369.556 322.428 367.225H322.425C341.801 353.091 358.554 335.681 371.93 315.776C374.148 312.463 376.278 309.081 378.324 305.624L381.694 299.88C398.443 268.969 406.877 234.236 406.174 199.09C405.471 163.939 395.651 129.575 377.675 99.3632L377.765 99.3603ZM302.429 46.2267L304.546 47.5665L307.784 49.7267C309.57 50.966 311.341 52.232 313.096 53.5282L316.121 55.7756C317.98 57.2024 319.792 58.713 321.607 60.0962L324.025 62.1259C326.617 64.3298 329.123 66.4466 331.585 68.9518L332.147 69.5145C334.395 71.7016 336.582 73.9355 338.712 76.2097L341.003 78.7586C342.513 80.4433 343.984 82.128 345.323 83.8562L347.829 86.9242C349.155 88.5653 350.434 90.2233 351.674 91.8912L354.266 95.0396L355.519 96.8549L318.066 134.307C316.64 131.932 315.129 129.642 313.746 127.394L312.58 125.753C311.11 123.68 309.643 121.694 308.26 119.704L307.74 119.058C306.012 116.941 304.24 114.737 302.385 112.838L301.045 111.368C299.317 109.509 297.545 107.697 295.69 105.969L295.171 105.449C293.184 103.591 291.111 101.779 288.994 100.05L287.44 98.7978C285.454 97.2001 283.424 95.6427 281.348 94.1322L280.829 93.7437C278.581 92.146 276.294 90.6757 273.959 89.423L272.231 88.3848C270.027 87.045 267.91 85.7924 265.449 84.5833L265.017 84.3254L302.429 46.2267ZM319.708 203.032C319.741 217.92 316.898 232.677 311.328 246.49C309.975 249.859 308.534 253.158 307.007 256.383V256.38C295.355 278.971 276.679 297.164 253.787 308.217C221.885 323.49 184.782 323.49 152.877 308.217C146.235 305.069 139.898 301.311 133.957 296.987C116.461 284.115 102.895 266.632 94.7772 246.489C82.5958 216.188 83.6779 182.169 97.7548 152.704C109.032 129.641 127.457 110.838 150.286 99.0955C153.31 97.5414 156.418 96.1146 159.617 94.7748C187.506 83.5778 218.642 83.5778 246.534 94.7748C249.903 96.1279 253.202 97.5681 256.428 99.0955H256.424C279.025 110.755 297.219 129.45 308.261 152.359C315.861 168.165 319.773 185.491 319.71 203.031L319.708 203.032ZM203.073 17.2802C232.235 17.2802 260.989 24.1462 287.006 37.3259L247.609 76.7235V76.7202C218.801 66.5683 187.385 66.5683 158.574 76.7202L119.176 37.3225L119.18 37.3259C145.18 24.1533 173.921 17.287 203.07 17.2802H203.073ZM51.8748 95.0381L54.2495 91.7993C55.5155 90.1012 56.8117 88.4299 58.138 86.7887L60.5998 83.7208C62.0266 81.9926 63.5371 80.3078 64.9204 78.6231L67.2516 76.0743C69.3549 73.8269 71.5153 71.6264 73.7325 69.4661L74.3789 68.8197C76.8407 66.4886 79.3459 64.1977 81.8947 61.9939L84.3565 59.9642C86.1718 58.4537 87.9838 56.9833 89.8426 55.6435L92.867 53.3962C94.622 52.1 96.3938 50.8339 98.179 49.5947L101.374 47.4344L103.712 46.2253L141.596 84.1096L141.164 84.3675C138.873 85.5766 136.844 86.8292 134.426 88.169L132.697 89.2072C130.366 90.6341 128.075 92.1446 125.828 93.5279L125.265 93.9599C123.192 95.4302 121.206 96.9843 119.216 98.582L117.619 99.8781C115.545 101.606 113.298 103.378 111.486 105.277L110.88 105.883C109.065 107.612 107.336 109.34 105.652 111.152L104.225 112.706C102.409 114.692 100.641 116.722 98.9128 118.838L98.3066 119.659C96.7794 121.558 95.3392 123.517 93.986 125.534L92.7334 127.306C91.1793 129.553 89.709 131.626 88.4128 134.175L50.579 97.0683L51.8748 95.0381ZM37.3621 286.963C23.5799 259.737 16.7171 229.539 17.3799 199.035C18.0431 168.529 26.2122 138.657 41.1631 112.058L79.8242 150.719V150.722C66.7717 181.482 65.6939 216.011 76.7998 247.525L37.3621 286.963ZM97.1038 355.517L95.0742 354.221L92.0062 351.973C90.278 350.677 88.5631 349.354 86.865 347.998L84.0148 345.58C82.2866 344.109 80.5583 342.599 78.8736 341.259L76.3683 339.012C74.1209 336.908 71.9204 334.748 69.7601 332.531L69.1539 331.63C66.8228 329.211 64.5319 326.663 62.3281 324.114L60.2548 321.609C58.7443 319.793 57.2739 318.025 55.9342 316.166L53.6868 313.141C52.3906 311.386 51.1246 309.598 49.8853 307.786L47.5576 304.671L46.2614 302.383L84.1458 264.499L84.4037 264.975C85.6128 267.266 86.8654 269.295 88.1616 271.67L89.24 273.442C90.6669 275.773 92.1774 278.02 93.5607 280.268L94.0363 280.914C95.5066 282.944 97.0172 284.93 98.3569 286.876L99.6966 288.517C101.425 290.59 103.197 292.838 105.009 294.609L105.699 295.299C107.37 297.054 109.098 298.769 110.883 300.441L112.481 301.911C114.467 303.726 116.497 305.495 118.573 307.179L119.437 307.869C121.31 309.366 123.239 310.807 125.225 312.19L127.04 313.486C129.288 314.997 131.361 316.51 133.866 317.807H134.081L97.1038 355.517ZM203.073 388.779C171.201 388.789 139.864 380.576 112.092 364.935L150.756 326.27C184.176 340.448 221.919 340.448 255.336 326.27L293.997 364.931V364.935C266.241 380.569 234.922 388.781 203.067 388.779L203.073 388.779ZM358.583 304.631L356.466 307.786C355.227 309.601 353.948 311.386 352.621 313.141L350.374 316.166C348.947 318.024 347.48 319.836 346.053 321.652L344.024 324.113C341.82 326.662 339.703 329.211 337.198 331.629L336.551 332.235C334.391 334.453 332.187 336.626 329.943 338.76L327.394 341.051C325.71 342.561 324.025 344.075 322.253 345.372L319.272 347.79C317.601 349.143 315.903 350.469 314.175 351.765L311.063 354.22L309.164 355.517L271.712 318.064C274.043 316.638 276.334 315.171 278.625 313.744L280.31 312.535C282.339 311.108 284.325 309.597 286.271 308.214L287.005 307.651C289.122 305.923 291.325 304.151 293.181 302.339L294.691 300.956C296.507 299.228 298.275 297.5 300.003 295.688L300.566 295.081C302.425 293.095 304.193 291.066 305.965 288.949L307.261 287.351C308.859 285.409 310.373 283.376 311.84 281.346L312.315 280.74C313.869 278.536 315.383 276.419 316.636 273.914L317.715 272.142C319.054 269.938 320.307 267.821 321.516 265.36L321.73 264.971L359.879 302.383L358.583 304.631ZM388.821 203.026C388.821 232.189 381.955 260.942 368.779 286.96L329.381 247.562C340.487 216.045 339.409 181.518 326.357 150.759L365.018 112.098V112.095C380.639 139.857 388.838 171.173 388.822 203.024L388.821 203.026Z" fill="#6A5847"/>
</svg>
