<svg width="316" height="317" viewBox="0 0 316 317" fill="none" xmlns="http://www.w3.org/2000/svg">
<path d="M306.863 168.786L152.454 8.89047L129.483 13.8917L123.683 36.674L123.697 36.6887L117.868 59.4704L106.269 105.006L94.655 150.556L88.8404 173.352L83.0405 196.134L83.0547 196.149L77.2259 218.931C84.7168 226.688 86.8916 228.94 94.3825 236.697L117.339 231.681L117.353 231.696L140.339 226.68L163.309 221.679L209.237 211.662L255.164 201.644L278.121 196.628L278.135 196.643L301.12 191.628L306.92 168.845L306.863 168.786ZM100.14 213.871L100.154 213.885L100.168 213.9L100.14 213.871ZM260.922 178.789L237.965 183.805L192.053 193.808L146.125 203.825L123.14 208.841L105.983 191.075L111.783 168.292L123.397 122.743L135.011 77.1929L140.825 54.4255L140.797 54.396L140.811 54.4107L163.797 49.3952L266.736 155.993L260.937 178.775L260.951 178.789L260.908 178.774L260.922 178.789Z" fill="#FF6333" fill-opacity="0.8"/>
<path d="M158.011 72.2212L152.197 94.9887L140.597 140.524L128.983 186.074L174.896 176.071L220.823 166.054L243.78 161.038L158.011 72.2212ZM157.725 158.29L169.324 112.754L203.638 148.287L157.725 158.29Z" fill="#FF6333" fill-opacity="0.8"/>
</svg>
