<svg width="546" height="487" viewBox="0 0 546 487" fill="none" xmlns="http://www.w3.org/2000/svg">
<g opacity="0.2" clip-path="url(#clip0_569_2991)" filter="url(#filter0_f_569_2991)">
<path d="M523.52 117.578L121.085 8.08805L88.839 38.2777L101.345 80.643L101.382 80.6531L113.841 123.045L138.826 207.729L163.801 292.449L176.297 334.852L188.803 377.217L188.84 377.227L201.299 419.619C220.823 424.931 226.491 426.473 246.014 431.785L278.223 401.585L278.26 401.595L310.516 371.368L342.762 341.179L407.217 280.789L471.672 220.4L503.881 190.2L503.918 190.21L536.174 159.983L523.668 117.618L523.52 117.578ZM233.397 389.389L233.434 389.399L233.471 389.409L233.397 389.389ZM459.028 177.957L426.819 208.157L362.374 268.509L297.919 328.899L265.663 359.125L220.948 346.96L208.442 304.595L183.467 219.874L158.492 135.154L146.023 92.7984L145.949 92.7783L145.986 92.7884L178.242 62.5616L446.532 135.555L459.038 177.92L459.075 177.93L458.991 177.947L459.028 177.957Z" fill="#6A5847"/>
<path d="M190.811 104.983L203.28 147.338L228.265 232.022L253.24 316.742L317.684 256.39L382.139 196L414.348 165.801L190.811 104.983ZM272.932 244.214L247.947 159.531L337.377 183.862L272.932 244.214Z" fill="#6A5847"/>
</g>
<defs>
<filter id="filter0_f_569_2991" x="-8" y="-6" width="561.896" height="500.477" filterUnits="userSpaceOnUse" color-interpolation-filters="sRGB">
<feFlood flood-opacity="0" result="BackgroundImageFix"/>
<feBlend mode="normal" in="SourceGraphic" in2="BackgroundImageFix" result="shape"/>
<feGaussianBlur stdDeviation="4" result="effect1_foregroundBlur_569_2991"/>
</filter>
<clipPath id="clip0_569_2991">
<rect width="463.442" height="376" fill="white" transform="translate(98.71 2) rotate(15.22)"/>
</clipPath>
</defs>
</svg>
