<svg width="393" height="471" viewBox="0 0 393 471" fill="none" xmlns="http://www.w3.org/2000/svg">
<path d="M1.64462 119.397L22.2163 89.6557C22.3108 89.5296 22.4413 89.4576 22.5494 89.3406C22.7294 89.1245 22.923 88.94 23.1526 88.7599C23.3911 88.5754 23.6387 88.4133 23.9133 88.2828C24.0348 88.2197 24.1293 88.1072 24.2689 88.0577L86.7479 64.4347C86.7614 64.4347 86.7614 64.4302 86.7704 64.4302L86.7929 64.4167C86.8154 64.4122 86.8289 64.4167 86.8514 64.4032C87.207 64.2816 87.5671 64.1826 87.9497 64.1466C88.0847 64.1331 88.1973 64.1646 88.3323 64.1646C88.4539 64.1646 88.5709 64.1691 88.7059 64.1826C89.1696 64.2231 89.6242 64.3221 90.0429 64.5022C90.0789 64.5202 90.1104 64.5247 90.1599 64.5427C90.6371 64.7632 91.0557 65.0603 91.4293 65.4384C91.4878 65.5015 91.5328 65.578 91.5869 65.6455C91.7534 65.8391 91.9425 66.0191 92.0731 66.2487L140.495 147.012L199.503 31.4548C199.525 31.4008 199.57 31.3693 199.602 31.3198C199.669 31.1982 199.755 31.1037 199.836 30.9867C200.052 30.6716 200.295 30.4015 200.574 30.1584C200.695 30.0549 200.817 29.9559 200.952 29.8613C201.326 29.6138 201.726 29.4157 202.158 29.2807C202.217 29.2627 202.257 29.2221 202.311 29.2041L313.638 0.990161C315.043 0.630054 316.542 1.00367 317.622 1.97145C318.707 2.93924 319.224 4.37962 319.022 5.82005L314.453 38.0004L387.721 22.2732C389.261 21.9491 390.881 22.4713 391.925 23.6731C392.965 24.8705 393.267 26.536 392.727 28.0258L344.715 159.186C344.355 160.18 343.64 161.004 342.712 161.508L257.578 207.998L188.761 321.023L323.217 432.665C324.779 433.962 325.238 436.158 324.32 437.972C323.573 439.462 322.042 440.371 320.431 440.371C320.089 440.371 319.751 440.331 319.404 440.25L267.648 427.723L294.175 463.171C295.399 464.81 295.318 467.083 293.977 468.627C293.131 469.608 291.92 470.13 290.691 470.13C289.975 470.13 289.264 469.955 288.607 469.595L105.638 369.697C105.624 369.697 105.624 369.692 105.624 369.692L86.8489 360.068L79.1967 373.689C78.4225 375.066 76.973 375.913 75.402 375.913C75.3435 375.913 75.2805 375.913 75.2085 375.908C73.5655 375.832 72.1025 374.841 71.4364 373.342L58.4956 344.458C58.4956 344.453 58.4955 344.453 58.4821 344.444L16.1519 249.669C16.0933 249.547 16.1068 249.394 16.0573 249.268C15.9763 249.034 15.9133 248.809 15.8638 248.566C15.8503 248.489 15.7962 248.444 15.7962 248.368C15.7827 248.323 15.8188 248.282 15.8098 248.242C15.8098 248.161 15.7737 248.084 15.7737 248.003C15.7737 247.877 15.8187 247.747 15.8322 247.625C15.8457 247.337 15.8997 247.062 15.9763 246.783C16.0123 246.639 15.9898 246.482 16.0438 246.338L49.5298 158.278L32.7032 119.188L6.33875 126.098C5.96515 126.197 5.60056 126.237 5.23141 126.237C3.83606 126.237 2.49915 125.562 1.67093 124.387C0.622131 122.879 0.608612 120.894 1.64392 119.395L1.64462 119.397ZM65.8072 339.494L87.1843 350.455C87.1978 350.468 87.2203 350.468 87.2293 350.473C87.2428 350.477 87.2518 350.491 87.2653 350.495L93.0495 353.466L40.2987 282.372L65.8072 339.494ZM202.832 44.0563L153.358 140.934L169.441 128.69L216.705 79.8147L202.832 44.0563ZM168.465 140.385L28.5473 246.918L178.329 315.01L168.465 140.385ZM381.821 32.443L248.933 60.9681L258.345 197.659L337.083 154.663L381.821 32.443ZM275.216 452.357L181.921 327.673L116.516 365.719L275.216 452.357ZM80.8038 75.9785L31.5906 94.5865L53.9669 146.568L80.8038 75.9785Z" fill="#6A5847"/>
</svg>
