<svg width="106" height="86" viewBox="0 0 106 86" fill="none" xmlns="http://www.w3.org/2000/svg">
<g clip-path="url(#clip0_475_2200)">
<path d="M100.696 0H5.30395L0 8.59912L5.30395 17.1982H5.31273L10.6079 25.8062L21.207 42.9956L31.8061 60.1938L37.1101 68.8018L42.4141 77.4009H42.4228L47.718 86.0088C52.3458 86.0088 53.6893 86.0088 58.3171 86.0088L63.6123 77.4097H63.6211L68.925 68.8018L74.229 60.2026L84.8281 43.0044L95.4272 25.8062L100.722 17.207H100.731L106.035 8.59912L100.731 0L100.696 0ZM52.9868 77.4097H52.9956H53.0044H52.9868ZM90.0881 17.1982L84.793 25.7974L74.1939 42.9868L63.5947 60.185L58.2908 68.793H47.6917L42.3877 60.1938L31.7886 42.9956L21.1895 25.7974L15.8943 17.1982H15.8767H15.8855L21.1895 8.59032H84.7842L90.0881 17.1894H90.0969L90.0794 17.1982H90.0881Z" fill="#6A5847"/>
<path d="M26.5107 17.1982L31.8059 25.7974L42.405 42.9868L53.0042 60.185L63.6033 42.9956L74.2024 25.7974L79.4976 17.1982H26.5107ZM52.9954 42.9956L42.3963 25.8062H63.5945L52.9954 42.9956Z" fill="#6A5847"/>
</g>
<defs>
<clipPath id="clip0_475_2200">
<rect width="106" height="86" fill="white"/>
</clipPath>
</defs>
</svg>
