<svg width="356" height="360" viewBox="0 0 356 360" fill="none" xmlns="http://www.w3.org/2000/svg">
<g clip-path="url(#clip0_359_1751)" filter="url(#filter0_f_359_1751)">
<path d="M176.671 32.8377C180.335 40.6068 184.964 47.4117 190.639 53.2523C196.287 59.0929 202.954 63.9417 210.64 67.7987L213.285 69.1211L210.64 70.4435C203.092 74.2179 196.48 78.984 190.832 84.7971C185.184 90.6102 180.446 97.4702 176.699 105.377L175.349 108.215L173.999 105.377C170.335 97.6079 165.706 90.803 160.031 84.9624C154.383 79.1218 147.716 74.273 140.03 70.416L137.385 69.0936L140.03 67.7712C147.578 63.9968 154.19 59.2306 159.838 53.4176C165.486 47.6045 170.224 40.7445 173.971 32.8377L175.321 30L176.671 32.8377Z" fill="#FF9D00" fill-opacity="0.3"/>
<path d="M72.423 75.4568C80.5227 78.3771 88.5949 79.8924 96.7221 80.0301C104.849 80.1679 112.977 78.873 121.159 76.1731L123.969 75.2364L123.032 78.0465C120.36 86.036 119.065 94.1082 119.175 102.208C119.286 110.335 120.801 118.518 123.749 126.755L124.796 129.703L121.848 128.656C113.748 125.736 105.676 124.22 97.5486 124.083C89.4214 123.945 81.2941 125.24 73.1117 127.94L70.3016 128.876L71.2383 126.066C73.9107 118.077 75.2055 110.005 75.0953 101.905C74.9851 93.7776 73.4699 85.5952 70.522 77.3578L69.4751 74.4099L72.423 75.4568Z" fill="#FF9D00" fill-opacity="0.3"/>
<path d="M28.8377 179.321C36.6068 175.657 43.4117 171.028 49.2523 165.353C55.0929 159.705 59.9417 153.038 63.7987 145.352L65.1211 142.707L66.4435 145.352C70.2179 152.9 74.984 159.512 80.7971 165.16C86.6102 170.808 93.4702 175.546 101.377 179.293L104.215 180.643L101.377 181.993C93.6079 185.657 86.803 190.286 80.9624 195.961C75.1218 201.609 70.273 208.276 66.416 215.962L65.0936 218.607L63.7712 215.962C59.9968 208.414 55.2306 201.802 49.4176 196.154C43.6045 190.506 36.7445 185.768 28.8377 182.021L26 180.671L28.8377 179.321Z" fill="#FF9D00" fill-opacity="0.3"/>
<path d="M71.458 283.569C74.3783 275.469 75.8936 267.397 76.0313 259.27C76.1691 251.142 74.8742 243.015 72.1743 234.833L71.2376 232.023L74.0477 232.959C82.0373 235.632 90.1094 236.926 98.2092 236.816C106.336 236.706 114.519 235.191 122.756 232.243L125.704 231.196L124.657 234.144C121.737 242.244 120.222 250.316 120.084 258.443C119.946 266.57 121.241 274.698 123.941 282.88L124.878 285.69L122.068 284.753C114.078 282.081 106.006 280.786 97.9061 280.896C89.7788 281.007 81.5965 282.522 73.359 285.47L70.4111 286.517L71.458 283.569Z" fill="#FF9D00" fill-opacity="0.3"/>
<path d="M175.322 327.155C171.658 319.386 167.029 312.581 161.354 306.74C155.706 300.9 149.039 296.051 141.353 292.194L138.708 290.871L141.353 289.549C148.902 285.775 155.514 281.008 161.161 275.195C166.809 269.382 171.548 262.522 175.295 254.615L176.644 251.778L177.994 254.615C181.659 262.385 186.287 269.189 191.962 275.03C197.61 280.871 204.277 285.72 211.964 289.577L214.608 290.899L211.964 292.221C204.415 295.996 197.803 300.762 192.155 306.575C186.507 312.388 181.769 319.248 178.022 327.155L176.672 329.993L175.322 327.155Z" fill="#FF9D00" fill-opacity="0.3"/>
<path d="M279.573 284.533C271.474 281.612 263.402 280.097 255.274 279.959C247.147 279.821 239.02 281.116 230.837 283.816L228.027 284.753L228.964 281.943C231.636 273.953 232.931 265.881 232.821 257.781C232.711 249.654 231.195 241.472 228.248 233.234L227.201 230.286L230.149 231.333C238.248 234.254 246.32 235.769 254.448 235.907C262.575 236.044 270.702 234.749 278.885 232.05L281.695 231.113L280.758 233.923C278.086 241.913 276.791 249.985 276.901 258.084C277.011 266.212 278.527 274.394 281.474 282.632L282.521 285.579L279.573 284.533Z" fill="#FF9D00" fill-opacity="0.3"/>
<path d="M323.156 180.669C315.387 184.333 308.582 188.962 302.741 194.637C296.901 200.285 292.052 206.952 288.195 214.638L286.872 217.283L285.55 214.638C281.776 207.09 277.009 200.478 271.196 194.83C265.383 189.182 258.523 184.444 250.616 180.697L247.779 179.347L250.616 177.997C258.386 174.333 265.19 169.704 271.031 164.029C276.872 158.381 281.721 151.714 285.578 144.028L286.9 141.383L288.222 144.028C291.997 151.576 296.763 158.188 302.576 163.836C308.389 169.484 315.249 174.223 323.156 177.969L325.993 179.319L323.156 180.669Z" fill="#FF9D00" fill-opacity="0.3"/>
<path d="M280.536 76.4208C277.615 84.5205 276.1 92.5927 275.962 100.72C275.825 108.847 277.119 116.974 279.819 125.157L280.756 127.967L277.946 127.03C269.956 124.358 261.884 123.063 253.785 123.173C245.657 123.283 237.475 124.799 229.237 127.747L226.29 128.793L227.336 125.846C230.257 117.746 231.772 109.674 231.91 101.546C232.048 93.4192 230.753 85.2919 228.053 77.1095L227.116 74.2994L229.926 75.2361C237.916 77.9085 245.988 79.2033 254.088 79.0931C262.215 78.9829 270.397 77.4677 278.635 74.5198L281.583 73.4729L280.536 76.4208Z" fill="#FF9D00" fill-opacity="0.3"/>
</g>
<defs>
<filter id="filter0_f_359_1751" x="-104" y="-100" width="559.993" height="559.993" filterUnits="userSpaceOnUse" color-interpolation-filters="sRGB">
<feFlood flood-opacity="0" result="BackgroundImageFix"/>
<feBlend mode="normal" in="SourceGraphic" in2="BackgroundImageFix" result="shape"/>
<feGaussianBlur stdDeviation="15" result="effect1_foregroundBlur_359_1751"/>
</filter>
<clipPath id="clip0_359_1751">
<rect width="299.993" height="299.993" fill="white" transform="translate(26 30)"/>
</clipPath>
</defs>
</svg>
