<svg width="42" height="40" viewBox="0 0 42 40" fill="none" xmlns="http://www.w3.org/2000/svg">
<g clip-path="url(#clip0_421_1889)">
<path d="M36.4095 4.37266C35.7919 5.02859 35.1436 5.69219 34.5337 6.38264C33.8931 7.11144 33.2871 7.8671 32.6043 8.6803C24.5874 -3.38338 10.5176 -1.2545 4.84827 5.2971C6.12176 6.27907 7.42211 7.28022 8.94493 8.45782C3.8778 11.7912 0.793798 15.8801 0.137872 21.5303C-0.510383 27.123 1.08148 31.9216 5.205 36.1602C6.62425 34.5606 7.93994 33.0838 9.3592 31.4804C17.6561 41.4613 30.2645 42.9035 37.027 34.5798C35.8763 33.6132 34.6872 32.612 33.4827 31.6032C43.2449 23.3792 44.5836 10.3489 36.4056 4.37266H36.4095ZM21.3999 32.4739C21.4996 33.617 21.5955 34.7447 21.6914 35.8379C13.9162 36.6435 8.15859 29.4014 9.02548 19.9806C7.46814 20.0727 6.0297 20.1571 4.47236 20.253C4.52989 15.9415 6.18314 12.6504 9.40139 10.0996C12.6542 7.52188 16.3481 7.00788 20.6749 7.89779C20.4984 6.50538 20.345 5.31628 20.1954 4.15786C26.4977 3.70139 34.8444 9.85789 32.7577 20.207C33.5249 20.1379 34.2307 20.0612 34.9365 20.019C35.6078 19.9768 36.2829 19.9691 36.9388 19.95C38.0742 27.2457 30.6634 33.2718 21.396 32.4778L21.3999 32.4739Z" fill="#6A5847"/>
</g>
<defs>
<clipPath id="clip0_421_1889">
<rect width="41.7683" height="40" fill="white"/>
</clipPath>
</defs>
</svg>
