<svg width="262" height="225" viewBox="0 0 262 225" fill="none" xmlns="http://www.w3.org/2000/svg">
<path d="M228.012 27.3237C224.153 31.4223 220.103 35.5688 216.292 39.8831C212.289 44.4371 208.502 49.1589 204.236 54.2401C154.142 -21.1402 66.2261 -7.83779 30.8009 33.1001C38.7584 39.236 46.8837 45.4917 56.3991 52.85C24.7369 73.6784 5.46642 99.2287 1.36784 134.534C-2.6828 169.48 7.26404 199.464 33.03 225.949C41.8983 215.954 50.1194 206.727 58.9877 196.708C110.831 259.073 189.615 268.085 231.871 216.074C224.681 210.034 217.25 203.778 209.724 197.475C270.724 146.087 279.089 64.6664 227.988 27.3237H228.012ZM134.224 202.916C134.847 210.058 135.447 217.105 136.046 223.936C87.462 228.969 51.4856 183.717 56.9024 124.851C47.1713 125.426 38.1832 125.953 28.452 126.553C28.8116 99.6122 39.1419 79.0473 59.2513 63.1084C79.5764 47.0017 102.658 43.79 129.694 49.3506C128.592 40.6501 127.633 33.2199 126.698 25.9815C166.078 23.1293 218.233 61.5984 205.194 126.265C209.988 125.833 214.398 125.354 218.808 125.09C223.003 124.827 227.221 124.779 231.32 124.659C238.414 170.247 192.108 207.901 134.2 202.94L134.224 202.916Z" fill="#FF9D00" fill-opacity="0.3"/>
</svg>
