<svg width="31" height="31" viewBox="0 0 31 31" fill="none" xmlns="http://www.w3.org/2000/svg">
<rect x="0.5" y="0.502441" width="30" height="30" rx="15" stroke="#31443A" stroke-opacity="0.6"/>
<g opacity="0.6" clip-path="url(#clip0_137_974)">
<mask id="mask0_137_974" style="mask-type:luminance" maskUnits="userSpaceOnUse" x="2" y="8" width="15" height="5">
<path d="M2.70764 8.08838H16.1601V12.6587H2.70764V8.08838Z" fill="white"/>
</mask>
<g mask="url(#mask0_137_974)">
<path d="M15.3182 12.6466H3.15912C2.90977 12.6466 2.70764 12.4445 2.70764 12.1952C2.70764 11.9456 2.90978 11.7437 3.15912 11.7437H15.045C15.1537 11.4979 15.2102 11.2301 15.2102 10.9581C15.2102 9.8862 14.338 9.01378 13.2659 9.01378C12.4686 9.01378 11.74 9.51286 11.4522 10.2561C11.3621 10.4884 11.1007 10.6043 10.868 10.514C10.6355 10.424 10.5201 10.1625 10.6101 9.92982C11.0315 8.84178 12.0986 8.11084 13.2658 8.11084C14.8357 8.11084 16.1132 9.38829 16.1132 10.9581C16.1132 11.4775 15.9717 11.9861 15.7043 12.4286C15.6228 12.5641 15.4762 12.6466 15.3181 12.6466L15.3182 12.6466Z" fill="#3F3A33"/>
</g>
<mask id="mask1_137_974" style="mask-type:luminance" maskUnits="userSpaceOnUse" x="2" y="8" width="23" height="7">
<path d="M2.70764 8.59619H24.996V14.8423H2.70764V8.59619Z" fill="white"/>
</mask>
<g mask="url(#mask1_137_974)">
<path d="M23.9931 14.8169L3.15912 14.8165C2.90977 14.8165 2.70764 14.6145 2.70764 14.3652C2.70764 14.1156 2.90978 13.9139 3.15912 13.9139L23.7265 13.9141C23.934 13.4965 24.0425 13.0346 24.0425 12.5634C24.0425 10.8885 22.6796 9.52548 21.0046 9.52548C20.2155 9.52548 19.402 9.88393 18.8813 10.4608C18.5362 10.8428 18.3692 11.2737 18.4104 11.6732C18.436 11.9213 18.2557 12.1429 18.0075 12.1685C17.7592 12.1931 17.5376 12.0138 17.5122 11.7656C17.4444 11.1086 17.6929 10.4304 18.2109 9.85598C18.8976 9.09508 19.9678 8.62256 21.0045 8.62256C23.1775 8.62256 24.9452 10.3904 24.9452 12.5633C24.9452 13.2823 24.7494 13.9865 24.3792 14.5987C24.2977 14.7344 24.1511 14.8169 23.993 14.8169L23.9931 14.8169Z" fill="#3F3A33"/>
</g>
<path d="M16.6126 22.8942C15.4455 22.8942 14.3784 22.1632 13.9569 21.0752C13.8668 20.8427 13.9823 20.5809 14.2148 20.491C14.4473 20.401 14.7089 20.5166 14.7986 20.7489C15.0864 21.4918 15.8156 21.9913 16.6124 21.9913C17.6842 21.9913 18.5566 21.119 18.5566 20.0469C18.5566 19.7749 18.5 19.5073 18.3915 19.2612L6.50568 19.2613C6.25613 19.2613 6.0542 19.0592 6.0542 18.8099C6.0542 18.5603 6.25633 18.3584 6.50568 18.3584H18.6642C18.8223 18.3584 18.9689 18.4411 19.051 18.5766C19.3182 19.019 19.4593 19.5277 19.4593 20.0471C19.4595 21.6165 18.1824 22.8942 16.6125 22.8942L16.6126 22.8942Z" fill="#3F3A33"/>
<mask id="mask2_137_974" style="mask-type:luminance" maskUnits="userSpaceOnUse" x="6" y="16" width="23" height="7">
<path d="M6.00391 16.1626H28.2918V22.4087H6.00391V16.1626Z" fill="white"/>
</mask>
<g mask="url(#mask2_137_974)">
<path d="M24.3512 22.3825C23.3147 22.3825 22.2446 21.9098 21.5576 21.1491C21.0395 20.5748 20.7913 19.8964 20.859 19.2392C20.8845 18.9913 21.1069 18.8112 21.3545 18.8366C21.6024 18.8621 21.7827 19.0837 21.7571 19.3319C21.7163 19.7318 21.8833 20.162 22.2281 20.5443C22.749 21.1211 23.5624 21.4796 24.3513 21.4796C26.0265 21.4796 27.3893 20.1166 27.3893 18.4416C27.3893 17.9707 27.2806 17.5085 27.0735 17.0909L6.50604 17.0911C6.2565 17.0911 6.05457 16.889 6.05457 16.6397C6.05457 16.3901 6.2567 16.1882 6.50604 16.1882L27.3401 16.188C27.4982 16.188 27.6448 16.2707 27.7267 16.406C28.0968 17.0185 28.2926 17.7225 28.2926 18.4418C28.2922 20.6145 26.5244 22.3825 24.3516 22.3825L24.3512 22.3825Z" fill="#3F3A33"/>
</g>
</g>
<defs>
<clipPath id="clip0_137_974">
<rect width="26" height="26" fill="white" transform="translate(2.5 2.50244)"/>
</clipPath>
</defs>
</svg>
