<svg width="139" height="138" viewBox="0 0 139 138" fill="none" xmlns="http://www.w3.org/2000/svg">
<g clip-path="url(#clip0_103_2804)">
<mask id="mask0_103_2804" style="mask-type:luminance" maskUnits="userSpaceOnUse" x="67" y="99" width="71" height="54">
<path d="M125.949 152.417L67.4461 119.226L78.7222 99.3507L137.225 132.541L125.949 152.417Z" fill="white"/>
</mask>
<g mask="url(#mask0_103_2804)">
<path d="M82.3536 101.48L135.232 131.48C136.316 132.095 136.696 133.473 136.081 134.557C135.466 135.642 134.088 136.022 133.004 135.407L81.3139 106.081C80.2348 106.882 79.3283 107.907 78.6572 109.09C76.0125 113.752 77.6532 119.698 82.3158 122.343C85.7828 124.31 90.1828 123.937 93.2683 121.415C94.2331 120.627 95.6559 120.768 96.4451 121.735C97.234 122.7 97.091 124.122 96.1253 124.911C91.6085 128.604 85.1641 129.149 80.088 126.27C73.261 122.396 70.8573 113.689 74.7305 106.862C76.0118 104.603 77.8817 102.741 80.1365 101.476C80.8253 101.088 81.6664 101.091 82.354 101.481L82.3536 101.48Z" fill="#F0EEDD"/>
</g>
<mask id="mask1_103_2804" style="mask-type:luminance" maskUnits="userSpaceOnUse" x="30" y="68" width="113" height="83">
<path d="M127.202 150.208L30.2727 95.2174L45.6834 68.0539L142.613 123.045L127.202 150.208Z" fill="white"/>
</mask>
<g mask="url(#mask1_103_2804)">
<path d="M49.9818 70.6393L140.585 122.044C141.67 122.659 142.05 124.036 141.435 125.12C140.82 126.206 139.443 126.584 138.358 125.969L48.9139 75.2231C46.9813 76.527 45.3696 78.2684 44.2072 80.3173C40.0746 87.6016 42.6392 96.8917 49.9234 101.024C53.355 102.971 57.7773 103.419 61.4648 102.195C63.9084 101.386 65.6978 99.9239 66.5041 98.0848C67.005 96.9425 68.3359 96.4237 69.4782 96.9247C70.6189 97.4305 71.1401 98.757 70.6382 99.8988C69.3123 102.923 66.5581 105.26 62.8884 106.48C58.0246 108.095 52.2045 107.509 47.6963 104.951C38.2458 99.5898 34.9202 87.5407 40.2814 78.0909C42.0555 74.9638 44.6443 72.3844 47.7645 70.6355C48.4538 70.2466 49.2949 70.2494 49.9825 70.6395L49.9818 70.6393Z" fill="#F0EEDD"/>
</g>
<path d="M102.01 53.7222C107.086 56.6019 109.922 62.4135 109.071 68.185C108.889 69.4183 107.741 70.2721 106.509 70.0894C105.275 69.9074 104.423 68.7589 104.606 67.5276C105.187 63.5867 103.248 59.6155 99.783 57.6494C95.1221 55.0052 89.1761 56.6459 86.5308 61.3085C85.8598 62.4912 85.4455 63.7944 85.31 65.1328L137 94.4573C138.086 95.073 138.465 96.4503 137.85 97.5346C137.234 98.6199 135.857 98.9993 134.773 98.3841L81.8967 68.3859C81.2092 67.9958 80.7758 67.2744 80.7529 66.4826C80.6823 63.8996 81.3242 61.339 82.6055 59.0805C86.4769 52.2547 95.1831 49.8492 102.01 53.7225L102.01 53.7222Z" fill="#F0EEDD"/>
<mask id="mask2_103_2804" style="mask-type:luminance" maskUnits="userSpaceOnUse" x="34" y="27" width="113" height="83">
<path d="M131.535 109.17L34.6083 54.1805L50.019 27.0171L146.946 82.007L131.535 109.17Z" fill="white"/>
</mask>
<g mask="url(#mask2_103_2804)">
<path d="M67.0904 36.8541C71.5978 39.4113 75.0855 44.1074 76.1962 49.1106C77.0325 52.8864 76.438 56.4489 74.5224 59.1399C73.7994 60.1551 72.388 60.3898 71.374 59.6686C70.3588 58.9455 70.1213 57.537 70.8449 56.521C72.0092 54.8827 72.3445 52.5994 71.7882 50.0865C70.946 46.2928 68.2928 42.7268 64.862 40.7805C57.5769 36.6474 48.2877 39.2125 44.1551 46.4967C42.9932 48.5446 42.3256 50.8228 42.196 53.1498L131.641 103.894C132.727 104.51 133.106 105.887 132.491 106.971C131.875 108.057 130.498 108.436 129.414 107.821L38.8088 56.4188C38.1212 56.0288 37.6878 55.3073 37.6653 54.5169C37.5668 50.9398 38.4523 47.395 40.2269 44.267C45.5892 34.8193 57.6394 31.4919 67.0889 36.8529L67.0904 36.8541Z" fill="#F0EEDD"/>
</g>
</g>
<defs>
<clipPath id="clip0_103_2804">
<rect width="130" height="130" fill="white" transform="translate(113.07 177.222) rotate(-150.432)"/>
</clipPath>
</defs>
</svg>
