<svg width="48" height="48" viewBox="0 0 48 48" fill="none" xmlns="http://www.w3.org/2000/svg">
<path d="M7.90004 22.94L21.9 8.93999C22.2859 8.56486 22.8426 8.42408 23.3603 8.57066C23.8781 8.71725 24.2784 9.12895 24.4103 9.65067C24.5423 10.1724 24.3859 10.7249 24 11.1L12.58 22.5H39.04C39.8685 22.5 40.54 23.1716 40.54 24C40.54 24.8284 39.8685 25.5 39.04 25.5H12.6L24 36.9C24.2859 37.1786 24.4472 37.5608 24.4472 37.96C24.4472 38.3592 24.2859 38.7414 24 39.02C23.7244 39.3093 23.3395 39.469 22.94 39.46C22.5419 39.4619 22.1598 39.3033 21.88 39.02L7.88004 25.02C7.29513 24.4344 7.29513 23.4856 7.88004 22.9L7.90004 22.94Z" fill="#333333"/>
</svg>
