<svg width="21" height="21" viewBox="0 0 21 21" fill="none" xmlns="http://www.w3.org/2000/svg">
<path fill-rule="evenodd" clip-rule="evenodd" d="M0.666504 4.74999C0.666504 2.49483 2.49467 0.666656 4.74984 0.666656C7.005 0.666656 8.83317 2.49483 8.83317 4.74999C8.83317 7.00515 7.005 8.83332 4.74984 8.83332C2.49467 8.83332 0.666504 7.00515 0.666504 4.74999ZM7.08317 4.74999C7.08317 3.46133 6.0385 2.41666 4.74984 2.41666C3.46117 2.41666 2.4165 3.46133 2.4165 4.74999C2.4165 6.03865 3.46117 7.08332 4.74984 7.08332C6.0385 7.08332 7.08317 6.03865 7.08317 4.74999Z" fill="#31443A"/>
<path fill-rule="evenodd" clip-rule="evenodd" d="M12.3332 4.74999C12.3332 2.49483 14.1613 0.666656 16.4165 0.666656C18.6717 0.666656 20.4998 2.49483 20.4998 4.74999C20.4998 7.00515 18.6717 8.83332 16.4165 8.83332C14.1613 8.83332 12.3332 7.00515 12.3332 4.74999ZM18.7498 4.74999C18.7498 3.46133 17.7052 2.41666 16.4165 2.41666C15.1278 2.41666 14.0832 3.46133 14.0832 4.74999C14.0832 6.03865 15.1278 7.08332 16.4165 7.08332C17.7052 7.08332 18.7498 6.03865 18.7498 4.74999Z" fill="#31443A"/>
<path fill-rule="evenodd" clip-rule="evenodd" d="M0.666504 16.4167C0.666504 14.1615 2.49467 12.3333 4.74984 12.3333C7.005 12.3333 8.83317 14.1615 8.83317 16.4167C8.83317 18.6718 7.005 20.5 4.74984 20.5C2.49467 20.5 0.666504 18.6718 0.666504 16.4167ZM7.08317 16.4167C7.08317 15.128 6.0385 14.0833 4.74984 14.0833C3.46117 14.0833 2.4165 15.128 2.4165 16.4167C2.4165 17.7053 3.46117 18.75 4.74984 18.75C6.0385 18.75 7.08317 17.7053 7.08317 16.4167Z" fill="#31443A"/>
<path fill-rule="evenodd" clip-rule="evenodd" d="M12.3332 16.4167C12.3332 14.1615 14.1613 12.3333 16.4165 12.3333C18.6717 12.3333 20.4998 14.1615 20.4998 16.4167C20.4998 18.6718 18.6717 20.5 16.4165 20.5C14.1613 20.5 12.3332 18.6718 12.3332 16.4167ZM18.7498 16.4167C18.7498 15.128 17.7052 14.0833 16.4165 14.0833C15.1278 14.0833 14.0832 15.128 14.0832 16.4167C14.0832 17.7053 15.1278 18.75 16.4165 18.75C17.7052 18.75 18.7498 17.7053 18.7498 16.4167Z" fill="#31443A"/>
</svg>
