<svg width="18" height="18" viewBox="0 0 18 18" fill="none" xmlns="http://www.w3.org/2000/svg">
<path d="M10.1665 9.01196L17.762 1.44213C18.0793 1.12181 18.0793 0.602902 17.762 0.282587C17.4503 -0.0434532 16.9355 -0.0532452 16.6118 0.260709L9.01628 7.83054L1.51839 0.260709C1.36467 0.0967873 1.15078 0.00390625 0.927025 0.00390625C0.703266 0.00390625 0.489378 0.0967873 0.335658 0.260709C0.0543006 0.570182 0.0543006 1.04514 0.335658 1.35461L7.83354 8.9135L0.238001 16.4724C-0.0793336 16.7927 -0.0793336 17.3116 0.238001 17.6319C0.389074 17.7879 0.596845 17.8749 0.813092 17.8726C1.03351 17.8906 1.25202 17.8198 1.42074 17.6757L9.01628 10.1059L16.6118 17.7632C16.7629 17.9192 16.9707 18.0061 17.1869 18.0039C17.4029 18.0049 17.6102 17.9181 17.762 17.7632C18.0793 17.4429 18.0793 16.924 17.762 16.6037L10.1665 9.01196Z" fill="black"/>
</svg>
