<svg width="21" height="21" viewBox="0 0 21 21" fill="none" xmlns="http://www.w3.org/2000/svg">
<path d="M12.4157 12.5939C10.8549 14.2044 10.7414 16.2121 10.6066 20.6108C14.7072 20.6108 17.538 20.5966 18.9994 19.1777C20.4183 17.7162 20.4325 14.7507 20.4325 10.7848C16.0339 10.9267 14.0262 11.0331 12.4157 12.5939ZM0.567871 10.7848C0.567871 14.7507 0.58206 17.7162 2.00096 19.1777C3.46244 20.5966 6.29315 20.6108 10.3938 20.6108C10.2519 16.2121 10.1455 14.2044 8.58468 12.5939C6.97422 11.0331 4.96647 10.9196 0.567871 10.7848ZM10.3938 0.746094C6.30024 0.746094 3.46244 0.760283 2.00096 2.17919C0.58206 3.64066 0.567871 6.60617 0.567871 10.572C4.96647 10.4301 6.97422 10.3237 8.58468 8.7629C10.1455 7.15245 10.259 5.1447 10.3938 0.746094ZM12.4157 8.7629C10.8549 7.15245 10.7414 5.1447 10.6066 0.746094C14.7072 0.746094 17.538 0.760283 18.9994 2.17919C20.4183 3.64066 20.4325 6.60617 20.4325 10.572C16.0339 10.4301 14.0262 10.3237 12.4157 8.7629Z" fill="#31443A"/>
</svg>
