<svg width="112" height="93" viewBox="0 0 112 93" fill="none" xmlns="http://www.w3.org/2000/svg">
<path d="M2.6702 82.8209C14.9232 118.35 50.4528 119.376 50.8083 119.383C51.9717 119.366 53.0012 118.628 53.3931 117.532C53.7531 116.412 53.3345 115.189 52.3655 114.523C42.239 107.555 37.1202 100.109 37.154 92.3949H37.153C37.5517 86.3271 40.077 80.5923 44.2842 76.2005C43.1466 80.5398 43.7546 85.1507 45.9783 89.0456C49.3197 94.4848 56.2874 97.2819 65.6799 96.9901C71.2003 96.8027 75.1737 95.2415 77.5162 92.3424C77.782 93.6734 77.6888 95.0521 77.2484 96.3355C76.4282 97.5158 76.69 99.1326 77.8415 99.9923C78.993 100.852 80.6187 100.644 81.5163 99.5222C82.2869 98.5631 85.7245 92.992 77.9893 77.5187L77.9903 77.5197C77.3317 76.2094 75.7398 75.6778 74.4267 76.3275C73.1135 76.9781 72.572 78.567 73.2147 79.8842C73.8763 81.2351 75.3927 85.7101 73.7374 88.4645C72.5502 90.4422 69.779 91.5182 65.4974 91.6632C58.1658 91.9191 52.815 89.992 50.52 86.2547C47.9958 82.1496 48.9449 75.6364 53.19 67.9158H53.191C53.7831 66.8387 53.562 65.4958 52.6544 64.6656C51.7479 63.8354 50.3911 63.7342 49.3704 64.4196C48.6573 64.8986 31.9103 76.3354 31.8242 92.3468C31.7855 99.4452 35.0021 106.185 41.4092 112.466C33.5957 110.513 26.4049 106.609 20.5114 101.121C14.617 95.6326 10.2125 88.7382 7.70796 81.0835C1.96917 64.4376 14.144 51.3637 25.9179 38.7167C35.4404 28.487 44.5107 18.7444 43.2876 7.74773C47.2122 10.3066 52.446 16.3529 52.6128 30.4228C52.7973 46.0558 54.2731 52.5642 58.2602 55.2917C61.9111 57.794 66.763 56.2964 71.8302 54.3961L71.8292 54.3951C74.1659 53.4866 76.1862 51.9155 77.6424 49.8743C79.0984 47.8331 79.9266 45.4121 80.0247 42.9068C80.3868 37.5164 79.2085 32.1336 76.6257 27.3878C85.6462 33.4201 97.8388 45.4797 103.966 68.4953C107.133 80.3951 106.098 90.1745 100.885 97.5624C92.114 109.986 73.7624 113.232 63.6061 114.062L63.6071 114.063C62.1819 114.178 61.1018 115.397 61.1593 116.826C61.2159 118.254 62.3902 119.382 63.8203 119.383C63.8927 119.383 63.9661 119.38 64.0385 119.374C75.125 118.469 95.2182 114.83 105.24 100.636C111.405 91.898 112.712 80.624 109.12 67.1254C97.9449 25.1471 68.1038 17.0474 66.8393 16.725C65.5688 16.3997 64.2507 17.0473 63.731 18.2524C63.2123 19.4565 63.6457 20.859 64.7545 21.56C71.3084 26.4238 75.0398 34.2086 74.7244 42.3646C74.7215 43.8801 74.2662 45.3589 73.4172 46.6134C72.5682 47.8681 71.3642 48.8401 69.9598 49.4064C65.7464 50.9844 62.6541 51.8384 61.2693 50.8951C58.4822 48.9859 58.0371 38.2623 57.9437 30.3625C57.6233 3.3215 40.447 0.741814 39.715 0.645329C38.7668 0.519369 37.8246 0.911143 37.2453 1.67187C36.6661 2.4326 36.5392 3.44625 36.9121 4.32595C41.2087 14.4723 32.3159 24.0235 22.0179 35.0841C9.77 48.2378 -4.11156 63.1484 2.67053 82.8211L2.6702 82.8209Z" fill="#F0EEDD"/>
</svg>
