<svg width="84" height="103" viewBox="0 0 84 103" fill="none" xmlns="http://www.w3.org/2000/svg">
<path d="M1.78373 82.2008C14.0367 117.73 49.5663 118.756 49.9218 118.763C51.0852 118.745 52.1147 118.007 52.5066 116.912C52.8666 115.792 52.4481 114.569 51.479 113.903C41.3525 106.935 36.2338 99.489 36.2675 91.7748H36.2665C36.6652 85.707 39.1905 79.9722 43.3977 75.5804C42.2601 79.9197 42.8681 84.5306 45.0918 88.4255C48.4332 93.8647 55.4009 96.6617 64.7934 96.37C70.3138 96.1825 74.2872 94.6214 76.6297 91.7223C76.8955 93.0533 76.8023 94.4319 76.3619 95.7154C75.5417 96.8957 75.8035 98.5125 76.955 99.3722C78.1065 100.232 79.7323 100.024 80.6298 98.9021C81.4005 97.943 84.8381 92.3718 77.1028 76.8985L77.1038 76.8995C76.4452 75.5893 74.8533 75.0577 73.5402 75.7074C72.227 76.358 71.6855 77.9469 72.3282 79.2641C72.9898 80.615 74.5063 85.09 72.8509 87.8443C71.6637 89.822 68.8925 90.8981 64.6109 91.0431C57.2794 91.2989 51.9285 89.3718 49.6335 85.6346C47.1093 81.5294 48.0585 75.0162 52.3036 67.2957H52.3045C52.8967 66.2186 52.6755 64.8757 51.768 64.0455C50.8614 63.2153 49.5046 63.1141 48.4839 63.7995C47.7708 64.2785 31.0238 75.7153 30.9378 91.7266C30.8991 98.8251 34.1156 105.565 40.5227 111.846C32.7093 109.893 25.5184 105.989 19.625 100.501C13.7305 95.0124 9.32601 88.1181 6.82148 80.4634C1.08269 63.8175 13.2575 50.7436 25.0314 38.0966C34.5539 27.8669 43.6242 18.1243 42.4011 7.12762C46.3257 9.68648 51.5595 15.7328 51.7263 29.8027C51.9108 45.4357 53.3866 51.9441 57.3737 54.6716C61.0246 57.1739 65.8765 55.6763 70.9437 53.776L70.9427 53.775C73.2795 52.8665 75.2998 51.2954 76.7559 49.2542C78.2119 47.213 79.0401 44.792 79.1383 42.2867C79.5003 36.8963 78.322 31.5135 75.7392 26.7677C84.7598 32.8 96.9523 44.8596 103.08 67.8751C106.247 79.775 105.211 89.5544 99.9982 96.9423C91.2275 109.366 72.8759 112.612 62.7197 113.442L62.7207 113.443C61.2954 113.558 60.2153 114.777 60.2729 116.205C60.3294 117.634 61.5037 118.762 62.9338 118.763C63.0062 118.763 63.0796 118.76 63.152 118.754C74.2386 117.849 94.3317 114.21 104.353 100.016C110.518 91.2779 111.826 80.0039 108.233 66.5052C97.0584 24.5269 67.2173 16.4273 65.9528 16.1049C64.6823 15.7796 63.3643 16.4272 62.8445 17.6323C62.3258 18.8363 62.7592 20.2389 63.8681 20.9399C70.4219 25.8037 74.1533 33.5885 73.838 41.7445C73.835 43.26 73.3797 44.7388 72.5307 45.9933C71.6817 47.248 70.4777 48.22 69.0733 48.7863C64.86 50.3643 61.7677 51.2182 60.3829 50.275C57.5957 48.3658 57.1506 37.6422 57.0572 29.7424C56.7368 2.70139 39.5605 0.121696 38.8285 0.025212C37.8803 -0.100748 36.9381 0.291026 36.3588 1.05175C35.7796 1.81248 35.6527 2.82613 36.0256 3.70584C40.3222 13.8522 31.4294 23.4034 21.1315 34.464C8.88352 47.6176 -4.99804 62.5283 1.78405 82.2009L1.78373 82.2008Z" fill="#F0EEDD"/>
</svg>
