<svg width="96" height="106" viewBox="0 0 96 106" fill="none" xmlns="http://www.w3.org/2000/svg">
<path d="M-13.3298 82.7965C-1.07679 118.326 34.4528 119.351 34.8083 119.359C35.9717 119.341 37.0012 118.603 37.3931 117.507C37.7531 116.387 37.3345 115.165 36.3655 114.499C26.239 107.53 21.1202 100.085 21.154 92.3705H21.153C21.5517 86.3027 24.077 80.5679 28.2842 76.1761C27.1466 80.5154 27.7546 85.1263 29.9783 89.0212C33.3197 94.4604 40.2874 97.2574 49.6799 96.9657C55.2003 96.7783 59.1737 95.2171 61.5162 92.318C61.782 93.649 61.6888 95.0276 61.2484 96.3111C60.4282 97.4914 60.69 99.1082 61.8415 99.9679C62.993 100.828 64.6187 100.62 65.5163 99.4978C66.2869 98.5387 69.7245 92.9676 61.9893 77.4942L61.9903 77.4952C61.3317 76.185 59.7398 75.6534 58.4267 76.3031C57.1135 76.9537 56.572 78.5426 57.2147 79.8598C57.8763 81.2107 59.3927 85.6857 57.7374 88.44C56.5502 90.4177 53.779 91.4938 49.4974 91.6388C42.1658 91.8946 36.815 89.9676 34.52 86.2303C31.9958 82.1251 32.9449 75.6119 37.19 67.8914H37.191C37.7831 66.8143 37.562 65.4714 36.6544 64.6412C35.7479 63.811 34.3911 63.7098 33.3704 64.3952C32.6573 64.8742 15.9103 76.311 15.8242 92.3223C15.7855 99.4208 19.0021 106.16 25.4092 112.441C17.5957 110.488 10.4049 106.585 4.51144 101.097C-1.383 95.6081 -5.78751 88.7138 -8.29204 81.0591C-14.0308 64.4132 -1.85602 51.3393 9.91786 38.6923C19.4404 28.4626 28.5107 18.72 27.2876 7.72332C31.2122 10.2822 36.446 16.3285 36.6128 30.3984C36.7973 46.0314 38.2731 52.5398 42.2602 55.2673C45.9111 57.7696 50.763 56.272 55.8302 54.3717L55.8292 54.3707C58.1659 53.4622 60.1862 51.8911 61.6424 49.8499C63.0984 47.8087 63.9266 45.3877 64.0247 42.8824C64.3868 37.492 63.2085 32.1092 60.6257 27.3634C69.6462 33.3957 81.8388 45.4553 87.9663 68.4708C91.1333 80.3707 90.0977 90.1501 84.8847 97.538C76.114 109.962 57.7624 113.208 47.6061 114.038L47.6071 114.039C46.1819 114.154 45.1018 115.373 45.1593 116.801C45.2159 118.229 46.3902 119.358 47.8203 119.359C47.8927 119.359 47.9661 119.356 48.0385 119.35C59.125 118.444 79.2182 114.806 89.2398 100.612C95.4049 91.8736 96.7123 80.5996 93.1198 67.101C81.9449 25.1226 52.1038 17.023 50.8393 16.7006C49.5688 16.3753 48.2507 17.0229 47.731 18.228C47.2123 19.432 47.6457 20.8346 48.7545 21.5356C55.3084 26.3994 59.0398 34.1842 58.7244 42.3402C58.7215 43.8557 58.2662 45.3345 57.4172 46.589C56.5682 47.8437 55.3642 48.8157 53.9598 49.382C49.7464 50.96 46.6541 51.8139 45.2693 50.8707C42.4822 48.9615 42.0371 38.2379 41.9437 30.3381C41.6233 3.29709 24.447 0.717399 23.715 0.620915C22.7668 0.494955 21.8246 0.886729 21.2453 1.64746C20.6661 2.40819 20.5392 3.42183 20.9121 4.30154C25.2087 14.4479 16.3159 23.9991 6.01793 35.0597C-6.23 48.2133 -20.1116 63.124 -13.3295 82.7966L-13.3298 82.7965Z" fill="#F0EEDD"/>
</svg>
