<svg width="31" height="32" viewBox="0 0 31 32" fill="none" xmlns="http://www.w3.org/2000/svg">
<g opacity="0.6">
<rect x="0.5" y="0.977539" width="30" height="30" rx="15" stroke="#31443A"/>
<path d="M4.01529 20.8923C6.6544 28.5448 14.3069 28.7657 14.3835 28.7673C14.6341 28.7635 14.8558 28.6046 14.9402 28.3685C15.0178 28.1273 14.9276 27.8639 14.7189 27.7206C12.5378 26.2197 11.4353 24.616 11.4426 22.9545H11.4424C11.5282 21.6475 12.0721 20.4124 12.9783 19.4664C12.7333 20.401 12.8642 21.3942 13.3432 22.2331C14.0629 23.4046 15.5636 24.007 17.5866 23.9442C18.7756 23.9038 19.6314 23.5676 20.136 22.9431C20.1932 23.2298 20.1731 23.5268 20.0783 23.8032C19.9016 24.0574 19.958 24.4056 20.206 24.5908C20.4541 24.776 20.8042 24.7312 20.9975 24.4896C21.1635 24.283 21.9039 23.083 20.2379 19.7503L20.2381 19.7505C20.0962 19.4683 19.7534 19.3538 19.4705 19.4938C19.1877 19.6339 19.0711 19.9761 19.2095 20.2598C19.352 20.5508 19.6786 21.5146 19.3221 22.1079C19.0664 22.5339 18.4695 22.7656 17.5473 22.7968C15.9682 22.852 14.8157 22.4369 14.3214 21.6319C13.7777 20.7478 13.9822 19.3449 14.8965 17.682H14.8967C15.0242 17.45 14.9766 17.1608 14.7811 16.982C14.5859 16.8032 14.2936 16.7814 14.0738 16.929C13.9202 17.0322 10.3132 19.4955 10.2946 22.9441C10.2863 24.473 10.9791 25.9245 12.3591 27.2774C10.6762 26.8568 9.12737 26.016 7.85802 24.834C6.58845 23.6518 5.63978 22.1669 5.10035 20.5181C3.8643 16.9329 6.48657 14.117 9.02248 11.393C11.0735 9.18968 13.0271 7.09126 12.7636 4.72275C13.609 5.27389 14.7362 6.57616 14.7722 9.60661C14.8119 12.9737 15.1298 14.3755 15.9885 14.963C16.7749 15.502 17.8199 15.1794 18.9113 14.7701L18.9111 14.7699C19.4144 14.5742 19.8495 14.2358 20.1631 13.7962C20.4767 13.3565 20.6551 12.8351 20.6763 12.2955C20.7542 11.1345 20.5005 9.97509 19.9442 8.95292C21.8871 10.2522 24.5131 12.8496 25.8329 17.8068C26.515 20.3699 26.292 22.4762 25.1692 24.0675C23.2801 26.7433 19.3275 27.4425 17.14 27.6213L17.1402 27.6215C16.8332 27.6463 16.6006 27.9088 16.613 28.2164C16.6251 28.524 16.8781 28.7671 17.1861 28.7673C17.2017 28.7673 17.2175 28.7667 17.2331 28.7654C19.6209 28.5704 23.9487 27.7866 26.1072 24.7294C27.4351 22.8474 27.7167 20.4192 26.9429 17.5118C24.536 8.47029 18.1087 6.72576 17.8363 6.65631C17.5627 6.58624 17.2788 6.72573 17.1668 6.98529C17.0551 7.24462 17.1485 7.54671 17.3873 7.6977C18.7989 8.74529 19.6026 10.422 19.5347 12.1787C19.534 12.5051 19.436 12.8236 19.2531 13.0938C19.0702 13.3641 18.8109 13.5734 18.5084 13.6954C17.6009 14.0353 16.9349 14.2192 16.6366 14.016C16.0363 13.6048 15.9405 11.2951 15.9203 9.59362C15.8513 3.7694 12.1518 3.21378 11.9942 3.193C11.7899 3.16587 11.587 3.25025 11.4622 3.4141C11.3375 3.57795 11.3101 3.79627 11.3905 3.98575C12.3159 6.17111 10.4005 8.22829 8.18249 10.6106C5.54448 13.4437 2.5546 16.6552 4.01536 20.8924L4.01529 20.8923Z" fill="#31443A"/>
</g>
</svg>
