<svg width="200" height="201" viewBox="0 0 200 201" fill="none" xmlns="http://www.w3.org/2000/svg">
<path d="M198.714 117.161C186.224 114.791 172.559 112.404 161.851 104.671C158.876 99.3261 163.633 94.569 167.196 90.3997C176.104 77.91 183.249 66.6142 186.812 51.7551C187.4 47.5858 185.618 41.6532 180.861 42.2409C171.347 50.5613 159.463 57.1 146.974 58.8816C143.998 59.4693 142.217 56.5122 141.629 54.1245C139.847 37.4839 135.09 21.431 128.551 6.57191C126.77 3.00868 123.207 0.0332031 119.037 0.0332031C114.868 0.620952 116.062 5.98417 115.474 8.94128C113.105 19.6493 110.717 29.7513 104.178 38.0716C102.397 40.441 99.421 39.2655 97.0517 38.0716C82.1926 27.3635 68.5091 17.8677 51.2807 13.1106C48.3052 12.5229 45.9359 13.6984 43.5481 14.8922C41.1604 16.0861 42.3543 17.8677 42.3543 19.0616C48.893 30.3574 57.2133 39.8716 58.9949 52.949C58.9949 55.9245 56.6256 57.7061 54.2378 57.7061C36.9911 60.0755 21.5443 64.2448 6.07915 71.3713C1.90981 73.7406 -1.65342 78.4977 0.734312 83.2548C13.224 85.0364 25.1075 87.4242 36.4033 94.5506C38.7727 95.7445 39.9666 98.1139 38.7727 100.502C32.234 111.797 23.9137 121.312 18.5688 133.195C16.1995 138.54 14.3995 143.297 12.6179 148.642C12.0301 152.205 13.2056 155.768 16.1811 157.55C17.375 158.138 19.1566 158.138 20.3504 156.962L22.132 155.181C23.9137 154.593 25.1075 153.399 26.3014 152.205C35.2095 147.448 42.942 140.909 53.044 141.497C54.8256 141.497 56.6072 141.497 57.2133 143.866C58.9949 150.993 58.9949 157.532 60.7765 164.676C61.3643 167.046 61.9704 168.846 62.5582 171.215C65.5336 179.536 67.3153 187.856 72.6601 195.588C74.4417 198.564 78.6111 201.539 82.762 199.152C85.1314 189.05 86.3253 179.536 90.4946 170.021C92.864 165.852 95.2517 159.313 100.597 161.701C103.572 162.895 106.547 165.264 109.505 167.652C121.388 176.56 134.466 182.511 148.149 187.268C150.518 187.856 152.906 187.268 154.688 186.074C155.882 184.88 158.857 183.099 157.663 181.317C149.931 170.609 142.804 159.313 140.417 146.842C141.61 142.085 146.955 141.497 151.125 141.497C166.571 139.715 180.843 134.958 195.114 127.832C198.089 126.05 201.653 120.705 198.677 117.124L198.714 117.161Z" fill="#FF9D00" fill-opacity="0.3"/>
</svg>
