<svg width="21" height="21" viewBox="0 0 21 21" fill="none" xmlns="http://www.w3.org/2000/svg">
<path d="M10.4997 2.22176C13.1324 2.22176 13.4914 2.22176 14.5684 2.22176C15.5257 2.22176 16.0044 2.46109 16.3634 2.58076C16.842 2.82009 17.201 2.93976 17.56 3.29876C17.919 3.65776 18.1584 4.01676 18.278 4.49542C18.3977 4.85442 18.5174 5.33309 18.637 6.29042C18.637 7.36742 18.637 7.60675 18.637 10.3591C18.637 13.1114 18.637 13.3508 18.637 14.4278C18.637 15.3851 18.3977 15.8638 18.278 16.2228C18.0387 16.7014 17.919 17.0604 17.56 17.4194C17.201 17.7784 16.842 18.0177 16.3634 18.1374C16.0044 18.2571 15.5257 18.3767 14.5684 18.4964C13.4914 18.4964 13.252 18.4964 10.4997 18.4964C7.74738 18.4964 7.50805 18.4964 6.43105 18.4964C5.47371 18.4964 4.99505 18.2571 4.63605 18.1374C4.15738 17.8981 3.79838 17.7784 3.43938 17.4194C3.08038 17.0604 2.84105 16.7014 2.72138 16.2228C2.60172 15.8638 2.48205 15.3851 2.36238 14.4278C2.36238 13.3508 2.36238 13.1114 2.36238 10.3591C2.36238 7.60675 2.36238 7.36742 2.36238 6.29042C2.36238 5.33309 2.60172 4.85442 2.72138 4.49542C2.96072 4.01676 3.08038 3.65776 3.43938 3.29876C3.79838 2.93976 4.15738 2.70042 4.63605 2.58076C4.99505 2.46109 5.47371 2.34142 6.43105 2.22176C7.50805 2.22176 7.86705 2.22176 10.4997 2.22176ZM10.4997 0.426758C7.74738 0.426758 7.50805 0.426758 6.43105 0.426758C5.35405 0.426758 4.63605 0.666092 4.03772 0.905425C3.43938 1.14476 2.84105 1.50376 2.24272 2.10209C1.64438 2.70042 1.40505 3.17909 1.04605 3.89709C0.806717 4.49542 0.687049 5.21342 0.567383 6.29042C0.567383 7.36742 0.567383 7.72642 0.567383 10.3591C0.567383 13.1114 0.567383 13.3508 0.567383 14.4278C0.567383 15.5048 0.806717 16.2228 1.04605 16.8211C1.28538 17.4194 1.64438 18.0177 2.24272 18.6161C2.84105 19.2144 3.31972 19.4538 4.03772 19.8127C4.63605 20.0521 5.35405 20.1717 6.43105 20.2914C7.50805 20.2914 7.86705 20.2914 10.4997 20.2914C13.1324 20.2914 13.4914 20.2914 14.5684 20.2914C15.6454 20.2914 16.3634 20.0521 16.9617 19.8127C17.56 19.5734 18.1584 19.2144 18.7567 18.6161C19.355 18.0177 19.5944 17.5391 19.9534 16.8211C20.1927 16.2228 20.3124 15.5048 20.432 14.4278C20.432 13.3508 20.432 12.9918 20.432 10.3591C20.432 7.72642 20.432 7.36742 20.432 6.29042C20.432 5.21342 20.1927 4.49542 19.9534 3.89709C19.714 3.29876 19.355 2.70042 18.7567 2.10209C18.1584 1.50376 17.6797 1.26442 16.9617 0.905425C16.3634 0.666092 15.6454 0.546424 14.5684 0.426758C13.4914 0.426758 13.252 0.426758 10.4997 0.426758Z" fill="#31443A"/>
<path d="M10.4997 5.21342C7.62771 5.21342 5.35405 7.48709 5.35405 10.3591C5.35405 13.2311 7.62771 15.5048 10.4997 15.5048C13.3717 15.5048 15.6454 13.2311 15.6454 10.3591C15.6454 7.48709 13.3717 5.21342 10.4997 5.21342ZM10.4997 13.7098C8.70471 13.7098 7.14905 12.2738 7.14905 10.3591C7.14905 8.56409 8.58505 7.00842 10.4997 7.00842C12.2947 7.00842 13.8504 8.44442 13.8504 10.3591C13.8504 12.1541 12.2947 13.7098 10.4997 13.7098Z" fill="#31443A"/>
<path d="M15.765 6.29042C16.4259 6.29042 16.9617 5.75466 16.9617 5.09376C16.9617 4.43286 16.4259 3.89709 15.765 3.89709C15.1041 3.89709 14.5684 4.43286 14.5684 5.09376C14.5684 5.75466 15.1041 6.29042 15.765 6.29042Z" fill="#31443A"/>
</svg>
