<svg width="81" height="80" viewBox="0 0 81 80" fill="none" xmlns="http://www.w3.org/2000/svg">
<circle cx="40.5" cy="40" r="39.3143" stroke="#31443A" stroke-width="1.37143" stroke-linecap="round" stroke-dasharray="2.29 3.43 6.86 9.14 11.43 2.29 3.43 6.86"/>
<circle cx="71.1284" cy="46.6286" r="1.82857" fill="#31443A"/>
<circle cx="46.0998" cy="66.6286" r="0.914286" fill="#31443A"/>
<path d="M29.6997 39.6C18.0426 35.7714 16.3855 43.1429 1.52832 39.6M40.614 28.4C40.614 28.4 44.214 20.8571 40.614 15.2C37.014 9.54286 40.614 0.742859 40.614 0.742859M51.1855 39.6C51.1855 39.6 55.2997 42.9714 65.014 39.6C74.7283 36.2286 79.814 39.6 79.814 39.6M40.614 49.5429C35.9855 61.0857 44.8997 68 40.614 79.3714" stroke="#31443A" stroke-width="1.37143"/>
<circle cx="34.4429" cy="18.0571" r="2.28571" fill="#31443A"/>
<circle cx="26.7856" cy="9.71428" r="1.82857" fill="#31443A"/>
<circle cx="7.24295" cy="32.9143" r="1.14286" fill="#31443A"/>
<circle cx="14.6712" cy="44.8" r="1.14286" fill="#31443A"/>
<circle cx="74.0999" cy="31.0857" r="1.14286" fill="#31443A"/>
<circle cx="51.7001" cy="9.37143" r="1.48571" fill="#31443A"/>
<circle cx="27.8141" cy="70.8571" r="0.571429" fill="#31443A"/>
<circle cx="33.586" cy="66.4572" r="2.11429" fill="#31443A"/>
<circle cx="40.4999" cy="39.0857" r="5.02857" stroke="#31443A" stroke-width="1.37143"/>
<circle cx="40.4999" cy="39.0857" r="10.7429" stroke="#31443A" stroke-width="1.37143"/>
<path d="M16.3829 30.597C15.387 30.1118 14.4797 29.4716 13.7122 28.6847C13.7457 25.9727 14.2147 24.1067 14.8819 22.7367C15.5718 21.3201 16.5018 20.3748 17.5098 19.5487C17.8437 19.2751 18.1968 19.01 18.556 18.7403C19.9446 17.698 21.4241 16.5874 22.2382 14.6462C22.2433 14.6692 22.2483 14.6926 22.2532 14.7164C22.3761 15.3151 22.3885 16.0132 22.4028 16.8149C22.4042 16.8942 22.4057 16.9745 22.4072 17.0558C22.4236 17.9107 22.4546 18.8811 22.7098 19.7395C22.9762 20.6354 23.503 21.4638 24.5197 21.95C25.0913 22.2234 25.6593 22.0697 26.0664 21.8192C26.4674 21.5725 26.799 21.1897 27.0434 20.7826C27.1799 20.5551 27.3035 20.2946 27.3992 20.0144C27.701 20.5125 28.0182 21.1274 28.2993 21.8209C29.155 23.9327 29.596 26.5671 28.5198 28.7994C27.8539 29.4778 27.0973 30.0351 26.2794 30.4736C23.2681 32.0882 19.438 32.0855 16.3829 30.597Z" stroke="#31443A" stroke-width="1.59331" stroke-linecap="round" stroke-linejoin="round"/>
<path d="M31.5637 55.5614C31.7775 56 32.0071 56.4708 32.2556 56.9758C32.0781 57.3912 31.9188 57.7611 31.6413 58.2421C31.2917 58.848 30.7484 59.6365 29.756 60.8282C27.3395 63.483 23.7834 64.2897 20.4067 63.715C17.1807 63.1659 14.2643 61.3796 12.794 58.9409C14.0809 56.8675 14.3144 56.5024 14.5443 56.1352C14.8367 55.668 15.1233 55.1972 17.5638 51.2034C17.694 50.9904 18.2315 50.128 18.8671 49.344C19.1871 48.9492 19.5081 48.6044 19.7945 48.3732C20.0648 48.1549 20.1856 48.1344 20.185 48.13C20.185 48.1296 20.184 48.1294 20.1822 48.1291C20.2271 48.1335 20.2724 48.1341 20.3174 48.131C20.8626 48.0934 21.5037 48.4784 22.2056 49.3662C22.8756 50.2136 23.4353 51.3137 23.8373 52.2127C23.8411 52.2211 23.845 52.2294 23.849 52.2376C23.8596 52.2638 23.8716 52.2895 23.8849 52.3146C23.955 52.4464 24.0736 52.608 24.2694 52.7231C24.4771 52.845 24.6991 52.872 24.8919 52.8451C25.2145 52.8002 25.4522 52.6061 25.5625 52.5102C25.7976 52.3058 26.0569 51.9873 26.2761 51.718C26.2937 51.6963 26.3111 51.6749 26.3282 51.654C26.5861 51.3378 26.8323 51.0408 27.0752 50.8104C27.3386 50.5606 27.4837 50.5024 27.5192 50.4965C27.9663 50.422 28.2549 50.4732 28.495 50.5971C28.7578 50.7327 29.054 51.0024 29.4221 51.5319C30.0141 52.3837 30.6432 53.6738 31.5637 55.5614Z" stroke="#31443A" stroke-width="1.62825" stroke-linecap="round" stroke-linejoin="round"/>
<g opacity="0.87">
<path d="M61.327 32.3175C59.6575 32.6457 57.5021 32.5709 55.1189 31.2191C56.6295 31.4978 58.0139 31.41 59.3072 31.0886C61.2164 30.6141 62.9015 29.6359 64.4636 28.6582C64.6898 28.5167 64.913 28.3757 65.1338 28.2362C67.628 26.6604 69.8121 25.2804 72.3909 25.5795C71.6819 25.8836 71.1432 26.1031 70.7135 26.2782C70.5955 26.3263 70.4858 26.371 70.383 26.4132C69.78 26.6608 69.3808 26.835 68.9821 27.1005C68.5911 27.3609 68.2168 27.6983 67.637 28.2379C67.5333 28.3344 67.4222 28.4382 67.3024 28.5502C66.7418 29.0739 65.9881 29.7779 64.8972 30.7597L64.8972 30.7597L64.8935 30.7631C64.8946 30.7621 64.8933 30.7631 64.8895 30.7661C64.8704 30.7814 64.7874 30.8477 64.6368 30.9508C64.465 31.0683 64.2181 31.2247 63.9053 31.3926C63.2787 31.729 62.3956 32.1075 61.327 32.3175Z" stroke="#1C2420" stroke-width="1.17673"/>
<path d="M61.1892 26.4938L61.1892 26.4939L61.1964 26.4883C64.7798 23.6768 66.6053 22.4836 67.7713 22.0424C68.326 21.8325 68.706 21.8039 69.0498 21.8439C69.1163 21.8516 69.1816 21.8618 69.247 21.8741C69.2123 21.888 69.1805 21.8999 69.1522 21.9096C69.1004 21.9274 69.0744 21.9331 69.0698 21.9341C69.069 21.9343 69.0688 21.9343 69.0692 21.9342L68.9365 21.953L68.8251 22.0273C68.0916 22.5162 67.0251 23.5174 66.1735 24.3582C65.7402 24.7859 65.3502 25.1847 65.0686 25.4765C64.9277 25.6224 64.8138 25.7418 64.7349 25.8249L64.6439 25.921L64.6292 25.9366C62.1182 28.1854 60.0351 29.0397 58.3885 29.2054C56.8906 29.3562 55.6936 28.9434 54.793 28.3968C56.2436 28.4974 57.7172 28.0906 58.8486 27.6519C60.0693 27.1787 60.9599 26.6411 61.1087 26.5494L61.1088 26.5494L61.1134 26.5464C61.1428 26.528 61.1676 26.5102 61.1892 26.4938Z" stroke="#1C2420" stroke-width="1.17673"/>
<path d="M51.1851 19.1745C50.6312 20.1438 50.0287 21.5481 49.9624 23.1617C49.8892 24.9421 50.4721 26.9256 52.3735 28.7983C52.34 28.7992 52.3012 28.7941 52.2583 28.7787C51.2494 28.4148 50.1779 27.8337 49.3971 26.9169C48.6308 26.017 48.1104 24.7548 48.2509 22.9419L48.2509 22.9418C48.2749 22.7629 48.6425 20.3703 51.1851 19.1745ZM48.252 22.9292C48.2521 22.9282 48.252 22.9283 48.252 22.9288C48.252 22.9291 48.252 22.9294 48.2519 22.9298L48.252 22.9292Z" stroke="#1C2420" stroke-width="1.17673"/>
<path d="M53.4381 23.6694L53.4381 23.6695C53.4495 24.087 53.8332 24.4741 54.3325 24.4911C55.9715 24.5456 57.1402 23.2658 57.078 21.544C56.9957 20.3962 56.3647 19.3268 55.7003 18.5108C55.3726 18.1083 55.0495 17.783 54.8087 17.5588C54.6886 17.447 54.5898 17.3611 54.5223 17.3042C54.4885 17.2757 54.4627 17.2545 54.4459 17.241L54.4386 17.2351C51.4578 15.2549 48.2531 15.7571 45.7842 16.7615C46.6238 16.564 47.462 16.3997 48.1587 16.3294C50.5234 16.0907 52.3687 16.9752 53.6055 17.8998C54.2236 18.3619 54.6957 18.8379 55.0144 19.1994C55.174 19.3805 55.296 19.534 55.3795 19.6441C55.4212 19.6992 55.4534 19.7436 55.4758 19.7752C55.487 19.7911 55.4959 19.8038 55.5022 19.813L55.506 19.8185C55.6993 20.0852 55.8589 20.3456 55.9637 20.5937C56.0662 20.8363 56.1423 21.1274 56.0854 21.4249C56.0214 21.7593 55.8097 22.0029 55.5332 22.1473C55.2824 22.2782 54.9839 22.3273 54.6837 22.3388L53.4381 23.6694ZM53.4381 23.6694C53.4189 22.9605 53.9734 22.3665 54.6834 22.3388L53.4381 23.6694Z" stroke="#1C2420" stroke-width="1.17673"/>
<path d="M61.8591 22.72C61.4102 23.3133 60.7434 23.7893 60.0269 24.1604C60.0129 23.626 60.011 23.1344 60.0102 22.6744C60.0101 22.6341 60.01 22.594 60.0099 22.5541C60.0092 22.1225 60.0086 21.7145 59.9979 21.3328C59.9747 20.5008 59.9037 19.7404 59.6557 19.0252C59.2022 17.7174 58.2065 16.6953 56.2585 15.5434C57.333 15.6434 58.4807 15.8997 59.4949 16.4417C60.7871 17.1322 61.8874 18.2973 62.3488 20.2858L62.3488 20.2859C62.585 21.3034 62.3383 22.0868 61.8591 22.72Z" stroke="#1C2420" stroke-width="1.17673"/>
</g>
<path d="M66.4798 51.0648C60.3082 45.6711 55.7651 52.0237 55.7651 52.0237C55.7651 52.0237 62.1082 47.8285 65.7941 53.1024C66.737 53.9414 68.4513 52.623 66.4798 51.0648Z" stroke="#31443A" stroke-width="1.34108" stroke-linejoin="round"/>
<path d="M64.2587 63.6449C59.9313 60.6489 54.8725 64.8689 51.4604 64.8689C48.6253 59.6674 51.4605 53.4155 60.1985 52.9161C62.8305 52.7658 64.0478 54.6524 63.3609 56.5469C61.2804 52.7516 57.9516 56.5469 60.1985 58.5442C60.6979 58.988 63.7492 60.9818 64.2587 63.6449Z" stroke="#31443A" stroke-width="1.34108"/>
<path d="M55.1205 48.1325C47.2979 51.0451 48.7126 58.8678 48.7126 58.8678C48.7126 58.8678 50.7099 50.629 55.8695 49.7968C56.7017 49.7968 57.0346 47.4198 55.1205 48.1325Z" stroke="#31443A" stroke-width="1.34108" stroke-linejoin="round"/>
</svg>
