<svg width="31" height="31" viewBox="0 0 31 31" fill="none" xmlns="http://www.w3.org/2000/svg">
<rect x="0.5" y="0.502441" width="30" height="30" rx="15" stroke="#31443A" stroke-opacity="0.6"/>
<path opacity="0.6" d="M5.24912 23.6771H13.8301C13.8343 23.6771 13.8428 23.6812 13.8472 23.6812H25.7513C25.9008 23.6812 26.0418 23.6002 26.1188 23.472C26.1956 23.3438 26.1998 23.1815 26.1229 23.0491L20.1729 12.2854C20.0234 12.012 19.575 12.012 19.4254 12.2854L17.3666 16.0058L13.232 7.5698C13.1594 7.42455 13.0098 7.33057 12.8475 7.33057C12.6851 7.33057 12.5357 7.42456 12.463 7.5698L4.86428 23.0576C4.8001 23.19 4.80864 23.3481 4.88554 23.4719C4.96243 23.5957 5.09914 23.677 5.24877 23.677L5.24912 23.6771ZM20.4552 22.8228C20.451 22.8228 20.4466 22.8187 20.4424 22.8187L14.5733 22.8185L18.0246 16.5739L18.567 16.9925C18.6439 17.0524 18.7379 17.0822 18.8275 17.0822C18.9428 17.0822 19.0582 17.0353 19.1437 16.9413L19.6478 16.3861L20.4678 16.9969C20.5831 17.0824 20.7327 17.1036 20.865 17.0567L21.6765 16.7706L25.0253 22.8229L20.4552 22.8228ZM19.8016 13.3746L21.2625 16.0142L20.7969 16.1765L19.8487 15.4717C19.6736 15.3394 19.4258 15.365 19.2764 15.5272L18.7767 16.0738L18.4435 15.8175L19.8016 13.3746ZM12.8479 8.72313L14.8683 12.8492L13.7194 13.3062L12.7754 12.5204C12.6858 12.4478 12.5747 12.4093 12.4592 12.4222C12.344 12.4349 12.2415 12.4906 12.1687 12.5802L11.6861 13.1824L10.9642 12.5545L12.8479 8.72313ZM10.5797 13.349L11.4681 14.1177C11.5577 14.1946 11.6688 14.2288 11.7884 14.2203C11.9037 14.2117 12.0106 14.1519 12.0831 14.0623L12.5701 13.4559L13.3731 14.1265C13.4502 14.1861 13.5483 14.2203 13.6465 14.2203C13.6978 14.2203 13.7532 14.2118 13.8045 14.1905L15.2483 13.6138L16.8627 16.9113L13.5952 22.8187L5.93246 22.8185L10.5797 13.349Z" fill="#3F3A33"/>
</svg>
