<svg width="113" height="85" viewBox="0 0 113 85" fill="none" xmlns="http://www.w3.org/2000/svg">
<path d="M-5.93963 93.2062H42.5614C42.585 93.2062 42.6333 93.2298 42.658 93.2298H109.943C110.787 93.2298 111.584 92.7715 112.019 92.0471C112.454 91.3227 112.477 90.4052 112.043 89.6572L78.412 28.8188C77.5674 27.2734 75.0325 27.2734 74.187 28.8188L62.5503 49.8469L39.1807 2.1652C38.7708 1.3442 37.9251 0.812988 37.0075 0.812988C36.0899 0.812988 35.2454 1.34423 34.8343 2.1652L-8.11484 89.7052C-8.4776 90.4532 -8.42932 91.3472 -7.99467 92.0469C-7.56003 92.7466 -6.78733 93.2059 -5.94163 93.2059L-5.93963 93.2062ZM80.0075 88.3779C79.9839 88.3779 79.9592 88.3544 79.9356 88.3544L46.762 88.3532L66.2694 53.0578L69.3355 55.4242C69.7701 55.7622 70.3014 55.9307 70.8079 55.9307C71.4593 55.9307 72.1118 55.6656 72.5948 55.1344L75.4441 51.9965L80.0791 55.449C80.7305 55.9319 81.5762 56.0521 82.3242 55.787L86.911 54.1698L105.839 88.3784L80.0075 88.3779ZM76.3135 34.9747L84.5707 49.8942L81.9393 50.8118L76.5797 46.8283C75.5902 46.0803 74.1897 46.2251 73.3451 47.1416L70.5205 50.2313L68.637 48.7824L76.3135 34.9747ZM37.0101 8.68398L48.4299 32.0053L41.9361 34.5884L36.6001 30.1466C36.0936 29.7367 35.4657 29.5188 34.8132 29.5918C34.1618 29.6637 33.5823 29.9781 33.1713 30.4847L30.4432 33.8888L26.3631 30.3398L37.0101 8.68398ZM24.1897 34.8301L29.2112 39.1753C29.7177 39.61 30.3455 39.8032 31.0217 39.7549C31.6731 39.7066 32.2773 39.3685 32.6872 38.862L35.44 35.4342L39.9784 39.2248C40.4142 39.5618 40.969 39.7549 41.5238 39.7549C41.8136 39.7549 42.1269 39.7066 42.4167 39.5865L50.5773 36.3272L59.7024 54.9651L41.2341 88.3544L-2.07725 88.3532L24.1897 34.8301Z" fill="#F0EEDD"/>
</svg>
