<svg width="331" height="300" viewBox="0 0 331 300" fill="none" xmlns="http://www.w3.org/2000/svg">
<path d="M330.972 89.1854C330.972 89.1854 330.972 88.9016 330.943 88.7596C330.943 88.7596 330.943 88.7312 330.943 88.7029C330.915 88.5609 330.858 88.419 330.801 88.3055C330.801 88.3055 330.631 88.05 330.546 87.9365L250.179 0.652903C250.179 0.652903 250.122 0.596133 250.122 0.567748C250.122 0.567748 250.094 0.510979 250.065 0.510979C250.037 0.482594 249.98 0.425824 249.952 0.397439C249.952 0.397439 249.895 0.369054 249.867 0.340669C249.81 0.312284 249.753 0.283899 249.697 0.255514C249.697 0.255514 249.668 0.255514 249.64 0.22713C249.47 0.141975 249.3 0.11359 249.129 0.0852051C249.129 0.0852051 249.129 0.0852051 249.101 0.0852051C249.044 0.0852051 248.959 0.0852051 248.874 0.0852051H248.789C248.789 0.0852051 248.675 0.0852051 248.59 0.0852051C248.59 0.0852051 248.534 0.0852051 248.477 0.0852051C248.477 0.0852051 248.42 0.0852051 248.363 0.0852051C248.363 0.0852051 248.363 0.0852051 248.335 0.0852051C248.335 0.0852051 248.278 0.0852051 248.222 0.0852051C248.165 0.0852051 248.136 0.141975 248.08 0.141975C248.08 0.141975 248.08 0.141975 248.051 0.141975L165.613 35.3676L83.062 0.141975C83.062 0.141975 83.062 0.141975 83.0336 0.141975C83.0053 0.141975 82.9485 0.141975 82.8918 0.0852051C82.8634 0.0852051 82.8067 0.0852051 82.7783 0.0852051C82.7499 0.0852051 82.6932 0.0852051 82.6648 0.0852051C82.6648 0.0852051 82.6081 0.0852051 82.5514 0.0852051C82.4946 0.0852051 82.4379 0.0852051 82.3812 0.0852051H82.2961C82.2961 0.0852051 82.1258 0.0852051 82.0407 0.0852051C81.8705 0.11359 81.7003 0.17036 81.5301 0.22713C81.5301 0.22713 81.5017 0.22713 81.4734 0.22713C81.4166 0.255514 81.3599 0.283899 81.3032 0.340669C81.3032 0.340669 81.2464 0.369054 81.2181 0.397439C81.1897 0.425824 81.133 0.482594 81.0762 0.510979C81.0762 0.510979 81.0762 0.539363 81.0195 0.567748C81.0195 0.567748 80.9911 0.624518 80.9628 0.652903L0.538948 87.8797C0.453843 87.9932 0.34037 88.1068 0.283634 88.2487H0.226898C0.226898 88.2487 0.113425 88.5326 0.0850567 88.6745C0.0850567 88.6745 0.0850567 88.7029 0.0850567 88.7312C0.0850567 88.8732 0.0566885 89.0151 0.0283203 89.157V89.2422C0.0283203 89.2422 0.0283203 89.526 0.0850567 89.6679H0.0566885C0.0566885 89.6679 0.0566885 89.7247 0.0566885 89.7531C0.0566885 89.8099 0.0566885 89.8666 0.113425 89.895L32.8503 180.329C32.8503 180.329 32.8787 180.414 32.907 180.443C32.9354 180.556 32.9921 180.642 33.0489 180.755C33.0489 180.812 33.1056 180.84 33.134 180.869C33.1907 180.954 33.2475 181.011 33.3326 181.067C33.3326 181.067 33.3326 181.067 33.3326 181.096L164.082 299.404C164.082 299.404 164.11 299.404 164.138 299.432C164.167 299.461 164.138 299.432 164.167 299.432C164.167 299.432 164.223 299.489 164.28 299.518C164.28 299.518 164.28 299.518 164.337 299.546C164.337 299.546 164.337 299.546 164.365 299.546C164.365 299.546 164.365 299.546 164.394 299.546C164.394 299.546 164.422 299.546 164.45 299.546C164.479 299.546 164.535 299.574 164.592 299.603C164.592 299.603 164.592 299.603 164.649 299.603C164.649 299.603 164.649 299.603 164.706 299.603C164.706 299.603 164.706 299.603 164.734 299.603C164.791 299.603 164.847 299.603 164.904 299.631C164.904 299.631 164.933 299.631 164.961 299.631C164.961 299.631 164.961 299.631 165.018 299.631H165.046C165.046 299.631 165.216 299.631 165.273 299.631C165.273 299.631 165.443 299.631 165.528 299.631H165.557C165.557 299.631 165.557 299.631 165.585 299.631C165.585 299.631 165.613 299.631 165.642 299.631C165.699 299.631 165.755 299.631 165.812 299.603C165.812 299.603 165.812 299.603 165.84 299.603C165.84 299.603 165.869 299.603 165.897 299.603C165.897 299.603 165.925 299.603 165.954 299.603C166.011 299.603 166.039 299.546 166.096 299.546C166.096 299.546 166.124 299.546 166.152 299.546C166.152 299.546 166.152 299.546 166.181 299.546C166.181 299.546 166.181 299.546 166.209 299.546C166.209 299.546 166.266 299.546 166.266 299.489C166.294 299.489 166.351 299.461 166.379 299.432C166.379 299.432 166.379 299.432 166.408 299.432C166.436 299.432 166.408 299.432 166.464 299.404L297.213 181.096C297.213 181.096 297.213 181.096 297.213 181.067C297.27 181.011 297.355 180.925 297.412 180.869C297.412 180.84 297.469 180.783 297.497 180.755C297.554 180.67 297.611 180.556 297.639 180.443C297.639 180.414 297.667 180.358 297.696 180.358L330.433 89.895C330.433 89.8383 330.461 89.8099 330.489 89.7531C330.489 89.7531 330.489 89.7247 330.489 89.6963C330.489 89.526 330.518 89.3841 330.546 89.2422C330.546 89.2422 330.546 89.1854 330.546 89.157L330.972 89.1854ZM81.3883 5.96088L118.834 129.123L5.53175 88.3906L81.3883 5.96088ZM38.1835 180.102L120.621 135.339L161.812 291.996L38.1835 180.102ZM163.486 282.458L158.096 261.993L124.054 132.501L163.486 46.7216V282.43V282.458ZM245.527 5.56349L208.676 126.71L179.145 62.4752L168.195 38.6319L245.527 5.56349ZM295.171 176.81L213.981 132.728L325.667 92.5916L295.171 176.81ZM167.514 46.75V282.458L172.904 261.993L206.946 132.501L167.514 46.7216V46.75ZM5.36154 92.5632L35.8573 176.781L117.047 132.699L5.36154 92.5632ZM249.612 5.96088L212.137 129.123L325.468 88.419L249.612 5.96088ZM85.4449 5.56349L122.324 126.71L151.855 62.4752L162.805 38.6319L85.4449 5.56349ZM210.35 135.339L169.159 291.996L292.788 180.131L210.322 135.368L210.35 135.339Z" fill="#73B6FF"/>
</svg>
