<svg width="41" height="41" viewBox="0 0 41 41" fill="none" xmlns="http://www.w3.org/2000/svg">
<path d="M26.7678 33.8474C23.0844 33.8474 20.0958 30.8514 20.0958 27.1504H13.4238C13.4238 34.5486 19.3972 40.5444 26.7678 40.5444C34.1384 40.5444 40.1118 34.5486 40.1118 27.1504H33.4398C33.4398 30.8514 30.4512 33.8474 26.7678 33.8474Z" fill="#6A5847"/>
<path d="M6.7558 27.1469C6.7558 30.8479 9.74063 33.8477 13.4278 33.8477V40.5447C6.05722 40.5447 0.0800781 34.5489 0.0800781 27.1469C0.0800781 19.745 6.05722 13.7529 13.4278 13.7529V20.4499C9.74063 20.4499 6.7558 23.4497 6.7558 27.1469Z" fill="#6A5847"/>
<path d="M13.424 7.05931C17.1075 7.05931 20.096 10.0553 20.096 13.7563H26.768C26.768 6.35811 20.7946 0.362305 13.424 0.362305C6.05722 0.362305 0.0800781 6.35811 0.0800781 13.7563H6.75206C6.75206 10.0553 9.74063 7.05931 13.424 7.05931Z" fill="#6A5847"/>
<path d="M33.4396 13.7563C33.4396 17.4535 30.4547 20.4533 26.7676 20.4533V27.1503C34.1381 27.1503 40.1115 21.1545 40.1115 13.7563C40.1115 6.35811 34.1381 0.362305 26.7676 0.362305V7.05931C30.4547 7.05931 33.4396 10.0591 33.4396 13.7563Z" fill="#6A5847"/>
</svg>
