<svg width="48" height="55" viewBox="0 0 48 55" fill="none" xmlns="http://www.w3.org/2000/svg">
<path fill-rule="evenodd" clip-rule="evenodd" d="M45.1934 34.9009L39.5934 33.0342V24.5542C39.4033 15.1549 34.4779 6.48778 26.5 1.51419C25.0866 0.606437 23.2735 0.606437 21.86 1.51419C13.8822 6.48778 8.95679 15.1549 8.76671 24.5542V33.1409L3.16671 35.0075C1.56636 35.5475 0.491826 37.0519 0.500047 38.7409V49.4075C0.503884 51.0077 1.27538 52.5088 2.57427 53.4434C3.87315 54.3779 5.54162 54.6324 7.06005 54.1275L9.72671 53.2209C10.4892 53.9844 11.5278 54.4075 12.6067 54.3942H16.6867C18.573 54.5013 20.1978 53.0782 20.34 51.1942V44.0209C20.4826 42.0338 22.1908 40.5273 24.18 40.6342C26.1693 40.5273 27.8775 42.0338 28.02 44.0209V50.9809C28.1623 52.8648 29.7871 54.288 31.6734 54.1809H35.7267C36.8057 54.1942 37.8443 53.7711 38.6067 53.0075L41.2734 53.9142C42.8074 54.4437 44.503 54.1936 45.8189 53.2439C47.1347 52.2941 47.9061 50.7635 47.8867 49.1409V38.4742C47.8237 36.8373 46.7496 35.4122 45.1934 34.9009ZM26.1801 32.8475C26.1801 33.9521 25.2846 34.8475 24.1801 34.8475C23.0755 34.8475 22.1801 33.9521 22.1801 32.8475V28.1809C22.1801 27.0763 23.0755 26.1809 24.1801 26.1809C25.2846 26.1809 26.1801 27.0763 26.1801 28.1809V32.8475ZM20.1 19.5142C20.1 21.7675 21.9267 23.5942 24.1801 23.5942C26.4273 23.5796 28.2455 21.7615 28.2601 19.5142C28.2601 17.2609 26.4334 15.4342 24.1801 15.4342C21.9267 15.4342 20.1 17.2609 20.1 19.5142Z" fill="#FCFAF2"/>
</svg>
