<svg width="250" height="251" viewBox="0 0 250 251" fill="none" xmlns="http://www.w3.org/2000/svg">
<g clip-path="url(#clip0_781_2410)" filter="url(#filter0_f_781_2410)">
<path d="M223.714 142.161C211.225 139.791 197.559 137.404 186.851 129.671C183.876 124.326 188.633 119.569 192.196 115.4C201.104 102.91 208.249 91.6142 211.812 76.7551C212.4 72.5858 210.618 66.6532 205.861 67.2409C196.347 75.5613 184.464 82.1 171.974 83.8816C168.998 84.4693 167.217 81.5122 166.629 79.1245C164.848 62.4839 160.09 46.431 153.552 31.5719C151.77 28.0087 148.207 25.0332 144.038 25.0332C139.868 25.621 141.062 30.9842 140.474 33.9413C138.105 44.6493 135.717 54.7513 129.178 63.0716C127.397 65.441 124.421 64.2655 122.052 63.0716C107.193 52.3635 93.5095 42.8677 76.2811 38.1106C73.3056 37.5229 70.9362 38.6984 68.5485 39.8922C66.1608 41.0861 67.3547 42.8677 67.3547 44.0616C73.8934 55.3574 82.2137 64.8716 83.9953 77.949C83.9953 80.9245 81.6259 82.7061 79.2382 82.7061C61.9914 85.0755 46.5447 89.2448 31.0795 96.3713C26.9102 98.7406 23.3469 103.498 25.7347 108.255C38.2243 110.036 50.1079 112.424 61.4037 119.551C63.7731 120.744 64.9669 123.114 63.7731 125.502C57.2344 136.797 48.914 146.312 43.5692 158.195C41.1998 163.54 39.3998 168.297 37.6182 173.642C37.0305 177.205 38.206 180.768 41.1815 182.55C42.3753 183.138 44.1569 183.138 45.3508 181.962L47.1324 180.181C48.914 179.593 50.1079 178.399 51.3018 177.205C60.2098 172.448 67.9424 165.909 78.0443 166.497C79.826 166.497 81.6076 166.497 82.2137 168.866C83.9953 175.993 83.9953 182.532 85.7769 189.676C86.3647 192.046 86.9708 193.846 87.5585 196.215C90.534 204.536 92.3156 212.856 97.6605 220.588C99.4421 223.564 103.611 226.539 107.762 224.152C110.132 214.05 111.326 204.536 115.495 195.021C117.864 190.852 120.252 184.313 125.597 186.701C128.572 187.895 131.548 190.264 134.505 192.652C146.389 201.56 159.466 207.511 173.149 212.268C175.519 212.856 177.907 212.268 179.688 211.074C180.882 209.88 183.858 208.099 182.664 206.317C174.931 195.609 167.805 184.313 165.417 171.842C166.611 167.085 171.956 166.497 176.125 166.497C191.572 164.715 205.843 159.958 220.114 152.832C223.09 151.05 226.653 145.705 223.678 142.124L223.714 142.161Z" fill="#FF9D00" fill-opacity="0.3"/>
</g>
<defs>
<filter id="filter0_f_781_2410" x="-40" y="-39.9492" width="329.834" height="330" filterUnits="userSpaceOnUse" color-interpolation-filters="sRGB">
<feFlood flood-opacity="0" result="BackgroundImageFix"/>
<feBlend mode="normal" in="SourceGraphic" in2="BackgroundImageFix" result="shape"/>
<feGaussianBlur stdDeviation="12.5" result="effect1_foregroundBlur_781_2410"/>
</filter>
<clipPath id="clip0_781_2410">
<rect width="199.835" height="200" fill="white" transform="translate(25 25.0508)"/>
</clipPath>
</defs>
</svg>
