<svg width="114" height="110" viewBox="0 0 114 110" fill="none" xmlns="http://www.w3.org/2000/svg">
<path d="M31.0782 12.4242L40.7614 25.7492L50.4505 12.4242L60.1395 25.7492L69.8276 12.4242L79.5177 25.7474L89.2128 12.4224L98.9029 25.7474L108.602 12.4214L116.684 23.5268L119.916 21.1732L108.602 5.62828L98.9039 18.9515L89.2128 5.6265L79.5187 18.9515L69.8276 5.62549L60.1395 18.9505L50.4505 5.62549L40.7634 18.9505L31.0802 5.62549L21.3881 18.9505L13.3167 7.84895L10.0834 10.1996L21.3881 25.7493L31.0782 12.4242Z" fill="#F0EEDD"/>
<path d="M31.0782 41.7367L40.7614 55.0617L50.4505 41.7367L60.1395 55.0617L69.8276 41.7367L79.5177 55.0609L89.2128 41.7359L98.9029 55.0609L108.602 41.7349L116.684 52.8393L119.916 50.4867L108.602 34.9418L98.9039 48.265L89.2128 34.94L79.5187 48.265L69.8276 34.939L60.1395 48.264L50.4505 34.939L40.7634 48.264L31.0802 34.939L21.3881 48.264L13.3167 37.1624L10.0834 39.513L21.3881 55.0617L31.0782 41.7367Z" fill="#F0EEDD"/>
<path d="M31.0782 71.0531L40.7614 84.3781L50.4505 71.0531L60.1395 84.3781L69.8276 71.0531L79.5177 84.3773L89.2128 71.0523L98.9029 84.3773L108.602 71.0513L116.684 82.1557L119.916 79.8031L108.602 64.2572L98.9039 77.5814L89.2128 64.2564L79.5187 77.5814L69.8276 64.2554L60.1395 77.5804L50.4505 64.2554L40.7634 77.5804L31.0802 64.2554L21.3881 77.5804L13.3167 66.4788L10.0834 68.8294L21.3881 84.3782L31.0782 71.0531Z" fill="#F0EEDD"/>
</svg>
