<svg width="32" height="31" viewBox="0 0 32 31" fill="none" xmlns="http://www.w3.org/2000/svg">
<g opacity="0.6">
<rect x="1" y="0.502441" width="30" height="30" rx="15" stroke="#31443A"/>
<path d="M8.83753 8.62352L10.8821 11.4371L12.9279 8.62352L14.9738 11.4371L17.0194 8.62352L19.0654 11.4367L21.1125 8.62315L23.1585 11.4367L25.2064 8.62293L26.913 10.9678L27.5955 10.4708L25.2064 7.18858L23.1587 10.0017L21.1125 7.1882L19.0656 10.0017L17.0194 7.18799L14.9738 10.0015L12.9279 7.18799L10.8825 10.0015L8.83795 7.18799L6.79149 10.0015L5.08723 7.65747L4.40454 8.15379L6.79149 11.4371L8.83753 8.62352Z" fill="#31443A"/>
<path d="M8.8374 14.8128L10.882 17.6263L12.9278 14.8128L14.9736 17.6263L17.0192 14.8128L19.0653 17.6261L21.1124 14.8126L23.1584 17.6261L25.2063 14.8124L26.9129 17.157L27.5954 16.6603L25.2063 13.378L23.1586 16.1912L21.1124 13.3777L19.0655 16.1912L17.0192 13.3774L14.9736 16.191L12.9278 13.3774L10.8824 16.191L8.83783 13.3774L6.79137 16.191L5.08711 13.8469L4.40442 14.3432L6.79137 17.6263L8.8374 14.8128Z" fill="#31443A"/>
<path d="M8.8374 21.0027L10.882 23.8162L12.9278 21.0027L14.9736 23.8162L17.0192 21.0027L19.0653 23.8161L21.1124 21.0025L23.1584 23.8161L25.2063 21.0023L26.9129 23.347L27.5954 22.8502L25.2063 19.5678L23.1586 22.3811L21.1124 19.5676L19.0655 22.3811L17.0192 19.5674L14.9736 22.3809L12.9278 19.5674L10.8824 22.3809L8.83783 19.5674L6.79137 22.3809L5.08711 20.0369L4.40442 20.5332L6.79137 23.8163L8.8374 21.0027Z" fill="#31443A"/>
</g>
</svg>
