<svg width="23" height="15" viewBox="0 0 23 15" fill="none" xmlns="http://www.w3.org/2000/svg">
<path d="M12.4756 14.5942C5.00996 14.5942 0.751648 9.37453 0.574219 0.688965H4.31389C4.43672 7.06395 7.1937 9.76427 9.37745 10.321V0.688965H12.8987V6.18704C15.0552 5.95041 17.3208 3.44496 18.0851 0.688965H21.6064C21.3184 2.1183 20.7443 3.47166 19.92 4.66438C19.0957 5.8571 18.039 6.86353 16.8158 7.62072C18.1811 8.31258 19.387 9.29185 20.354 10.4939C21.3209 11.696 22.0269 13.0935 22.4253 14.5942H18.5492C18.1915 13.2907 17.4645 12.1239 16.4594 11.2399C15.4542 10.3559 14.2156 9.7942 12.8987 9.62508V14.5942H12.4756Z" fill="#31443A"/>
</svg>
