<svg width="88" height="82" viewBox="0 0 88 82" fill="none" xmlns="http://www.w3.org/2000/svg">
<g clip-path="url(#clip0_359_1923)">
<path d="M77.2546 15.1213C71.8404 22.2075 66.4263 29.2938 61.0122 36.38C61.1924 36.6059 61.3802 36.8243 61.5604 37.0502C65.6604 35.755 69.7529 34.4597 73.8529 33.1645C74.0782 33.6163 74.2959 34.0681 74.5212 34.52C70.8943 37.1858 67.2598 39.8441 63.6329 42.5099C63.6705 42.8186 63.708 43.1198 63.7531 43.4286C71.8329 44.385 79.9203 45.3414 88.0002 46.2977C88.0002 46.7797 88.0002 47.2541 88.0002 47.7361C79.3947 49.0916 70.7892 50.4471 61.3952 51.923C64.9395 55.3042 67.9432 58.1583 70.9393 61.0199L70.3086 62.1194C66.201 60.5907 62.101 59.0695 57.9935 57.5408C57.7833 57.7592 57.5805 57.9776 57.3703 58.196C61.9884 65.8922 66.599 73.5959 71.2172 81.2921C70.9769 81.5331 70.7441 81.7666 70.5038 82.0075C69.6928 81.5105 68.7767 81.1265 68.0783 80.4939C61.1173 74.1833 54.2089 67.82 47.2479 61.5094C44.3719 58.9038 43.4332 58.9641 40.5422 61.6073C33.8065 67.7598 27.0933 73.9273 20.3425 80.0571C19.509 80.8102 18.5328 81.4051 17.1737 81.744C20.9508 73.4679 26.1772 66.0654 30.4499 58.1433C30.2997 57.9324 30.142 57.7216 29.9918 57.5107C25.8618 59.0394 21.7317 60.5756 17.5942 62.1043C17.3614 61.7504 17.1286 61.3965 16.8958 61.0425C19.8845 58.2035 22.8731 55.3645 26.5076 51.9155C17.1662 50.4546 8.58317 49.1066 -0.00732422 47.7662C-0.00732422 47.352 -0.00732422 46.9378 -0.00732422 46.5312C7.86229 44.6485 16.1074 44.9874 24.3149 42.6153C20.688 39.9269 17.061 37.231 13.4341 34.5426C13.5843 34.2489 13.742 33.9552 13.8922 33.654C18.2325 33.6916 22.0621 36.2068 27.1609 37.0728C21.8293 29.0076 15.6343 22.4862 10.7533 15.0611C11.0687 14.7448 11.3916 14.4285 11.707 14.1122C18.5704 19.3083 25.4413 24.5119 32.3046 29.708C32.56 29.5875 32.8153 29.467 33.0781 29.354C32.2821 24.3989 31.4786 19.4514 30.6827 14.4963C31.0882 14.3381 31.5012 14.18 31.9067 14.0219C34.1294 17.9904 36.3521 21.959 38.5748 25.9276C38.8752 25.8599 39.183 25.7846 39.4834 25.7168L43.238 0C43.7111 0.00753054 44.1842 0.0225916 44.6572 0.0301221C45.8962 8.6074 47.1428 17.1922 48.3818 25.7695C48.6972 25.8222 49.0126 25.8674 49.3279 25.9201C51.5281 21.9515 53.7358 17.9829 55.936 14.0143C56.349 14.1499 56.7695 14.2854 57.1825 14.421C56.3866 19.3761 55.5831 24.3387 54.7871 29.2938C54.9974 29.4519 55.2076 29.6025 55.4179 29.7607C62.3488 24.542 69.2873 19.3234 76.2183 14.1047C76.5562 14.4436 76.9016 14.7824 77.2395 15.1213H77.2546ZM44.0565 54.988C50.2966 54.9654 55.4104 49.935 55.4404 43.7901C55.4704 37.5473 50.229 32.2683 43.9814 32.2458C37.7413 32.2232 32.5149 37.4494 32.5074 43.7223C32.4999 50.0555 37.5761 55.003 44.0565 54.988Z" fill="#6A5847"/>
</g>
<defs>
<clipPath id="clip0_359_1923">
<rect width="88" height="82" fill="white"/>
</clipPath>
</defs>
</svg>
