<svg width="23" height="22" viewBox="0 0 23 22" fill="none" xmlns="http://www.w3.org/2000/svg">
<path fill-rule="evenodd" clip-rule="evenodd" d="M8.7595 2.34647C9.09404 1.26437 10.101 0.531612 11.2335 0.54611C12.3725 0.534668 13.3815 1.27839 13.7076 2.3697L14.4742 4.69274C14.8184 5.76787 15.8193 6.49623 16.9482 6.49309H19.3642C20.5196 6.44931 21.5653 7.17333 21.931 8.27027C22.2966 9.36721 21.8945 10.5739 20.9438 11.2321L18.9576 12.684C18.0422 13.3416 17.657 14.5157 18.0052 15.5878L18.7718 17.9108C19.0352 18.715 18.893 19.597 18.39 20.2775C17.8871 20.9581 17.0858 21.353 16.2397 21.3373C15.691 21.3332 15.158 21.1542 14.7181 20.8263L12.8132 19.3744C11.8997 18.708 10.6603 18.708 9.74679 19.3744L7.74897 20.8263C7.30379 21.1845 6.75223 21.3847 6.18092 21.3954C5.32869 21.4025 4.52654 20.9936 4.03161 20.2997C3.53668 19.6059 3.41115 18.7143 3.69527 17.9108L4.46187 15.5878C4.83121 14.519 4.46446 13.3341 3.55589 12.6608L1.56969 11.2089C0.649028 10.5484 0.261706 9.36796 0.612048 8.29039C0.962389 7.21282 1.96983 6.4859 3.10289 6.49309H5.51885C6.65404 6.49305 7.65692 5.75383 7.99289 4.66951L8.7595 2.34647ZM11.8491 2.95046C11.7777 2.67231 11.5203 2.48292 11.2335 2.49746C10.9325 2.48716 10.6699 2.70022 10.6179 2.99692L9.85133 5.31996C9.24208 7.19734 7.49262 8.46839 5.51885 8.46768H3.05643C2.78273 8.47556 2.54327 8.654 2.45746 8.91402C2.37166 9.17405 2.45788 9.45996 2.67313 9.6292L4.65933 11.0811C6.26139 12.2399 6.93251 14.3001 6.3203 16.1802L5.5537 18.5032C5.47841 18.694 5.50931 18.9103 5.63501 19.0724C5.76536 19.26 5.97588 19.376 6.20415 19.386C6.34356 19.3818 6.47793 19.3329 6.58745 19.2466L8.55042 17.7947C10.1503 16.6323 12.3167 16.6323 13.9166 17.7947L15.8564 19.1769C15.9659 19.2633 16.1003 19.3121 16.2397 19.3163C16.4576 19.3021 16.6578 19.1914 16.7856 19.0143C16.9113 18.8522 16.9422 18.6359 16.8669 18.4451L16.1003 16.1221C15.4881 14.2421 16.1592 12.1818 17.7613 11.023L19.7475 9.58274C19.9627 9.4135 20.049 9.12759 19.9631 8.86756C19.8773 8.60754 19.6379 8.4291 19.3642 8.42122H16.9482C14.9745 8.42193 13.225 7.15088 12.6157 5.2735L11.8491 2.95046Z" fill="#31443A"/>
</svg>
