<svg width="22" height="22" viewBox="0 0 22 22" fill="none" xmlns="http://www.w3.org/2000/svg">
<path fill-rule="evenodd" clip-rule="evenodd" d="M3.09782 0.60791H6.68692C7.38206 0.607903 8.04856 0.884839 8.53901 1.37747C9.02945 1.87009 9.30343 2.53781 9.30034 3.23295V6.81043C9.30034 8.25378 8.13027 9.42385 6.68692 9.42385H3.09782C1.65447 9.42385 0.484401 8.25378 0.484401 6.81043V3.23295C0.481311 2.53781 0.755289 1.87009 1.24574 1.37747C1.73618 0.884839 2.40268 0.607903 3.09782 0.60791ZM6.68692 7.66995C7.16542 7.6637 7.5518 7.27732 7.55806 6.79881V3.23295C7.55806 2.75183 7.16804 2.36181 6.68692 2.36181H3.09782C2.6167 2.36181 2.22668 2.75183 2.22668 3.23295V6.79881C2.23294 7.27732 2.61932 7.6637 3.09782 7.66995H6.68692Z" fill="#31443A"/>
<path fill-rule="evenodd" clip-rule="evenodd" d="M15.1893 0.60791H18.7784C19.4735 0.607903 20.14 0.884839 20.6305 1.37747C21.1209 1.87009 21.3949 2.53781 21.3918 3.23295V6.81043C21.3918 8.25378 20.2217 9.42385 18.7784 9.42385H15.1893C13.7459 9.42385 12.5759 8.25378 12.5759 6.81043V3.22133C12.5759 1.77798 13.7459 0.60791 15.1893 0.60791ZM18.7784 7.66995C19.2569 7.6637 19.6433 7.27732 19.6495 6.79881V3.23295C19.6495 2.75183 19.2595 2.36181 18.7784 2.36181H15.1893C14.7082 2.36181 14.3181 2.75183 14.3181 3.23295V6.79881C14.3244 7.27732 14.7108 7.6637 15.1893 7.66995H18.7784Z" fill="#31443A"/>
<path fill-rule="evenodd" clip-rule="evenodd" d="M3.09782 12.6993H6.68692C8.13027 12.6993 9.30034 13.8694 9.30034 15.3128V18.9019C9.30034 20.3452 8.13027 21.5153 6.68692 21.5153H3.09782C2.40268 21.5153 1.73618 21.2383 1.24574 20.7457C0.755289 20.2531 0.481311 19.5854 0.484401 18.8902V15.3128C0.484401 13.8694 1.65447 12.6993 3.09782 12.6993ZM6.68692 19.7614C7.16804 19.7614 7.55806 19.3714 7.55806 18.8902V15.3128C7.5518 14.8343 7.16542 14.4479 6.68692 14.4416H3.09782C2.61932 14.4479 2.23294 14.8343 2.22668 15.3128V18.8902C2.22668 19.3714 2.6167 19.7614 3.09782 19.7614H6.68692Z" fill="#31443A"/>
<path fill-rule="evenodd" clip-rule="evenodd" d="M15.1892 12.6993H18.7783C20.2217 12.6993 21.3918 13.8694 21.3918 15.3128V18.8902C21.3949 19.5854 21.1209 20.2531 20.6304 20.7457C20.14 21.2383 19.4735 21.5153 18.7783 21.5153H15.1892C14.4941 21.5153 13.8276 21.2383 13.3372 20.7457C12.8467 20.2531 12.5727 19.5854 12.5758 18.8902V15.3128C12.5758 13.8694 13.7459 12.6993 15.1892 12.6993ZM18.7783 19.7614C19.2595 19.7614 19.6495 19.3714 19.6495 18.8902V15.3128C19.6432 14.8343 19.2568 14.4479 18.7783 14.4416H15.1892C14.7107 14.4479 14.3244 14.8343 14.3181 15.3128V18.8902C14.3181 19.3714 14.7081 19.7614 15.1892 19.7614H18.7783Z" fill="#31443A"/>
</svg>
