<svg width="60" height="61" viewBox="0 0 60 61" fill="none" xmlns="http://www.w3.org/2000/svg">
<mask id="path-1-inside-1_183_10024" fill="white">
<path d="M26.4467 0.6287C17.1011 1.6022 8.11249 7.67035 3.60195 16.01C1.1033 20.6503 0 25.0311 0 30.4178C0 38.6601 2.82315 45.4746 8.76149 51.4778C14.3429 57.1566 21.8713 60.3042 29.854 60.3042C37.642 60.3042 45.0406 57.2864 50.5895 51.8672C56.6901 45.9289 59.708 38.8223 59.708 30.4178C59.708 22.2404 57.0471 15.653 51.3034 9.61734C46.5008 4.5227 39.9784 1.3426 32.7745 0.6287C30.9573 0.434002 29.3672 0.304203 29.2374 0.304203C29.1401 0.336651 27.8745 0.46645 26.4467 0.6287ZM37.1552 1.89425C40.2704 2.73795 43.7101 4.29555 46.3061 6.04785C48.7074 7.67035 51.9849 10.6233 51.8551 11.0451C51.7902 11.2398 48.5452 11.3696 43.7101 11.3372C38.6479 11.3372 35.695 11.4345 35.695 11.6292C35.695 11.8239 38.8751 11.9537 44.2942 11.9537H52.861L54.1915 13.9007C54.9378 15.004 55.8789 16.6265 56.3007 17.5676L57.112 19.255L55.3597 19.4497C54.4186 19.547 53.4776 19.7417 53.3153 19.8391C53.1531 19.9689 52.569 19.6119 52.0822 19.0927C51.2385 18.2166 50.265 17.8272 48.3829 17.6C47.6041 17.5027 45.6247 18.3139 44.3916 19.1576C43.9048 19.5146 43.6777 19.3848 42.7691 18.4762C39.5241 15.1014 33.6506 15.2312 29.9513 18.7033C29.3672 19.255 28.4262 19.7742 27.8421 19.904C25.96 20.3258 24.4673 21.2669 21.1898 24.1549C17.3283 27.5622 15.8031 28.341 13.5316 28.0489C12.6555 27.9191 11.3575 27.5297 10.676 27.1728C8.59924 26.1344 7.78799 23.6357 9.08599 22.3377C10.2217 21.202 12.0065 21.6563 12.0065 23.0516C12.0065 23.3761 12.1687 23.6357 12.331 23.6357C12.8502 23.6357 12.7204 22.143 12.1363 21.6563C11.325 20.9748 9.50784 21.1371 8.66414 21.9483C8.08004 22.5649 7.95024 23.0192 7.95024 24.8688C7.98269 29.7688 10.9356 32.3323 17.0038 32.7542C20.7355 33.0138 21.1898 33.1436 22.6501 34.4091C24.4997 35.9992 26.2196 36.6806 28.8805 36.8429C31.5414 37.0376 33.2288 36.6806 34.8188 35.5773C35.6301 34.9932 35.7274 34.9932 36.2142 35.48C36.8956 36.1614 38.2261 36.8104 39.4916 37.1025C40.8221 37.3621 43.8075 36.5508 44.5863 35.6747C45.1379 35.0581 45.1704 35.0581 46.6631 35.7396C49.3889 36.9402 55.0027 36.8429 58.1828 35.48C58.9616 35.1555 58.8967 35.8694 57.8583 39.1793C57.3716 40.7369 57.0146 42.0998 57.0795 42.262C57.112 42.4243 56.9497 42.3918 56.7226 42.1971C56.1385 41.7428 42.834 41.6455 42.834 42.1322C42.834 42.3269 45.1704 42.4567 49.6485 42.4567C53.4127 42.4567 56.463 42.5541 56.463 42.6839C56.463 43.268 54.2564 46.8375 52.7637 48.7196C51.8875 49.8229 50.2975 51.5103 49.2266 52.4189L47.2796 54.1387H36.1168C28.7507 54.1387 25.0189 54.2361 25.1487 54.4632C25.2785 54.6579 29.1076 54.7877 35.5652 54.7877C43.0936 54.7877 45.722 54.8851 45.5598 55.1447C45.2028 55.7288 39.6539 58.2599 37.3175 58.8764C35.695 59.3307 34.0076 59.4929 30.0162 59.4929C24.1752 59.4929 21.9362 59.0711 18.0422 57.2539L15.7707 56.2155L17.5554 55.3394C19.6647 54.301 20.1514 53.8467 23.5262 50.1149C26.2845 47.0322 27.8421 46.0587 29.9513 46.0262C31.6712 46.0262 32.9367 47.2593 32.6447 48.7196C32.2553 50.699 29.9513 51.3156 29.0752 49.6606C28.6209 48.8494 28.5884 48.8494 28.556 49.4984C28.556 50.3096 29.6593 51.2182 30.6977 51.2182C31.0546 51.2182 31.7685 50.8613 32.2553 50.407C33.8129 48.9467 33.1639 45.6368 31.0222 44.209C30.4705 43.8845 29.0427 43.5925 26.9659 43.4302C24.3699 43.2355 23.4613 43.0084 22.3256 42.3594C17.166 39.3091 15.2839 38.725 12.4283 39.3415C11.5846 39.5362 11.325 39.4713 11.033 38.8872C10.5138 37.9462 8.79394 37.2647 6.84694 37.2647C5.5814 37.2647 4.9324 37.4919 3.60195 38.368C2.69335 38.9846 1.8821 39.374 1.8172 39.2766C1.46025 38.6601 0.649 33.8899 0.876149 33.6628C1.0384 33.5005 2.82315 33.3383 4.8675 33.2734L8.59924 33.176L4.64035 33.1111L0.681449 33.0462L0.48675 31.9754C0.16225 30.2231 0.908599 24.5119 1.8821 21.4616L2.7907 18.606L11.1952 18.4437L19.6322 18.249L11.3899 18.1841C2.0768 18.1192 2.75825 18.4113 4.64035 15.2636C6.00325 12.9597 8.95619 9.48755 10.8058 7.96239L12.2661 6.76175L24.2401 6.69685L36.1817 6.59949L24.8891 6.5346C16.0952 6.43724 13.5965 6.3399 13.6939 6.0154C14.0833 4.81475 21.5792 1.82935 25.7328 1.24525C28.7507 0.823402 34.1698 1.11545 37.1552 1.89425ZM40.0757 17.2755C40.9843 17.6649 42.185 18.5735 42.7691 19.255L43.8399 20.4556L44.5538 19.8066C46.5333 17.957 49.7783 17.6974 51.5306 19.2874L52.4067 20.0662L51.5306 20.7152C49.4213 22.3377 48.7399 25.096 49.973 27.1079C51.1412 29.0549 54.7756 29.3794 56.1385 27.6271C57.3067 26.1344 56.7226 23.9602 55.1325 23.9602C54.2564 23.9602 54.3537 24.5443 55.2623 24.6741C55.814 24.739 56.0087 24.9986 56.0736 25.9721C56.2034 27.5946 55.1325 28.341 53.0233 28.0814C51.0114 27.8542 49.8107 26.686 49.8432 24.9986C49.9405 22.0457 51.9849 20.2934 55.457 20.2609L57.5663 20.2285L58.1504 22.3377C58.9616 25.3231 59.4484 29.8986 59.1888 32.4621C58.9941 34.5714 58.9616 34.6363 57.7934 35.0906C52.8935 37.0376 47.2147 36.3237 44.2293 33.3707C41.7631 30.937 41.179 27.5297 42.9962 26.0046C44.0022 25.1284 44.8459 25.0635 45.5598 25.7774C46.1439 26.3291 46.2737 27.5297 45.7545 27.5297C45.5922 27.5297 45.43 27.6595 45.43 27.8542C45.43 28.4708 46.1114 28.1787 46.4684 27.3675C47.02 26.1019 46.079 24.9337 44.5214 24.9337C42.2823 24.9337 40.7896 27.4973 41.536 30.0933C41.6982 30.7098 42.5095 32.0727 43.2883 33.0787L44.7485 34.9608L43.6128 35.6422C41.4062 37.0051 38.6804 36.8104 36.6685 35.123L35.7274 34.3118L34.8188 34.9608C34.3321 35.3177 33.1314 35.8369 32.1904 36.1614C30.6977 36.6482 30.146 36.6482 28.2639 36.3237C26.1547 35.9343 25.3759 35.5773 22.2607 33.4681C20.9951 32.6244 20.3137 32.4297 18.2369 32.235C13.8237 31.9105 13.0773 31.7482 11.5522 30.7747C9.99459 29.7688 8.76149 28.1463 8.76149 27.0754C8.76149 26.4913 8.79394 26.4913 9.34559 26.9781C10.384 27.9191 12.2661 28.5032 14.3753 28.5032C16.2574 28.5032 16.6144 28.4059 18.3667 27.1728C19.4051 26.4264 20.3461 25.7125 20.4435 25.6152C20.9627 24.9013 25.1812 21.6238 26.252 21.0397C27.7772 20.2609 30.3407 20.1636 31.9308 20.845C34.7539 22.0132 35.5652 25.745 33.5533 28.1463C32.093 29.8986 29.2374 30.1257 27.3878 28.6655C25.5381 27.2052 26.4792 23.9602 28.7507 23.9602C29.1401 23.9602 29.7242 24.2847 29.9838 24.6741C30.5354 25.4529 30.9573 25.3556 30.6652 24.5119C30.5354 24.2523 30.0487 23.8629 29.5619 23.6357C27.8745 22.9543 25.96 24.3172 25.8951 26.3291C25.8302 28.5032 27.7447 30.2231 30.2109 30.1906C33.6831 30.1257 35.9546 27.043 35.046 23.6033C34.5592 21.851 33.1963 20.5854 31.2818 20.0987C29.7891 19.7093 29.7891 19.7093 30.3732 19.0603C31.0222 18.3464 33.0341 17.2106 34.397 16.7888C36.0519 16.302 38.4208 16.4967 40.0757 17.2755ZM8.85884 38.0435C9.44294 38.3031 10.1893 38.725 10.5462 39.017C11.1952 39.5362 11.1952 39.5362 10.3191 40.1852C8.27474 41.7428 7.39859 45.0203 8.53434 46.7726C9.76744 48.6547 12.9151 49.1739 14.57 47.7785C16.1925 46.4156 15.8031 43.7223 14.0184 43.7872L13.1422 43.8196L14.0184 44.1117C14.9919 44.4686 15.4462 45.7342 14.927 46.6752C13.7912 48.7845 9.73499 48.3626 8.76149 46.0262C8.11249 44.4362 8.53434 42.8137 10.027 41.4183C12.6555 38.9521 15.5435 39.0495 20.1514 41.7428C23.5587 43.7547 24.6295 44.0792 27.258 44.0143C28.7182 43.9819 29.6917 44.1441 30.4381 44.5011C31.7685 45.215 31.801 45.8315 30.503 45.5395C29.1401 45.2474 26.6739 46.1236 25.311 47.4216C24.6944 48.0381 23.2991 49.5308 22.1958 50.7639C19.9892 53.2626 18.2044 54.6255 16.225 55.3069L14.8945 55.7612L12.8826 54.3334C8.85884 51.4778 5.28935 47.162 3.08275 42.4892C1.947 40.0879 2.0768 39.7634 4.543 38.4654C6.45755 37.4919 7.33369 37.3945 8.85884 38.0435Z"/>
</mask>
<path d="M26.4467 0.6287C17.1011 1.6022 8.11249 7.67035 3.60195 16.01C1.1033 20.6503 0 25.0311 0 30.4178C0 38.6601 2.82315 45.4746 8.76149 51.4778C14.3429 57.1566 21.8713 60.3042 29.854 60.3042C37.642 60.3042 45.0406 57.2864 50.5895 51.8672C56.6901 45.9289 59.708 38.8223 59.708 30.4178C59.708 22.2404 57.0471 15.653 51.3034 9.61734C46.5008 4.5227 39.9784 1.3426 32.7745 0.6287C30.9573 0.434002 29.3672 0.304203 29.2374 0.304203C29.1401 0.336651 27.8745 0.46645 26.4467 0.6287ZM37.1552 1.89425C40.2704 2.73795 43.7101 4.29555 46.3061 6.04785C48.7074 7.67035 51.9849 10.6233 51.8551 11.0451C51.7902 11.2398 48.5452 11.3696 43.7101 11.3372C38.6479 11.3372 35.695 11.4345 35.695 11.6292C35.695 11.8239 38.8751 11.9537 44.2942 11.9537H52.861L54.1915 13.9007C54.9378 15.004 55.8789 16.6265 56.3007 17.5676L57.112 19.255L55.3597 19.4497C54.4186 19.547 53.4776 19.7417 53.3153 19.8391C53.1531 19.9689 52.569 19.6119 52.0822 19.0927C51.2385 18.2166 50.265 17.8272 48.3829 17.6C47.6041 17.5027 45.6247 18.3139 44.3916 19.1576C43.9048 19.5146 43.6777 19.3848 42.7691 18.4762C39.5241 15.1014 33.6506 15.2312 29.9513 18.7033C29.3672 19.255 28.4262 19.7742 27.8421 19.904C25.96 20.3258 24.4673 21.2669 21.1898 24.1549C17.3283 27.5622 15.8031 28.341 13.5316 28.0489C12.6555 27.9191 11.3575 27.5297 10.676 27.1728C8.59924 26.1344 7.78799 23.6357 9.08599 22.3377C10.2217 21.202 12.0065 21.6563 12.0065 23.0516C12.0065 23.3761 12.1687 23.6357 12.331 23.6357C12.8502 23.6357 12.7204 22.143 12.1363 21.6563C11.325 20.9748 9.50784 21.1371 8.66414 21.9483C8.08004 22.5649 7.95024 23.0192 7.95024 24.8688C7.98269 29.7688 10.9356 32.3323 17.0038 32.7542C20.7355 33.0138 21.1898 33.1436 22.6501 34.4091C24.4997 35.9992 26.2196 36.6806 28.8805 36.8429C31.5414 37.0376 33.2288 36.6806 34.8188 35.5773C35.6301 34.9932 35.7274 34.9932 36.2142 35.48C36.8956 36.1614 38.2261 36.8104 39.4916 37.1025C40.8221 37.3621 43.8075 36.5508 44.5863 35.6747C45.1379 35.0581 45.1704 35.0581 46.6631 35.7396C49.3889 36.9402 55.0027 36.8429 58.1828 35.48C58.9616 35.1555 58.8967 35.8694 57.8583 39.1793C57.3716 40.7369 57.0146 42.0998 57.0795 42.262C57.112 42.4243 56.9497 42.3918 56.7226 42.1971C56.1385 41.7428 42.834 41.6455 42.834 42.1322C42.834 42.3269 45.1704 42.4567 49.6485 42.4567C53.4127 42.4567 56.463 42.5541 56.463 42.6839C56.463 43.268 54.2564 46.8375 52.7637 48.7196C51.8875 49.8229 50.2975 51.5103 49.2266 52.4189L47.2796 54.1387H36.1168C28.7507 54.1387 25.0189 54.2361 25.1487 54.4632C25.2785 54.6579 29.1076 54.7877 35.5652 54.7877C43.0936 54.7877 45.722 54.8851 45.5598 55.1447C45.2028 55.7288 39.6539 58.2599 37.3175 58.8764C35.695 59.3307 34.0076 59.4929 30.0162 59.4929C24.1752 59.4929 21.9362 59.0711 18.0422 57.2539L15.7707 56.2155L17.5554 55.3394C19.6647 54.301 20.1514 53.8467 23.5262 50.1149C26.2845 47.0322 27.8421 46.0587 29.9513 46.0262C31.6712 46.0262 32.9367 47.2593 32.6447 48.7196C32.2553 50.699 29.9513 51.3156 29.0752 49.6606C28.6209 48.8494 28.5884 48.8494 28.556 49.4984C28.556 50.3096 29.6593 51.2182 30.6977 51.2182C31.0546 51.2182 31.7685 50.8613 32.2553 50.407C33.8129 48.9467 33.1639 45.6368 31.0222 44.209C30.4705 43.8845 29.0427 43.5925 26.9659 43.4302C24.3699 43.2355 23.4613 43.0084 22.3256 42.3594C17.166 39.3091 15.2839 38.725 12.4283 39.3415C11.5846 39.5362 11.325 39.4713 11.033 38.8872C10.5138 37.9462 8.79394 37.2647 6.84694 37.2647C5.5814 37.2647 4.9324 37.4919 3.60195 38.368C2.69335 38.9846 1.8821 39.374 1.8172 39.2766C1.46025 38.6601 0.649 33.8899 0.876149 33.6628C1.0384 33.5005 2.82315 33.3383 4.8675 33.2734L8.59924 33.176L4.64035 33.1111L0.681449 33.0462L0.48675 31.9754C0.16225 30.2231 0.908599 24.5119 1.8821 21.4616L2.7907 18.606L11.1952 18.4437L19.6322 18.249L11.3899 18.1841C2.0768 18.1192 2.75825 18.4113 4.64035 15.2636C6.00325 12.9597 8.95619 9.48755 10.8058 7.96239L12.2661 6.76175L24.2401 6.69685L36.1817 6.59949L24.8891 6.5346C16.0952 6.43724 13.5965 6.3399 13.6939 6.0154C14.0833 4.81475 21.5792 1.82935 25.7328 1.24525C28.7507 0.823402 34.1698 1.11545 37.1552 1.89425ZM40.0757 17.2755C40.9843 17.6649 42.185 18.5735 42.7691 19.255L43.8399 20.4556L44.5538 19.8066C46.5333 17.957 49.7783 17.6974 51.5306 19.2874L52.4067 20.0662L51.5306 20.7152C49.4213 22.3377 48.7399 25.096 49.973 27.1079C51.1412 29.0549 54.7756 29.3794 56.1385 27.6271C57.3067 26.1344 56.7226 23.9602 55.1325 23.9602C54.2564 23.9602 54.3537 24.5443 55.2623 24.6741C55.814 24.739 56.0087 24.9986 56.0736 25.9721C56.2034 27.5946 55.1325 28.341 53.0233 28.0814C51.0114 27.8542 49.8107 26.686 49.8432 24.9986C49.9405 22.0457 51.9849 20.2934 55.457 20.2609L57.5663 20.2285L58.1504 22.3377C58.9616 25.3231 59.4484 29.8986 59.1888 32.4621C58.9941 34.5714 58.9616 34.6363 57.7934 35.0906C52.8935 37.0376 47.2147 36.3237 44.2293 33.3707C41.7631 30.937 41.179 27.5297 42.9962 26.0046C44.0022 25.1284 44.8459 25.0635 45.5598 25.7774C46.1439 26.3291 46.2737 27.5297 45.7545 27.5297C45.5922 27.5297 45.43 27.6595 45.43 27.8542C45.43 28.4708 46.1114 28.1787 46.4684 27.3675C47.02 26.1019 46.079 24.9337 44.5214 24.9337C42.2823 24.9337 40.7896 27.4973 41.536 30.0933C41.6982 30.7098 42.5095 32.0727 43.2883 33.0787L44.7485 34.9608L43.6128 35.6422C41.4062 37.0051 38.6804 36.8104 36.6685 35.123L35.7274 34.3118L34.8188 34.9608C34.3321 35.3177 33.1314 35.8369 32.1904 36.1614C30.6977 36.6482 30.146 36.6482 28.2639 36.3237C26.1547 35.9343 25.3759 35.5773 22.2607 33.4681C20.9951 32.6244 20.3137 32.4297 18.2369 32.235C13.8237 31.9105 13.0773 31.7482 11.5522 30.7747C9.99459 29.7688 8.76149 28.1463 8.76149 27.0754C8.76149 26.4913 8.79394 26.4913 9.34559 26.9781C10.384 27.9191 12.2661 28.5032 14.3753 28.5032C16.2574 28.5032 16.6144 28.4059 18.3667 27.1728C19.4051 26.4264 20.3461 25.7125 20.4435 25.6152C20.9627 24.9013 25.1812 21.6238 26.252 21.0397C27.7772 20.2609 30.3407 20.1636 31.9308 20.845C34.7539 22.0132 35.5652 25.745 33.5533 28.1463C32.093 29.8986 29.2374 30.1257 27.3878 28.6655C25.5381 27.2052 26.4792 23.9602 28.7507 23.9602C29.1401 23.9602 29.7242 24.2847 29.9838 24.6741C30.5354 25.4529 30.9573 25.3556 30.6652 24.5119C30.5354 24.2523 30.0487 23.8629 29.5619 23.6357C27.8745 22.9543 25.96 24.3172 25.8951 26.3291C25.8302 28.5032 27.7447 30.2231 30.2109 30.1906C33.6831 30.1257 35.9546 27.043 35.046 23.6033C34.5592 21.851 33.1963 20.5854 31.2818 20.0987C29.7891 19.7093 29.7891 19.7093 30.3732 19.0603C31.0222 18.3464 33.0341 17.2106 34.397 16.7888C36.0519 16.302 38.4208 16.4967 40.0757 17.2755ZM8.85884 38.0435C9.44294 38.3031 10.1893 38.725 10.5462 39.017C11.1952 39.5362 11.1952 39.5362 10.3191 40.1852C8.27474 41.7428 7.39859 45.0203 8.53434 46.7726C9.76744 48.6547 12.9151 49.1739 14.57 47.7785C16.1925 46.4156 15.8031 43.7223 14.0184 43.7872L13.1422 43.8196L14.0184 44.1117C14.9919 44.4686 15.4462 45.7342 14.927 46.6752C13.7912 48.7845 9.73499 48.3626 8.76149 46.0262C8.11249 44.4362 8.53434 42.8137 10.027 41.4183C12.6555 38.9521 15.5435 39.0495 20.1514 41.7428C23.5587 43.7547 24.6295 44.0792 27.258 44.0143C28.7182 43.9819 29.6917 44.1441 30.4381 44.5011C31.7685 45.215 31.801 45.8315 30.503 45.5395C29.1401 45.2474 26.6739 46.1236 25.311 47.4216C24.6944 48.0381 23.2991 49.5308 22.1958 50.7639C19.9892 53.2626 18.2044 54.6255 16.225 55.3069L14.8945 55.7612L12.8826 54.3334C8.85884 51.4778 5.28935 47.162 3.08275 42.4892C1.947 40.0879 2.0768 39.7634 4.543 38.4654C6.45755 37.4919 7.33369 37.3945 8.85884 38.0435Z" fill="#FCFAF2" stroke="#FCFAF2" stroke-width="3.5" mask="url(#path-1-inside-1_183_10024)"/>
<mask id="path-2-inside-2_183_10024" fill="white">
<path d="M13.9533 11.6296C13.6288 11.8243 15.5109 11.9541 19.5672 11.9541C23.5585 11.9541 25.6029 11.8568 25.4731 11.6296C25.2135 11.2078 14.6023 11.2078 13.9533 11.6296Z"/>
</mask>
<path d="M13.9533 11.6296C13.6288 11.8243 15.5109 11.9541 19.5672 11.9541C23.5585 11.9541 25.6029 11.8568 25.4731 11.6296C25.2135 11.2078 14.6023 11.2078 13.9533 11.6296Z" fill="#FCFAF2"/>
<path d="M13.9533 11.6296L14.9071 13.0969L14.8807 13.114L14.8537 13.1302L13.9533 11.6296ZM25.4731 11.6296L26.9635 10.7124L26.9784 10.7367L26.9925 10.7614L25.4731 11.6296ZM14.8537 13.1302C14.8962 13.1047 15.4282 12.8077 15.6113 12.1087C15.8674 11.1308 15.2374 10.4966 15.0139 10.3216C14.7904 10.1466 14.5863 10.0815 14.5591 10.0725C14.4986 10.0522 14.4633 10.0458 14.4724 10.0476C14.5352 10.0604 14.7588 10.0899 15.2234 10.1181C16.106 10.1716 17.5479 10.2041 19.5672 10.2041V13.7041C17.5302 13.7041 16.0029 13.6717 15.0116 13.6117C14.5392 13.583 14.0996 13.5436 13.774 13.4772C13.686 13.4593 13.5708 13.4325 13.4475 13.3912C13.3576 13.3611 13.108 13.2745 12.8562 13.0773C12.6044 12.8802 11.9632 12.2232 12.2255 11.222C12.4146 10.4997 12.97 10.1788 13.053 10.129L14.8537 13.1302ZM19.5672 10.2041C21.5585 10.2041 23.0283 10.1796 23.9728 10.1295C24.4594 10.1037 24.7395 10.0741 24.866 10.0521C24.9621 10.0354 24.8461 10.044 24.6683 10.1286C24.6042 10.1591 24.2737 10.3143 24.0171 10.6981C23.868 10.9212 23.7395 11.2302 23.7295 11.6037C23.7196 11.9739 23.8295 12.2805 23.9537 12.4978L26.9925 10.7614C27.1248 10.9929 27.2385 11.3134 27.2283 11.6973C27.2179 12.0845 27.0848 12.4069 26.9269 12.6432C26.6526 13.0535 26.2877 13.2341 26.1723 13.2889C25.892 13.4224 25.6064 13.4758 25.4666 13.5002C25.1216 13.5603 24.6655 13.5977 24.1583 13.6246C23.1153 13.6799 21.5672 13.7041 19.5672 13.7041V10.2041ZM23.9827 12.5468C24.2698 13.0133 24.6826 13.179 24.7062 13.1895C24.81 13.2358 24.8824 13.2529 24.883 13.253C24.8924 13.2554 24.846 13.2443 24.713 13.2277C24.4607 13.1961 24.0727 13.1657 23.5664 13.1401C22.5647 13.0894 21.2254 13.0632 19.8592 13.0632C18.4938 13.0632 17.1283 13.0893 16.0751 13.1403C15.5451 13.1659 15.1183 13.1967 14.819 13.2303C14.6667 13.2474 14.5768 13.262 14.5356 13.2703C14.4041 13.2971 14.6349 13.2738 14.9071 13.0969L12.9996 10.1623C13.353 9.93265 13.7426 9.85996 13.838 9.84056C14.0237 9.80279 14.2286 9.77455 14.429 9.75208C14.8352 9.70654 15.3459 9.67145 15.906 9.64436C17.0331 9.58984 18.4583 9.56321 19.8592 9.56321C21.2594 9.56321 22.6622 9.58981 23.7434 9.64455C24.2785 9.67164 24.7671 9.70716 25.1473 9.75471C25.3306 9.77763 25.5395 9.80936 25.7331 9.85785C25.8259 9.88108 25.9727 9.92204 26.1319 9.99304C26.2109 10.0283 26.6602 10.2195 26.9635 10.7124L23.9827 12.5468Z" fill="#FCFAF2" mask="url(#path-2-inside-2_183_10024)"/>
<mask id="path-4-inside-3_183_10024" fill="white">
<path d="M38.7776 47.6496C38.6478 47.8443 39.816 47.9741 41.9901 47.9741C44.0669 47.9741 45.4298 47.8443 45.4298 47.6496C45.4298 47.4549 44.1318 47.3251 42.2173 47.3251C40.4001 47.3251 38.8749 47.4549 38.7776 47.6496Z"/>
</mask>
<path d="M38.7776 47.6496C38.6478 47.8443 39.816 47.9741 41.9901 47.9741C44.0669 47.9741 45.4298 47.8443 45.4298 47.6496C45.4298 47.4549 44.1318 47.3251 42.2173 47.3251C40.4001 47.3251 38.8749 47.4549 38.7776 47.6496Z" fill="#FCFAF2"/>
<path d="M38.7776 47.6496L40.3428 48.4322L40.2941 48.5297L40.2337 48.6203L38.7776 47.6496ZM40.2337 48.6203C40.4131 48.3512 40.5821 47.9185 40.4942 47.3954C40.4119 46.9058 40.1463 46.5923 39.9832 46.4401C39.8212 46.2888 39.6699 46.2096 39.603 46.1772C39.5263 46.14 39.4685 46.1208 39.446 46.1137C39.3928 46.0969 39.4464 46.1179 39.7004 46.1442C40.1584 46.1917 40.9236 46.2241 41.9901 46.2241V49.7241C40.8825 49.7241 39.9765 49.6916 39.3394 49.6255C39.0458 49.5951 38.6958 49.5472 38.3921 49.4512C38.2861 49.4178 37.9211 49.303 37.5951 48.9988C37.4084 48.8245 37.1288 48.4882 37.0426 47.9753C36.9508 47.4289 37.1259 46.9723 37.3215 46.6789L40.2337 48.6203ZM41.9901 46.2241C43.002 46.2241 43.8009 46.1921 44.324 46.1427C44.5976 46.1168 44.7313 46.0918 44.7651 46.0835C44.7964 46.0757 44.6908 46.0964 44.5395 46.1776C44.4645 46.2179 44.2889 46.3196 44.1137 46.5142C43.9255 46.7231 43.6798 47.1104 43.6798 47.6496H47.1798C47.1798 48.2132 46.9235 48.6243 46.7143 48.8565C46.5181 49.0744 46.3113 49.1989 46.1949 49.2614C45.961 49.3869 45.7327 49.4496 45.6038 49.4815C45.3171 49.5522 44.9803 49.5962 44.6536 49.6271C43.976 49.6912 43.055 49.7241 41.9901 49.7241V46.2241ZM43.6798 47.6496C43.6798 48.1609 43.9019 48.5377 44.0856 48.7523C44.2561 48.9513 44.4298 49.0584 44.509 49.1031C44.5989 49.154 44.6696 49.1812 44.7 49.1923C44.7342 49.2047 44.7547 49.2099 44.7554 49.2101C44.7573 49.2106 44.7494 49.2085 44.7297 49.2046C44.7104 49.2008 44.6836 49.196 44.6485 49.1905C44.5774 49.1794 44.4839 49.1674 44.3661 49.1555C43.8839 49.107 43.1454 49.0751 42.2173 49.0751V45.5751C43.2038 45.5751 44.0715 45.6082 44.7169 45.6732C45.027 45.7044 45.3554 45.7495 45.6388 45.8234C45.7665 45.8568 45.9962 45.9233 46.2317 46.0564C46.3335 46.114 47.1798 46.5854 47.1798 47.6496H43.6798ZM42.2173 49.0751C41.3426 49.0751 40.5633 49.1066 40.012 49.1571C39.7288 49.183 39.5517 49.2099 39.4663 49.2281C39.4171 49.2386 39.4556 49.2344 39.5378 49.201C39.5788 49.1843 39.6804 49.1406 39.8028 49.0566C39.9083 48.9841 40.163 48.7918 40.3428 48.4322L37.2123 46.867C37.4043 46.4831 37.6823 46.2669 37.8218 46.1712C37.9781 46.0638 38.1243 45.9974 38.2198 45.9586C38.4112 45.8808 38.5989 45.8345 38.7349 45.8054C39.0196 45.7446 39.3556 45.7025 39.693 45.6716C40.3829 45.6085 41.2747 45.5751 42.2173 45.5751V49.0751Z" fill="#FCFAF2" mask="url(#path-4-inside-3_183_10024)"/>
</svg>
