<svg width="24" height="25" viewBox="0 0 24 25" fill="none" xmlns="http://www.w3.org/2000/svg">
<path d="M18.05 8.13226C18.0527 7.93253 17.9746 7.74018 17.8333 7.59894C17.6921 7.45769 17.4997 7.37955 17.3 7.38226C16.8858 7.38226 16.55 7.71805 16.55 8.13226V16.2023L7.21999 6.86226C7.03302 6.66161 6.75144 6.57901 6.4857 6.64688C6.21997 6.71474 6.01247 6.92224 5.94461 7.18797C5.87674 7.45371 5.95934 7.73529 6.15999 7.92226L15.5 17.2623H7.42999C7.01578 17.2623 6.67999 17.5981 6.67999 18.0123C6.67999 18.4265 7.01578 18.7623 7.42999 18.7623H17.31C17.7242 18.7623 18.06 18.4265 18.06 18.0123L18.05 8.13226Z" fill="#FCFAF2"/>
</svg>
