<svg width="246" height="246" viewBox="0 0 246 246" fill="none" xmlns="http://www.w3.org/2000/svg">
<path d="M93.6203 4.1613C45.887 16.428 11.2203 53.228 1.75362 101.495C-1.17971 116.428 -0.379709 139.095 3.75362 154.695C6.68696 166.428 16.8203 188.028 21.7536 193.361C23.3536 195.095 24.5536 196.961 24.287 197.228C23.2203 198.295 42.9536 217.628 50.9536 223.495C60.687 230.561 80.1536 239.761 92.4203 242.961C106.82 246.828 140.687 246.561 154.82 242.428C181.62 234.695 205.22 218.561 221.887 196.428C243.22 168.028 250.954 127.361 241.754 92.2946C230.02 47.4946 192.82 12.2946 147.354 2.9613C131.887 -0.238701 108.554 0.294632 93.6203 4.1613ZM135.087 3.49463C141.754 4.29463 150.687 5.89463 155.087 7.09463C193.487 17.628 226.02 49.228 237.887 87.4946C240.954 97.228 244.687 119.095 243.487 120.295C243.087 120.561 237.487 115.495 231.087 108.828C224.554 102.295 218.687 96.828 217.887 96.828C217.087 96.828 213.62 99.628 210.154 103.095L203.754 109.495L182.42 88.1613L161.22 66.9613L157.354 70.5613L153.62 74.1613L132.287 52.828C120.687 41.0946 110.554 31.4946 109.754 31.4946C109.087 31.4946 89.7536 50.1613 66.8203 73.0946L25.3536 114.561L22.0203 111.095C20.287 109.095 18.287 107.495 17.6203 107.495C16.9536 107.495 13.2203 110.695 9.35362 114.428L2.15362 121.495L2.95362 110.161C3.88696 98.428 9.08696 80.6946 14.9536 69.228C32.8203 34.1613 66.1536 10.2946 105.62 4.1613C119.487 1.89463 120.82 1.89463 135.087 3.49463ZM121.087 45.4946L132.42 56.828L127.354 61.7613L122.42 66.6946L117.754 62.1613L113.087 57.628L106.42 64.5613L99.887 71.3613L93.2203 64.828C89.487 61.0946 86.4203 57.7613 86.4203 57.228C86.4203 56.028 108.02 34.1613 109.087 34.1613C109.487 34.1613 114.954 39.228 121.087 45.4946ZM92.0203 67.0946L99.7536 74.6946L106.154 68.428C109.62 64.9613 113.087 62.1613 113.887 62.1613C114.687 62.1613 116.687 63.628 118.42 65.4946C120.154 67.3613 122.02 68.828 122.687 68.828C123.22 68.828 125.887 66.6946 128.554 64.1613C131.087 61.628 133.754 59.4946 134.287 59.4946C134.687 59.4946 139.087 63.3613 143.754 68.1613C148.42 72.9613 152.954 76.828 153.887 76.828C154.687 76.828 156.42 75.628 157.754 74.1613C159.087 72.6946 160.82 71.4946 161.62 71.4946C163.487 71.4946 201.087 108.961 201.087 110.828C201.087 111.495 194.02 119.228 185.354 127.895L169.62 143.628L157.62 142.161L145.754 140.561L132.42 127.361C125.087 120.161 118.687 114.161 118.154 114.161C117.62 114.161 115.22 115.895 112.82 118.161C110.42 120.295 108.02 122.161 107.487 122.161C107.087 122.161 99.887 115.495 91.7536 107.361L76.8203 92.428L58.287 110.961L39.7536 129.361L33.7536 123.495C30.4203 120.295 27.7536 116.961 27.7536 116.295C27.7536 114.961 82.4203 59.4946 83.7536 59.4946C84.0203 59.4946 87.7536 62.9613 92.0203 67.0946ZM93.087 112.161L107.754 126.695L113.087 121.495L118.42 116.295L129.087 127.361C135.087 133.495 139.754 138.695 139.487 138.961C139.22 139.095 131.487 138.828 122.42 138.028C113.22 137.361 92.5536 136.695 76.287 136.695C48.687 136.695 46.8203 136.561 44.687 134.161C43.487 132.695 42.4203 131.228 42.4203 130.961C42.4203 129.761 76.4203 96.828 77.3536 97.0946C78.0203 97.3613 85.087 104.028 93.087 112.161ZM230.82 112.561L243.887 125.628L242.954 134.561C242.42 139.495 241.62 143.761 241.22 144.028C240.82 144.295 229.22 145.361 215.62 146.161C195.754 147.495 188.954 147.495 181.887 146.161C177.087 145.228 173.087 144.161 173.087 143.628C173.087 142.695 216.154 99.4946 217.087 99.4946C217.487 99.4946 223.62 105.361 230.82 112.561ZM30.8203 123.228C38.0203 130.428 43.487 136.695 42.9536 137.228C42.4203 137.761 38.687 138.161 34.5536 138.295C30.4203 138.295 22.0203 139.095 15.7536 140.028C9.48696 140.961 4.02029 141.495 3.48696 141.228C2.82029 140.961 2.42029 136.961 2.42029 132.428C2.42029 124.295 2.55362 124.161 9.35362 117.228C13.2203 113.361 16.687 110.161 17.087 110.161C17.487 110.161 23.6203 116.028 30.8203 123.228ZM133.754 141.361C158.287 144.028 181.354 147.761 180.154 148.828C179.62 149.228 170.154 151.361 159.087 153.361C133.754 157.895 107.087 164.695 89.087 170.961C73.487 176.428 75.6203 176.295 39.7536 175.095L13.7536 174.295L11.487 169.895C8.82029 164.695 2.95362 145.095 3.88696 144.295C4.42029 143.628 37.487 139.761 49.087 138.961C63.087 138.028 116.554 139.495 133.754 141.361ZM241.087 148.695C241.087 151.361 234.154 170.961 232.687 172.295C231.754 173.095 226.154 174.961 220.154 176.561C206.954 180.028 186.554 187.495 173.62 193.628L164.287 198.161L148.154 192.961C131.487 187.495 101.087 180.428 87.487 178.828C83.2203 178.295 80.1536 177.361 80.4203 176.695C81.3536 175.228 107.087 167.228 127.22 162.161C146.287 157.361 185.754 150.695 205.087 149.095C224.154 147.495 241.087 147.228 241.087 148.695ZM68.687 178.828C93.3536 181.495 117.62 186.161 137.887 192.295C146.687 194.961 155.087 197.361 156.82 197.761C161.22 198.828 160.42 200.161 153.487 204.295C136.02 214.295 110.82 232.828 104.687 239.895C102.287 242.561 102.154 242.561 92.8203 240.428C82.0203 237.761 64.4203 229.895 54.8203 223.361C44.4203 216.295 29.3536 200.961 22.287 190.295C18.687 184.828 15.7536 179.628 15.7536 178.695C15.7536 176.028 43.3536 176.161 68.687 178.828ZM230.42 177.495C230.42 182.828 212.154 206.295 200.554 215.761C175.62 236.295 143.22 246.961 114.42 244.028C103.487 242.961 103.354 243.228 117.754 231.628C132.954 219.361 144.287 211.761 163.754 201.095C183.887 190.028 230.42 173.628 230.42 177.495Z" fill="#FCFAF2"/>
<path d="M131.087 16.8281C129.887 18.8281 131.62 20.8281 134.554 20.8281C136.154 20.8281 137.087 19.8948 137.087 18.1615C137.087 15.3615 132.687 14.2948 131.087 16.8281Z" fill="#FCFAF2"/>
<path d="M69.2204 30.6949C67.3538 32.9615 68.2871 35.4949 71.0871 35.4949C74.0204 35.4949 74.9538 32.8282 72.8204 30.6949C71.0871 28.9615 70.6871 28.9615 69.2204 30.6949Z" fill="#FCFAF2"/>
<path d="M149.487 45.628C148.42 48.5614 151.887 50.5614 154.287 48.2947C155.22 47.228 155.62 45.7614 155.22 44.9614C153.887 42.828 150.42 43.228 149.487 45.628Z" fill="#FCFAF2"/>
<path d="M183.754 46.0281C183.754 48.9615 186.82 50.5615 188.82 48.5615C190.82 46.5615 189.22 43.4948 186.287 43.4948C184.687 43.4948 183.754 44.4281 183.754 46.0281Z" fill="#FCFAF2"/>
<path d="M54.5536 61.3615C53.3536 62.6948 53.4869 63.4948 55.0869 64.8281C57.6203 66.9615 60.5536 64.6948 59.3536 61.6281C58.2869 58.9615 56.5536 58.9615 54.5536 61.3615Z" fill="#FCFAF2"/>
<path d="M205.087 74.1614C205.087 76.2947 205.754 76.9614 208.154 76.5614C209.754 76.2947 211.087 75.2281 211.087 74.1614C211.087 73.0947 209.754 72.0281 208.154 71.7614C205.754 71.3614 205.087 72.0281 205.087 74.1614Z" fill="#FCFAF2"/>
<path d="M24.6871 76.0282C23.7537 78.4282 24.8204 79.4949 28.0204 79.4949C29.4871 79.4949 30.4204 78.5615 30.4204 76.8282C30.4204 73.7615 25.7537 73.0949 24.6871 76.0282Z" fill="#FCFAF2"/>
<path d="M117.087 94.8282C113.087 98.8282 110.421 102.162 111.087 102.162C111.754 102.162 115.221 99.3615 118.687 95.8948L125.087 89.6282L134.421 98.8282L143.754 108.028L148.421 103.495L153.087 98.9615L163.754 109.495C169.621 115.362 174.421 119.495 174.421 118.828C174.421 116.962 154.021 96.8282 152.287 96.8282C151.487 96.8282 149.487 98.2948 147.754 100.162C146.021 102.028 144.021 103.495 143.354 103.495C142.687 103.495 138.687 99.8948 134.421 95.4948C130.154 91.0948 126.154 87.4948 125.487 87.4948C124.821 87.4948 121.087 90.8282 117.087 94.8282Z" fill="#FCFAF2"/>
<path d="M66.0203 121.628C63.2203 124.295 61.3536 126.828 61.7536 127.228C62.1536 127.628 64.5536 125.895 67.0869 123.495L71.7536 118.961L75.4869 122.561C80.9536 127.895 82.4203 126.961 77.0869 121.495C74.5536 118.961 72.1536 116.828 71.7536 116.828C71.3536 116.828 68.8203 118.961 66.0203 121.628Z" fill="#FCFAF2"/>
<path d="M204.42 126.161C201.62 129.095 199.887 131.495 200.554 131.495C201.354 131.495 203.354 130.028 205.087 128.161C206.82 126.295 208.82 124.828 209.62 124.828C210.42 124.828 214.154 127.895 218.02 131.761C221.887 135.495 225.354 138.295 225.754 137.895C226.554 137.095 211.887 120.828 210.42 120.828C210.02 120.828 207.22 123.228 204.42 126.161Z" fill="#FCFAF2"/>
<path d="M34.6869 149.761C33.0869 150.028 32.0202 150.961 32.5535 151.628C32.9535 152.295 33.7535 152.561 34.4202 152.161C36.0202 151.228 73.0869 151.095 86.4202 152.028C95.4869 152.695 97.0869 152.561 94.4202 151.361C91.0869 149.895 41.0869 148.561 34.6869 149.761Z" fill="#FCFAF2"/>
<path d="M35.7537 160.562C35.7537 161.095 40.4203 161.362 46.1537 161.095C51.7537 160.828 60.687 161.228 65.7537 161.895C75.7537 163.228 81.3537 162.162 72.4203 160.562C65.2203 159.362 35.7537 159.228 35.7537 160.562Z" fill="#FCFAF2"/>
<path d="M177.087 161.628C156.554 166.295 142.42 170.962 142.42 172.962C142.42 173.495 144.954 173.095 148.154 172.028C158.02 168.562 189.087 160.828 193.487 160.828C195.887 160.828 198.687 160.162 199.754 159.495C203.487 157.095 191.754 158.162 177.087 161.628Z" fill="#FCFAF2"/>
<path d="M196.42 168.161C195.754 168.295 191.487 169.628 187.087 170.828C174.02 174.695 158.42 180.961 158.42 182.428C158.42 183.095 159.22 183.495 160.154 183.095C173.087 177.628 179.487 175.228 188.82 172.695C194.82 171.095 199.754 169.228 199.754 168.561C199.754 167.495 198.82 167.361 196.42 168.161Z" fill="#FCFAF2"/>
<path d="M49.0872 191.228C49.0872 191.895 53.3538 192.961 58.4205 193.361C68.9538 194.428 93.8872 200.295 108.82 205.228C114.154 207.095 118.82 208.028 119.22 207.361C120.554 204.961 75.3538 192.961 56.8205 190.828C52.0205 190.161 49.0872 190.295 49.0872 191.228Z" fill="#FCFAF2"/>
<path d="M51.7537 202.161C51.7537 202.828 52.687 203.495 53.7537 203.495C57.2203 203.495 81.3537 211.628 90.0203 215.761C94.687 218.028 98.8203 219.495 99.2203 219.095C100.554 217.761 84.287 210.295 69.7537 205.361C55.487 200.561 51.7537 199.895 51.7537 202.161Z" fill="#FCFAF2"/>
<path d="M186.42 200.028C171.62 207.495 169.887 208.428 160.42 215.095C148.954 223.228 147.22 224.695 148.154 225.628C148.554 226.028 151.22 224.561 154.02 222.428C162.42 215.628 181.62 204.161 190.954 200.161C195.754 198.161 199.754 195.895 199.754 195.228C199.754 193.495 198.287 193.895 186.42 200.028Z" fill="#FCFAF2"/>
<path d="M185.087 211.361C173.487 218.961 166.42 224.695 168.687 224.828C169.487 224.828 171.887 223.495 174.02 221.761C178.687 217.895 192.154 209.095 194.954 208.028C197.087 207.228 197.887 204.828 196.154 204.828C195.487 204.828 190.554 207.761 185.087 211.361Z" fill="#FCFAF2"/>
</svg>
