<svg width="245" height="246" viewBox="0 0 245 246" fill="none" xmlns="http://www.w3.org/2000/svg">
<path d="M96.2414 2.93538C80.0144 6.40733 62.4573 14.286 50.3536 23.3665C41.575 30.0433 25.348 47.136 19.7617 55.6823C1.27355 83.9921 -4.71181 121.249 3.80071 154.499C12.9783 189.887 40.1119 221.668 73.63 236.224C91.5861 243.969 98.6355 245.304 122.178 245.304C146.917 245.304 155.164 243.568 174.184 234.621C209.83 217.929 234.437 186.548 242.683 147.556C247.605 124.187 244.545 94.8086 234.836 73.3092C219.008 38.3226 188.948 13.0842 151.573 3.60306C135.213 -0.536572 113.532 -0.803645 96.2414 2.93538ZM138.804 3.60306C188.682 11.2146 226.057 44.7323 239.624 94.0073C242.816 105.625 242.816 140.345 239.624 151.829C234.703 169.99 229.25 180.673 229.25 172.393C229.25 164.381 221.269 144.751 213.555 133.534C209.032 126.991 203.047 120.982 201.983 122.05C201.584 122.317 201.983 125.923 202.648 129.929C204.377 138.341 203.446 146.354 199.456 159.44C196.397 169.723 193.337 172.927 193.337 165.85C193.337 158.906 185.756 138.208 177.11 121.783C167.534 103.355 164.342 95.0756 162.213 81.722L160.617 71.7067L156.361 78.3836C148.248 90.936 146.252 98.147 146.252 115.373C146.119 123.92 145.72 130.596 145.188 130.329C144.656 130.062 142.927 126.323 141.331 122.05C138.937 115.774 138.272 110.432 137.474 90.4019C136.277 64.2287 134.548 55.2817 128.296 45.5336C124.439 39.3909 115.129 29.6427 113.133 29.6427C112.601 29.6427 112.468 32.3134 112.867 35.5183C114.863 48.3378 108.478 65.564 94.7783 84.5262C80.4134 104.423 76.2901 115.64 76.2901 134.87C76.2901 143.015 75.8911 145.953 74.694 145.552C72.1669 144.618 66.9796 133.801 66.9796 129.528C66.9796 127.525 66.4475 125.789 65.7825 125.789C64.1864 125.789 62.1913 131.798 59.7971 143.683C58.7331 148.624 57.536 153.031 57.27 153.298C56.2059 154.366 47.0284 139.81 44.5012 133C40.644 123.118 39.8459 112.035 42.1071 101.352C43.0381 96.411 43.5701 92.1378 43.3041 91.7372C41.841 90.2683 29.2053 108.563 23.8849 119.78C16.9685 134.202 15.1064 141.813 13.7763 159.707L12.9783 173.195L10.8501 168.521C1.67258 148.49 -0.189534 115.507 6.19486 91.8708C20.4267 39.7915 66.4475 3.87014 121.513 1.73355C124.04 1.73355 131.888 2.53477 138.804 3.60306ZM122.311 40.7262C132.154 53.9464 134.814 63.9616 134.814 88.2653C134.814 112.569 138.139 125.789 146.917 137.006C150.642 141.68 152.371 140.211 149.977 134.469C147.716 128.994 147.45 106.293 149.578 98.4141C151.44 91.4701 157.425 79.0512 158.888 79.0512C159.553 79.0512 160.085 80.7872 160.085 82.7903C160.085 89.7342 164.342 100.951 175.381 123.786C187.751 148.891 192.007 162.779 192.007 177.601C192.007 193.759 184.027 215.526 172.721 230.482C170.194 233.82 167.002 235.823 161.149 237.826C156.627 239.429 152.77 240.363 152.504 240.096C152.238 239.829 153.701 236.09 155.829 231.817C162.479 218.463 163.41 214.324 163.277 197.899C163.277 186.148 162.612 180.806 160.617 175.331C159.154 171.325 157.292 167.853 156.494 167.586C155.696 167.319 154.765 169.589 154.233 172.794C153.302 178.536 146.385 192.557 144.257 192.557C143.725 192.557 142.528 189.352 141.597 185.48C140.799 181.607 136.809 171.859 132.952 163.713C124.838 147.155 123.375 142.882 121.114 130.596C120.183 125.656 118.853 121.516 118.188 121.382C115.262 120.715 101.296 146.621 96.3744 161.71C89.0589 184.145 89.99 212.588 98.9015 235.823C101.562 243.034 101.163 243.168 88.1279 239.162C79.3493 236.491 78.9503 236.09 73.63 227.677C62.4573 209.917 58.7331 195.362 59.1321 171.192C59.3981 156.369 62.0583 138.341 64.3194 136.071C64.8514 135.404 66.7136 137.674 68.4427 141.012C70.9698 146.22 77.4872 154.232 77.6202 152.363C77.7532 152.096 77.8862 144.885 78.1523 136.472C78.8173 114.171 82.6745 104.023 98.2365 83.5915C101.03 79.986 105.685 72.1073 108.611 65.9647C113 57.0177 114.064 53.0116 114.596 44.8659C114.996 38.8567 115.794 34.9842 116.725 34.9842C117.523 34.9842 120.05 37.6549 122.311 40.7262ZM39.7129 114.839C39.7129 127.792 40.1119 129.795 43.4371 136.606C45.4323 140.745 49.1565 147.021 51.8166 150.493L56.6049 156.77L57.004 174.931C57.403 199.501 61.1272 213.122 71.5019 228.879C74.9601 234.087 72.0339 233.82 62.1913 227.811C45.1662 217.529 32.3975 205.51 22.0228 189.887C17.3675 182.676 17.2345 182.275 16.7025 167.185C16.1705 149.292 18.2986 136.472 24.284 123.786C28.6732 114.171 37.1858 100.417 38.6488 100.417C39.3139 100.417 39.7129 106.827 39.7129 114.839ZM120.05 136.472C120.981 141.68 125.104 152.496 130.291 163.313C134.947 173.328 139.469 185.079 140.4 189.352C141.198 193.759 142.129 197.498 142.262 197.765C143.326 198.967 149.844 190.02 153.701 181.874L157.957 173.195L159.686 179.871C161.947 188.551 161.947 207.513 159.686 215.926C157.691 223.004 151.972 235.69 148.913 239.696C146.518 242.901 124.439 245.304 112.202 243.702L103.69 242.634L99.1675 228.612C89.724 199.368 92.3841 169.456 107.148 142.081C114.064 129.127 116.459 125.522 117.39 126.724C117.922 127.258 119.119 131.665 120.05 136.472ZM217.811 144.618C221.934 152.229 227.919 172.26 227.919 178.536C227.919 187.884 206.771 212.321 187.618 225.007C177.243 231.951 175.115 231.55 180.17 223.538C186.155 213.79 191.874 198.7 193.47 188.151C194.268 182.943 197.062 173.061 199.589 165.984C203.313 155.968 204.377 150.493 205.042 140.478L205.707 127.926L209.963 132.733C212.224 135.537 215.816 140.745 217.811 144.618Z" fill="#FCFAF2"/>
<path d="M122.444 15.4879C121.247 18.5592 124.971 20.9629 127.498 18.9598C129.094 17.6245 129.227 16.8232 128.03 15.4879C126.035 13.0842 123.375 13.0842 122.444 15.4879Z" fill="#FCFAF2"/>
<path d="M89.1919 40.8598C87.9948 43.7976 91.719 46.4683 94.1132 44.3318C96.6403 42.3287 95.4433 38.9903 92.2511 38.9903C90.921 38.9903 89.5909 39.7915 89.1919 40.8598Z" fill="#FCFAF2"/>
<path d="M57.935 51.9433C55.2749 53.0116 52.0827 60.2226 53.0137 63.0269C54.0778 66.3653 60.0632 71.0391 63.2554 71.0391C66.8466 71.0391 72.2999 65.0299 72.2999 61.0238C72.2999 54.4805 64.3194 49.4061 57.935 51.9433ZM68.0437 55.2817C70.7038 57.9525 70.0388 65.4305 67.1126 67.033C63.2554 69.036 60.5952 68.6354 57.669 65.6976C54.4768 62.4927 54.2108 58.6202 57.137 55.8159C59.5311 53.2787 65.7825 53.0116 68.0437 55.2817Z" fill="#FCFAF2"/>
<path d="M176.844 61.1572C175.514 64.6292 175.913 65.6974 178.573 65.6974C182.031 65.6974 183.361 63.4273 181.366 61.0237C179.238 58.4865 177.908 58.4865 176.844 61.1572Z" fill="#FCFAF2"/>
<path d="M27.742 72.3743C26.5449 74.3774 28.274 76.3804 31.2002 76.3804C32.7963 76.3804 33.7274 75.4457 33.7274 73.7097C33.7274 70.9054 29.3381 69.8371 27.742 72.3743Z" fill="#FCFAF2"/>
<path d="M62.1911 91.7372C61.6591 92.9391 61.9251 94.5415 62.7231 95.3427C64.7183 97.3458 68.5755 95.4763 68.0435 92.8055C67.5114 89.7342 63.2552 88.933 62.1911 91.7372Z" fill="#FCFAF2"/>
<path d="M186.155 105.091C185.357 107.494 188.283 109.097 191.342 107.895C194.002 106.96 192.406 103.088 189.347 103.088C188.017 103.088 186.554 104.023 186.155 105.091Z" fill="#FCFAF2"/>
<path d="M222.599 109.631C222.599 112.836 225.924 114.171 227.919 111.768C229.915 109.364 228.584 107.094 225.126 107.094C223.53 107.094 222.599 108.029 222.599 109.631Z" fill="#FCFAF2"/>
<path d="M120.183 73.042C120.183 74.778 117.124 81.9889 113.399 89.0664C109.675 96.1438 107.015 102.287 107.414 102.821C108.478 103.755 108.079 104.156 115.129 91.0694C121.513 79.3182 124.439 69.7036 121.646 69.7036C120.848 69.7036 120.183 71.1725 120.183 73.042Z" fill="#FCFAF2"/>
</svg>
