<svg width="246" height="247" viewBox="0 0 246 247" fill="none" xmlns="http://www.w3.org/2000/svg">
<path d="M108 1.23261C98.4 2.83261 89.3333 4.96595 84 6.69928C34.1333 23.2326 0 70.2993 0 122.699C0 158.833 12.5333 188.166 38.8 213.233C58.1333 231.499 81.2 242.299 109.333 246.033C143.733 250.566 184 236.433 208.933 210.833C234 185.366 245.333 157.766 245.333 122.699C245.333 66.2993 207.467 18.4326 151.333 3.76595C143.6 1.76595 114.667 0.0326125 108 1.23261ZM143.467 4.56595C157.2 6.96595 180 15.3659 180 17.8993C180 18.5659 161.6 19.2326 139.067 19.4993L98 19.7659L142 20.1659L186 20.4326L192.267 24.8326C200.533 30.8326 209.333 38.6993 209.333 40.4326C209.333 41.2326 202.667 41.7659 191.867 41.7659C180.133 41.7659 174.8 42.1659 175.333 43.0993C175.867 44.0326 183.067 44.4326 194.667 44.2993C204.8 44.2993 213.733 44.5659 214.4 44.9659C216.933 46.5659 228 64.1659 232.533 73.7659C238.667 87.2326 243.333 105.766 240.667 105.766C240.267 105.766 235.2 103.233 229.6 100.033C219.6 94.566 219.067 94.4326 206.667 94.4326H194L180.533 101.633C169.2 107.633 165.867 108.833 159.867 108.833C146.933 108.966 139.2 102.299 139.467 91.366C139.733 80.6993 150.8 74.5659 157.6 81.366C160.933 84.8326 160 90.966 156 92.0326C152.8 92.8326 152.4 95.4993 155.467 94.8326C156.667 94.566 158.8 92.966 160.267 91.0993C162.4 88.166 162.533 87.0993 161.2 83.366C158.4 75.0993 148.267 73.6326 141.467 80.5659C137.867 84.166 137.333 85.4993 137.333 92.0326C137.333 98.966 137.733 99.8993 142.667 104.566C152.4 113.766 163.467 113.366 183.467 103.099C195.333 96.966 197.6 96.2993 205.6 96.166C216 96.166 221.733 97.766 231.867 103.899C236 106.433 240 108.433 240.8 108.433C242.4 108.433 244 117.233 244 125.499V130.166L237.733 129.233C234 128.699 228 126.299 222.667 123.099C210.533 115.766 206.667 114.699 195.6 115.366C188.133 115.899 183.467 117.099 174.667 121.233C164.933 125.633 162.133 126.299 154.4 126.299C137.733 126.033 128.667 119.099 117.067 97.766C105.6 76.6993 97.0667 68.8326 82.9333 66.4326C68.1333 64.0326 53.6 74.9659 56.5333 86.4326C57.6 90.8326 62.6667 96.2993 66 96.566C74.2667 97.2326 78.8 94.6993 78.5333 89.366V86.4326L77.3333 89.4993C76.1333 92.4326 71.2 95.0993 67.2 95.0993C63.2 95.0993 58.6667 88.8326 58.6667 83.366C58.6667 73.7659 67.3333 68.5659 75.8667 73.2326C82.4 76.8326 86 84.4326 85.8667 94.4326C85.8667 104.833 83.4667 111.499 77.6 118.033C70.5333 125.899 63.8667 128.833 51.3333 129.499L40.6667 130.033L27.7333 123.233C20.5333 119.366 12 116.033 8.66667 115.499C3.06667 114.833 2.66667 114.433 2.66667 110.566C2.66667 102.966 8 84.166 13.2 72.9659C18 62.9659 22.4 55.6326 29.0667 47.3659L31.4667 44.1659L67.6 44.4326C91.4667 44.4326 104.133 44.0326 104.667 43.0993C105.2 42.1659 94.4 41.7659 70.8 41.7659C51.6 41.7659 36 41.2326 36 40.6993C36 37.4993 56.1333 21.7659 67.8667 15.7659C76 11.6326 89.8667 6.83261 98.6667 5.09928C109.333 2.96595 132.8 2.56595 143.467 4.56595ZM93.2 72.2993C100.267 75.8993 107.6 84.6993 114.4 97.6326C126.933 121.099 136.4 128.433 154.533 128.433C163.467 128.433 165.867 127.899 174.4 123.766C193.6 114.433 203.467 114.566 220.4 124.566C225.333 127.499 232.4 130.566 236 131.499C242.133 132.966 242.667 133.366 242.667 137.099C242.533 153.766 224.8 195.099 217.733 195.099C214.133 194.966 205.2 190.566 200.133 186.299C189.733 177.633 185.867 157.899 192.4 146.566C198.8 135.233 210 133.633 215.2 143.233C220.8 153.499 211.067 164.299 201.2 159.099C199.867 158.299 198.667 156.833 198.667 155.766C198.667 154.699 198.133 153.766 197.333 153.766C195.333 153.766 195.733 155.766 198.533 159.233C200.4 161.633 202.4 162.433 206.4 162.433C212.933 162.433 216.8 159.233 218.8 152.299C220.133 148.033 220 146.699 217.867 142.966C213.733 135.899 208.933 133.233 199.2 132.699C182.133 131.633 171.2 139.633 158.8 162.299C145.867 185.899 138.4 191.633 120.667 191.633C111.067 191.633 109.067 191.233 99.7333 186.699C82.1333 178.033 70.2667 178.299 54.2667 187.899C43.8667 194.166 32.6667 197.099 27.2 195.099C24.6667 194.033 16.8 183.366 15.7333 179.366C15.4667 178.166 18.4 177.633 27.3333 177.366C37.8667 177.099 40.1333 176.566 46 173.233C59.6 165.233 63.3333 163.899 71.6 163.366C82.5333 162.566 89.3333 164.433 101.2 171.233C109.467 176.033 112 176.966 120.4 177.366C131.733 178.033 137.6 175.633 142.267 168.566C147.333 160.966 145.467 150.166 138.4 145.233C128.267 138.033 114.133 150.566 122.667 159.099C125.333 161.766 130.133 162.833 128.667 160.433C128.267 159.633 126.933 159.099 126 159.099C123.333 159.099 122 152.966 123.867 148.966C124.933 146.433 126.267 145.766 130.533 145.766C137.733 145.766 141.467 149.099 142.267 156.566C143.2 165.099 140.133 170.566 132.4 174.033C123.733 177.766 116.933 176.566 100 168.033C86.5333 161.233 85.7333 161.099 74.6667 161.099C63.6 161.099 63.0667 161.233 50.4 167.899C36.5333 175.366 28.6667 177.233 18.6667 175.499L12.6667 174.433L8.26667 161.233C5.86667 154.033 3.46667 143.899 3.06667 138.699L2.26667 129.366L8.13333 130.166C11.3333 130.566 19.3333 133.766 26 137.233C37.2 143.233 38.8 143.633 50 144.166C65.6 144.833 73.7333 142.033 85.0667 131.766C92.8 124.699 100 113.233 100 107.899C100 103.766 97.8667 105.899 96.2667 111.633C92.9333 124.166 78.1333 137.366 63.0667 141.366C51.4667 144.433 42 142.966 29.0667 136.166C23.2 133.099 14.6667 129.633 10.1333 128.433C2.26667 126.166 2 126.033 2 121.633C2 117.099 2.13333 117.099 7.33333 117.499C10.5333 117.766 17.7333 120.699 25.3333 124.699C36.2667 130.566 39.3333 131.633 47.3333 132.033C64 133.233 78.2667 125.233 84.9333 111.099C91.3333 97.2326 89.8667 83.6326 81.0667 74.8326C78.2667 72.0326 76 69.3659 76 68.9659C76 67.3659 88 69.7659 93.2 72.2993ZM198.933 134.566C199.333 134.966 197.467 137.499 194.8 140.166C188.4 146.433 186.133 153.233 187.067 163.099C188.4 177.766 197.067 190.166 209.2 194.566C217.6 197.766 218 198.299 214.533 202.299C210.4 206.966 207.2 206.699 197.467 200.433C188.933 194.833 179.733 182.966 178 175.099C177.467 172.833 176.533 171.099 175.867 171.099C175.2 171.099 175.067 172.699 175.467 174.699C178.267 186.166 189.467 199.766 200.933 205.233C207.867 208.699 208 208.833 205.733 211.366C204.533 212.833 199.333 216.966 194.4 220.699L185.333 227.366L175.6 222.299C166.667 217.499 165.2 217.233 154.667 217.099C144.4 217.099 142.533 217.499 134.4 221.633C129.333 224.166 125.333 226.699 125.333 227.099C125.333 229.099 112.4 231.766 104 231.633C96.2667 231.499 93.8667 230.699 81.6 224.299C68.1333 217.366 67.4667 217.099 56.9333 217.099H46L37.7333 209.233C33.0667 204.833 29.3333 200.566 29.3333 199.766C29.3333 198.833 32.4 197.766 36.8 197.366C42.2667 196.833 46.6667 195.099 53.0667 191.233C65.0667 184.033 68 183.099 78.2667 183.099C85.7333 183.099 88.9333 183.899 98.5333 188.299C112.8 194.833 119.733 195.899 129.867 193.366C143.733 189.633 149.867 183.766 161.467 162.433C168 150.433 174 143.233 180.933 138.966C187.067 135.099 197.067 132.699 198.933 134.566ZM80.6667 226.433C94.1333 233.366 95.4667 233.766 104.8 233.766C115.733 233.766 121.467 231.899 134 224.433C141.467 220.033 142.533 219.766 154 219.766C164.667 219.766 166.933 220.166 173.733 223.633C177.867 225.766 181.333 227.899 181.333 228.433C181.333 230.166 163.467 237.633 152 240.699C142.667 243.099 137.467 243.633 122 243.499C96.4 243.366 83.2 239.899 60.4 226.833C55.0667 223.766 50.6667 220.833 50.6667 220.166C50.6667 219.633 54.1333 219.099 58.5333 219.099C65.3333 219.099 68.1333 220.033 80.6667 226.433Z" fill="#FCFAF2"/>
<path d="M122.667 59.0991C121.867 60.6991 121.6 63.0991 122 64.4325C122.933 67.2325 128.267 69.2325 130.667 67.7658C133.067 66.2991 134.4 61.2325 133.067 58.6991C131.333 55.4991 124.533 55.6325 122.667 59.0991ZM130.667 59.7658C133.067 62.5658 131.333 66.0325 127.733 65.4991C124.267 65.0991 122.8 60.6991 125.6 58.9658C128 57.3658 128.8 57.4991 130.667 59.7658Z" fill="#FCFAF2"/>
<path d="M182.533 73.8992C180.4 77.8992 182.933 83.0992 187.067 83.0992C190.933 83.0992 193.333 80.8326 193.333 77.0992C193.333 71.0992 185.333 68.6992 182.533 73.8992ZM192 76.9659C192 79.6326 188.667 81.8992 186.133 80.9659C183.6 80.0326 183.2 74.2992 185.733 73.3659C188 72.5659 192 74.8326 192 76.9659Z" fill="#FCFAF2"/>
<path d="M36.2666 94.5658C29.7333 99.0991 35.4666 108.299 42.5333 104.432C46.2666 102.566 45.8666 96.8325 42 94.2991C39.6 92.6991 38.8 92.8325 36.2666 94.5658ZM42.5333 97.4991C43.4666 99.2325 43.3333 100.566 42.4 101.499C38.9333 104.966 33.8666 101.766 36.1333 97.4991C36.8 96.1658 38.2666 95.0991 39.3333 95.0991C40.4 95.0991 41.8666 96.1658 42.5333 97.4991Z" fill="#FCFAF2"/>
<path d="M99.4666 138.032C97.4666 140.832 98.2666 144.566 101.467 146.432C104.133 148.166 109.333 145.766 110.133 142.432C111.867 135.632 103.467 132.299 99.4666 138.032ZM107.333 140.432C107.333 142.832 106.533 143.899 104.267 144.166C100.667 144.699 98.9333 141.232 101.333 138.299C103.867 135.366 107.333 136.566 107.333 140.432Z" fill="#FCFAF2"/>
<path d="M163.333 190.299C160.4 194.699 162.667 199.099 167.733 199.099C174.4 199.099 176.933 193.499 172.267 189.366C168.8 186.166 165.733 186.566 163.333 190.299ZM171.733 193.499C172.267 197.233 168.533 198.833 165.733 196.033C162.933 193.233 164.533 189.499 168.267 190.033C170.267 190.299 171.467 191.499 171.733 193.499Z" fill="#FCFAF2"/>
<path d="M83.4667 202.433C80.5334 205.366 80.8 209.233 84.1334 211.499C87.8667 214.166 91.8667 212.833 92.9334 208.699C94.5334 202.299 88 197.899 83.4667 202.433ZM91.2 205.233C92.1334 207.766 89.8667 211.099 87.0667 211.099C84.8 211.099 83.4667 207.899 84.5334 205.099C85.4667 202.433 90.1334 202.566 91.2 205.233Z" fill="#FCFAF2"/>
</svg>
