<svg width="34" height="36" viewBox="0 0 34 36" fill="none" xmlns="http://www.w3.org/2000/svg">
<circle cx="17.2072" cy="18.2668" r="16.7927" fill="#6A5847"/>
<path d="M15.0598 0.950485C9.73804 1.50214 4.61957 4.94075 2.05109 9.66655C0.628261 12.2961 0 14.7785 0 17.831C0 22.5016 1.60761 26.3631 4.98913 29.765C8.16739 32.9829 12.4543 34.7666 17 34.7666C21.4348 34.7666 25.6478 33.0565 28.8076 29.9856C32.2815 26.6206 34 22.5935 34 17.831C34 13.1971 32.4848 9.46428 29.2141 6.04405C26.4793 3.15708 22.7652 1.35503 18.663 0.950485C17.6283 0.840157 16.7228 0.766602 16.6489 0.766602C16.5935 0.784988 15.8728 0.858543 15.0598 0.950485ZM21.1576 1.66763C22.9315 2.14573 24.8902 3.02836 26.3685 4.02133C27.7359 4.94075 29.6022 6.61409 29.5283 6.85313C29.4913 6.96346 27.6435 7.03702 24.8902 7.01863C22.0076 7.01863 20.3261 7.0738 20.3261 7.18412C20.3261 7.29445 22.137 7.36801 25.2228 7.36801H30.1011L30.8587 8.47131C31.2837 9.09651 31.8196 10.0159 32.0598 10.5492L32.5217 11.5054L31.5239 11.6157C30.988 11.6709 30.4522 11.7812 30.3598 11.8364C30.2674 11.9099 29.9348 11.7077 29.6576 11.4134C29.1772 10.917 28.6228 10.6963 27.5511 10.5676C27.1076 10.5124 25.9804 10.9721 25.2783 11.4502C25.0011 11.6525 24.8717 11.5789 24.3543 11.0641C22.5065 9.15167 19.162 9.22523 17.0554 11.1928C16.7228 11.5054 16.187 11.7996 15.8543 11.8731C14.7826 12.1122 13.9326 12.6455 12.0663 14.282C9.86739 16.2128 8.99891 16.6541 7.70543 16.4886C7.20652 16.4151 6.46739 16.1944 6.07935 15.9921C4.89674 15.4037 4.43478 13.9878 5.17391 13.2523C5.82065 12.6087 6.83696 12.8661 6.83696 13.6568C6.83696 13.8407 6.92935 13.9878 7.02174 13.9878C7.31739 13.9878 7.24348 13.1419 6.91087 12.8661C6.44891 12.48 5.41413 12.5719 4.9337 13.0316C4.60109 13.381 4.52717 13.6384 4.52717 14.6866C4.54565 17.4632 6.22717 18.9159 9.68261 19.1549C11.8076 19.302 12.0663 19.3756 12.8978 20.0927C13.9511 20.9938 14.9304 21.3799 16.4457 21.4718C17.9609 21.5822 18.9217 21.3799 19.8272 20.7547C20.2891 20.4237 20.3446 20.4237 20.6217 20.6995C21.0098 21.0857 21.7674 21.4535 22.488 21.619C23.2457 21.7661 24.9457 21.3064 25.3891 20.8099C25.7033 20.4605 25.7217 20.4605 26.5717 20.8466C28.1239 21.527 31.3207 21.4718 33.1315 20.6995C33.575 20.5157 33.538 20.9202 32.9467 22.7958C32.6696 23.6784 32.4663 24.4508 32.5033 24.5427C32.5217 24.6346 32.4293 24.6163 32.3 24.5059C31.9674 24.2485 24.3913 24.1933 24.3913 24.4691C24.3913 24.5795 25.7217 24.653 28.2717 24.653C30.4152 24.653 32.1522 24.7082 32.1522 24.7817C32.1522 25.1127 30.8957 27.1354 30.0457 28.202C29.5467 28.8272 28.6413 29.7834 28.0315 30.2982L26.9228 31.2728H20.5663C16.3717 31.2728 14.2467 31.328 14.3207 31.4567C14.3946 31.567 16.575 31.6406 20.2522 31.6406C24.5391 31.6406 26.0359 31.6958 25.9435 31.8429C25.7402 32.1738 22.5804 33.6081 21.25 33.9575C20.3261 34.215 19.3652 34.3069 17.0924 34.3069C13.7663 34.3069 12.4913 34.0678 10.2739 33.0381L8.98044 32.4497L9.99674 31.9532C11.1978 31.3648 11.475 31.1073 13.3967 28.9927C14.9674 27.2458 15.8543 26.6941 17.0554 26.6757C18.0348 26.6757 18.7554 27.3745 18.5891 28.202C18.3674 29.3237 17.0554 29.673 16.5565 28.7352C16.2978 28.2755 16.2793 28.2755 16.2609 28.6433C16.2609 29.103 16.8891 29.6179 17.4804 29.6179C17.6837 29.6179 18.0902 29.4156 18.3674 29.1582C19.2543 28.3307 18.8848 26.4551 17.6652 25.646C17.3511 25.4621 16.538 25.2966 15.3554 25.2047C13.8772 25.0943 13.3598 24.9656 12.713 24.5979C9.775 22.8694 8.70326 22.5384 7.07717 22.8877C6.59674 22.9981 6.44891 22.9613 6.28261 22.6303C5.98696 22.0971 5.00761 21.7109 3.89891 21.7109C3.17826 21.7109 2.8087 21.8396 2.05109 22.3361C1.5337 22.6855 1.07174 22.9061 1.03478 22.851C0.831522 22.5016 0.369565 19.7985 0.498913 19.6698C0.591304 19.5779 1.60761 19.4859 2.77174 19.4491L4.89674 19.394L2.64239 19.3572L0.388043 19.3204L0.277174 18.7136C0.0923913 17.7206 0.517391 14.4843 1.07174 12.7558L1.58913 11.1376L6.375 11.0457L11.1793 10.9353L6.48587 10.8986C1.18261 10.8618 1.57065 11.0273 2.64239 9.24362C3.41848 7.93805 5.1 5.9705 6.15326 5.10625L6.98478 4.42588L13.8033 4.3891L20.6033 4.33393L14.1728 4.29716C9.16522 4.24199 7.74239 4.18683 7.79783 4.00294C8.01957 3.32258 12.288 1.63085 14.6533 1.29986C16.3717 1.06081 19.4576 1.22631 21.1576 1.66763ZM22.8207 10.3837C23.338 10.6044 24.0217 11.1192 24.3543 11.5054L24.9641 12.1857L25.3707 11.818C26.4978 10.7698 28.3457 10.6227 29.3435 11.5238L29.8424 11.9651L29.3435 12.3329C28.1424 13.2523 27.7543 14.8153 28.4565 15.9554C29.1217 17.0587 31.1913 17.2425 31.9674 16.2496C32.6326 15.4037 32.3 14.1717 31.3946 14.1717C30.8957 14.1717 30.9511 14.5027 31.4685 14.5762C31.7826 14.613 31.8935 14.7601 31.9304 15.3118C32.0043 16.2312 31.3946 16.6541 30.1935 16.507C29.0478 16.3783 28.3641 15.7163 28.3826 14.7601C28.438 13.0868 29.6022 12.0938 31.5793 12.0754L32.7804 12.057L33.113 13.2523C33.575 14.944 33.8522 17.5367 33.7043 18.9894C33.5935 20.1847 33.575 20.2214 32.9098 20.4789C30.1196 21.5822 26.8859 21.1776 25.1859 19.5043C23.7815 18.1252 23.4489 16.1944 24.4837 15.3301C25.0565 14.8337 25.537 14.7969 25.9435 15.2014C26.2761 15.514 26.35 16.1944 26.0543 16.1944C25.962 16.1944 25.8696 16.268 25.8696 16.3783C25.8696 16.7277 26.2576 16.5622 26.4609 16.1025C26.775 15.3853 26.2391 14.7233 25.3522 14.7233C24.0772 14.7233 23.2272 16.176 23.6522 17.6471C23.7446 17.9965 24.2065 18.7688 24.65 19.3388L25.4815 20.4053L24.8348 20.7915C23.5783 21.5638 22.0261 21.4535 20.8804 20.4973L20.3446 20.0376L19.8272 20.4053C19.55 20.6076 18.8663 20.9018 18.3304 21.0857C17.4804 21.3615 17.1663 21.3615 16.0946 21.1776C14.8935 20.957 14.45 20.7547 12.6761 19.5595C11.9554 19.0814 11.5674 18.971 10.3848 18.8607C7.87174 18.6768 7.44674 18.5849 6.57826 18.0332C5.6913 17.4632 4.98913 16.5438 4.98913 15.937C4.98913 15.606 5.00761 15.606 5.32174 15.8818C5.91304 16.4151 6.98478 16.746 8.18587 16.746C9.25761 16.746 9.46087 16.6909 10.4587 15.9921C11.05 15.5692 11.5859 15.1647 11.6413 15.1095C11.937 14.7049 14.3391 12.8477 14.9489 12.5167C15.8174 12.0754 17.2772 12.0203 18.1826 12.4064C19.7902 13.0684 20.2522 15.183 19.1065 16.5438C18.275 17.5367 16.6489 17.6655 15.5957 16.838C14.5424 16.0105 15.0783 14.1717 16.3717 14.1717C16.5935 14.1717 16.9261 14.3556 17.0739 14.5762C17.388 15.0175 17.6283 14.9624 17.462 14.4843C17.388 14.3372 17.1109 14.1165 16.8337 13.9878C15.8728 13.6016 14.7826 14.374 14.7457 15.514C14.7087 16.746 15.7989 17.7206 17.2033 17.7022C19.1804 17.6655 20.4739 15.9186 19.9565 13.9694C19.6793 12.9764 18.9033 12.2593 17.813 11.9835C16.963 11.7628 16.963 11.7628 17.2957 11.3951C17.6652 10.9905 18.8109 10.3469 19.587 10.1079C20.5293 9.83204 21.8783 9.94237 22.8207 10.3837ZM5.04457 22.1522C5.37717 22.2993 5.80217 22.5384 6.00543 22.7039C6.375 22.9981 6.375 22.9981 5.87609 23.3658C4.71196 24.2485 4.21304 26.1057 4.85978 27.0987C5.56196 28.1652 7.35435 28.4594 8.29674 27.6687C9.22065 26.8964 8.99891 25.3702 7.98261 25.4069L7.4837 25.4253L7.98261 25.5908C8.53696 25.7931 8.79565 26.5102 8.5 27.0435C7.85326 28.2387 5.54348 27.9997 4.98913 26.6757C4.61957 25.7747 4.85978 24.8553 5.70978 24.0646C7.20652 22.6671 8.85109 22.7223 11.475 24.2485C13.4152 25.3886 14.025 25.5724 15.5217 25.5357C16.3533 25.5173 16.9076 25.6092 17.3326 25.8115C18.0902 26.216 18.1087 26.5654 17.3696 26.3999C16.5935 26.2344 15.1891 26.7309 14.413 27.4664C14.062 27.8158 13.2674 28.6617 12.6391 29.3604C11.3826 30.7763 10.3663 31.5486 9.23913 31.9348L8.48152 32.1922L7.33587 31.3832C5.04457 29.765 3.01196 27.3193 1.75543 24.6714C1.1087 23.3107 1.18261 23.1268 2.58696 22.3913C3.67717 21.8396 4.17609 21.7844 5.04457 22.1522Z" fill="#FCFAF2"/>
<path d="M7.94568 7.18428C7.7609 7.29461 8.83264 7.36816 11.1424 7.36816C13.4152 7.36816 14.5794 7.313 14.5055 7.18428C14.3576 6.94523 8.31525 6.94523 7.94568 7.18428Z" fill="#FCFAF2"/>
<path d="M22.0812 27.5949C22.0073 27.7053 22.6726 27.7788 23.9106 27.7788C25.0932 27.7788 25.8693 27.7053 25.8693 27.5949C25.8693 27.4846 25.1302 27.411 24.0399 27.411C23.0052 27.411 22.1367 27.4846 22.0812 27.5949Z" fill="#FCFAF2"/>
</svg>
