<svg width="43" height="44" viewBox="0 0 43 44" fill="none" xmlns="http://www.w3.org/2000/svg">
<path d="M10.66 30.4551C10.6551 30.8129 10.7951 31.1575 11.0482 31.4106C11.3013 31.6637 11.6459 31.8037 12.0037 31.7988C12.7459 31.7988 13.3475 31.1972 13.3475 30.4551V15.9963L30.0637 32.7305C30.3987 33.09 30.9032 33.238 31.3793 33.1164C31.8554 32.9948 32.2272 32.623 32.3488 32.1469C32.4704 31.6708 32.3224 31.1663 31.9629 30.8313L15.2287 14.0971H29.6875C30.4296 14.0971 31.0312 13.4955 31.0312 12.7534C31.0312 12.0113 30.4296 11.4096 29.6875 11.4096H11.9858C11.2437 11.4096 10.6421 12.0113 10.6421 12.7534L10.66 30.4551Z" fill="#31443A"/>
</svg>
