<svg width="43" height="44" viewBox="0 0 43 44" fill="none" xmlns="http://www.w3.org/2000/svg">
<path d="M13.3125 11.4266C12.9547 11.4217 12.61 11.5617 12.357 11.8148C12.1039 12.0679 11.9639 12.4125 11.9688 12.7703C11.9688 13.5125 12.5704 14.1141 13.3125 14.1141H27.7713L11.0371 30.8303C10.6776 31.1653 10.5296 31.6698 10.6512 32.1459C10.7728 32.622 11.1446 32.9938 11.6207 33.1154C12.0968 33.237 12.6013 33.089 12.9363 32.7295L29.6704 15.9953V30.4541C29.6704 31.1962 30.272 31.7978 31.0142 31.7978C31.7563 31.7978 32.3579 31.1962 32.3579 30.4541V12.7524C32.3579 12.0103 31.7563 11.4087 31.0142 11.4087L13.3125 11.4266Z" fill="#31443A"/>
</svg>
