<svg width="44" height="44" viewBox="0 0 44 44" fill="none" xmlns="http://www.w3.org/2000/svg">
<path d="M29.8379 33.1066C30.1957 33.1115 30.5404 32.9715 30.7934 32.7184C31.0465 32.4653 31.1865 32.1207 31.1816 31.7629C31.1816 31.0207 30.58 30.4191 29.8379 30.4191H15.3791L32.1133 13.7029C32.4728 13.3679 32.6208 12.8634 32.4992 12.3873C32.3776 11.9112 32.0058 11.5394 31.5297 11.4178C31.0536 11.2962 30.5491 11.4442 30.2141 11.8037L13.48 28.5379V14.0791C13.48 13.337 12.8783 12.7354 12.1362 12.7354C11.3941 12.7354 10.7925 13.337 10.7925 14.0791V31.7808C10.7925 32.5229 11.3941 33.1245 12.1362 33.1245L29.8379 33.1066Z" fill="#31443A"/>
</svg>
