<svg width="43" height="44" viewBox="0 0 43 44" fill="none" xmlns="http://www.w3.org/2000/svg">
<path d="M32.34 14.0791C32.3449 13.7213 32.2049 13.3766 31.9518 13.1236C31.6987 12.8705 31.3541 12.7305 30.9963 12.7354C30.2541 12.7354 29.6525 13.337 29.6525 14.0791V28.5379L12.9363 11.8037C12.6013 11.4442 12.0968 11.2962 11.6207 11.4178C11.1446 11.5394 10.7728 11.9112 10.6512 12.3873C10.5296 12.8634 10.6776 13.3679 11.0371 13.7029L27.7713 30.437H13.3125C12.5704 30.437 11.9688 31.0387 11.9688 31.7808C11.9688 32.5229 12.5704 33.1245 13.3125 33.1245H31.0142C31.7563 33.1245 32.3579 32.5229 32.3579 31.7808L32.34 14.0791Z" fill="#31443A"/>
</svg>
