<svg width="35" height="35" viewBox="0 0 35 35" fill="none" xmlns="http://www.w3.org/2000/svg">
<circle cx="16.9421" cy="17.2668" r="16.7927" fill="#6A5847"/>
<path d="M13.5054 1.13173C11.2534 1.61355 8.81696 2.70691 7.13725 3.96706C5.91901 4.89364 3.6671 7.26569 2.89185 8.45171C0.326152 12.3804 -0.50447 17.5507 0.676859 22.1651C1.95048 27.076 5.71597 31.4865 10.3675 33.5065C12.8593 34.5813 13.8376 34.7666 17.1047 34.7666C20.538 34.7666 21.6824 34.5257 24.3219 33.2841C29.2687 30.9676 32.6835 26.6127 33.8279 21.2015C34.5109 17.9584 34.0863 13.8815 32.7389 10.8979C30.5423 6.0426 26.3708 2.54013 21.184 1.22438C18.9136 0.649906 15.9049 0.612843 13.5054 1.13173ZM19.412 1.22438C26.3339 2.28069 31.5206 6.93212 33.4034 13.7703C33.8464 15.3825 33.8464 20.2008 33.4034 21.7945C32.7204 24.3148 31.9636 25.7973 31.9636 24.6483C31.9636 23.5364 30.8561 20.8123 29.7856 19.2556C29.158 18.3476 28.3274 17.5137 28.1797 17.6619C28.1243 17.699 28.1797 18.1993 28.272 18.7553C28.5119 19.9228 28.3827 21.0347 27.829 22.8508C27.4044 24.2777 26.9799 24.7225 26.9799 23.7403C26.9799 22.7766 25.9278 19.9042 24.728 17.6249C23.399 15.0675 22.956 13.9185 22.6607 12.0654L22.4392 10.6755L21.8485 11.6021C20.7225 13.3441 20.4457 14.3448 20.4457 16.7353C20.4272 17.9214 20.3718 18.8479 20.298 18.8109C20.2242 18.7738 19.9842 18.2549 19.7627 17.6619C19.4305 16.7909 19.3382 16.0497 19.2274 13.2699C19.0613 9.63774 18.8213 8.39612 17.9538 7.04331C17.4185 6.19086 16.1264 4.83805 15.8496 4.83805C15.7757 4.83805 15.7573 5.20868 15.8126 5.65344C16.0895 7.43247 15.2035 9.82305 13.3023 12.4545C11.3088 15.2158 10.7366 16.7724 10.7366 19.441C10.7366 20.5714 10.6812 20.9791 10.5151 20.9235C10.1644 20.7938 9.44454 19.2927 9.44454 18.6997C9.44454 18.4217 9.37071 18.1808 9.27841 18.1808C9.05691 18.1808 8.78004 19.0147 8.44779 20.664C8.30013 21.3497 8.134 21.9613 8.09708 21.9983C7.94942 22.1466 6.6758 20.1266 6.32509 19.1815C5.7898 17.8102 5.67905 16.2721 5.99284 14.7895C6.12205 14.1039 6.19588 13.5108 6.15897 13.4552C5.95592 13.2514 4.20239 15.7902 3.46406 17.3469C2.50423 19.3483 2.24581 20.4046 2.06123 22.8878L1.95048 24.7595L1.65515 24.1109C0.381527 21.3312 0.123111 16.7539 1.00911 13.4738C2.98414 6.24645 9.37071 1.26145 17.0124 0.964943C17.3631 0.964943 18.4522 1.07613 19.412 1.22438ZM17.1232 6.37617C18.4891 8.2108 18.8583 9.60067 18.8583 12.9734C18.8583 16.3462 19.3197 18.1808 20.538 19.7375C21.0548 20.3861 21.2948 20.1822 20.9625 19.3854C20.6487 18.6256 20.6118 15.4752 20.9071 14.3818C21.1655 13.4182 21.9962 11.6947 22.1992 11.6947C22.2915 11.6947 22.3653 11.9357 22.3653 12.2136C22.3653 13.1773 22.956 14.7339 24.488 17.9028C26.2046 21.3868 26.7953 23.3141 26.7953 25.3711C26.7953 27.6134 25.6878 30.6341 24.1189 32.7096C23.7682 33.1729 23.3252 33.4509 22.513 33.7288C21.8854 33.9512 21.3501 34.0809 21.3132 34.0439C21.2763 34.0068 21.4793 33.4879 21.7747 32.8949C22.6976 31.0417 22.8268 30.4673 22.8083 28.1879C22.8083 26.5571 22.716 25.8158 22.4392 25.056C22.2361 24.5001 21.9777 24.0183 21.867 23.9812C21.7562 23.9441 21.627 24.2592 21.5532 24.7039C21.424 25.5008 20.4641 27.4466 20.1688 27.4466C20.095 27.4466 19.9288 27.0019 19.7996 26.4644C19.6889 25.927 19.1351 24.5742 18.5998 23.4438C17.4739 21.1459 17.2708 20.5529 16.9571 18.8479C16.8278 18.1623 16.6433 17.5878 16.551 17.5693C16.1449 17.4766 14.2068 21.0717 13.5238 23.1658C12.5086 26.2791 12.6378 30.2264 13.8745 33.4509C14.2437 34.4516 14.1883 34.4701 12.3794 33.9141C11.1612 33.5435 11.1058 33.4879 10.3675 32.3204C8.81696 29.8557 8.30013 27.8358 8.3555 24.4816C8.39242 22.4245 8.76158 19.9228 9.07537 19.6077C9.14921 19.5151 9.40762 19.8301 9.64758 20.2934C9.99829 21.0161 10.9027 22.128 10.9212 21.8686C10.9397 21.8315 10.9581 20.8308 10.995 19.6633C11.0873 16.5686 11.6226 15.1602 13.7822 12.3248C14.1699 11.8245 14.8159 10.7311 15.222 9.87865C15.8311 8.63703 15.9788 8.08108 16.0526 6.95065C16.108 6.11673 16.2187 5.57931 16.3479 5.57931C16.4587 5.57931 16.8094 5.94995 17.1232 6.37617ZM5.66059 16.6612C5.66059 18.4588 5.71597 18.7368 6.17742 19.6819C6.4543 20.2563 6.97113 21.1273 7.3403 21.6092L8.00479 22.4801L8.06017 25.0004C8.11554 28.4103 8.63237 30.3005 10.0721 32.4872C10.552 33.2099 10.146 33.1729 8.78004 32.339C6.41738 30.912 4.64539 29.2442 3.20564 27.076C2.5596 26.0753 2.54114 26.0197 2.46731 23.9256C2.39348 21.4424 2.68881 19.6633 3.51943 17.9028C4.12856 16.5686 5.30989 14.6598 5.51293 14.6598C5.60522 14.6598 5.66059 15.5493 5.66059 16.6612ZM16.8094 19.6633C16.9386 20.3861 17.5108 21.8871 18.2307 23.3882C18.8767 24.7781 19.5043 26.4088 19.6335 27.0019C19.7443 27.6134 19.8735 28.1323 19.8919 28.1693C20.0396 28.3361 20.944 27.0945 21.4793 25.9641L22.07 24.7595L22.31 25.6861C22.6237 26.8907 22.6237 29.5222 22.31 30.6896C22.0331 31.6718 21.2394 33.4323 20.8148 33.9883C20.4826 34.433 17.4185 34.7666 15.7204 34.5442L14.539 34.396L13.9114 32.4502C12.6009 28.3917 12.9701 24.2406 15.0189 20.4417C15.9788 18.6441 16.311 18.1437 16.4402 18.3105C16.5141 18.3847 16.6802 18.9962 16.8094 19.6633ZM30.3762 20.7938C30.9484 21.8501 31.779 24.6298 31.779 25.5008C31.779 26.798 28.8442 30.1893 26.1862 31.9498C24.7464 32.9134 24.4511 32.8578 25.1525 31.7459C25.9832 30.3931 26.7769 28.2991 26.9984 26.8351C27.1091 26.1123 27.4967 24.741 27.8474 23.7588C28.3643 22.369 28.5119 21.6092 28.6042 20.2193L28.6965 18.4773L29.2872 19.1445C29.601 19.5336 30.0993 20.2563 30.3762 20.7938Z" fill="#FCFAF2"/>
<path d="M17.1419 2.87374C16.9758 3.29997 17.4926 3.63354 17.8433 3.35556C18.0648 3.17025 18.0833 3.05906 17.9172 2.87374C17.6403 2.54017 17.2711 2.54017 17.1419 2.87374Z" fill="#FCFAF2"/>
<path d="M12.5272 6.39492C12.3611 6.80262 12.8779 7.17325 13.2102 6.87674C13.5609 6.59877 13.3947 6.13548 12.9517 6.13548C12.7672 6.13548 12.5826 6.24667 12.5272 6.39492Z" fill="#FCFAF2"/>
<path d="M8.18927 7.93299C7.8201 8.08124 7.3771 9.08195 7.50631 9.47111C7.65398 9.9344 8.4846 10.583 8.9276 10.583C9.42597 10.583 10.1828 9.74909 10.1828 9.19314C10.1828 8.28509 9.07527 7.58089 8.18927 7.93299ZM9.5921 8.39628C9.96126 8.76691 9.86897 9.80468 9.46289 10.0271C8.9276 10.305 8.55843 10.2494 8.15235 9.84174C7.70935 9.39698 7.67244 8.85957 8.07852 8.4704C8.41077 8.1183 9.27831 8.08124 9.5921 8.39628Z" fill="#FCFAF2"/>
<path d="M24.6915 9.21172C24.5069 9.69354 24.5623 9.8418 24.9314 9.8418C25.4114 9.8418 25.5959 9.52676 25.3191 9.19319C25.0237 8.84109 24.8392 8.84109 24.6915 9.21172Z" fill="#FCFAF2"/>
<path d="M3.99953 10.7683C3.8334 11.0462 4.07336 11.3242 4.47944 11.3242C4.70094 11.3242 4.83015 11.1945 4.83015 10.9536C4.83015 10.5644 4.22102 10.4162 3.99953 10.7683Z" fill="#FCFAF2"/>
<path d="M8.78011 13.4553C8.70628 13.622 8.7432 13.8444 8.85394 13.9556C9.13082 14.2336 9.66611 13.9741 9.59228 13.6035C9.51844 13.1773 8.92778 13.0661 8.78011 13.4553Z" fill="#FCFAF2"/>
<path d="M25.9833 15.3085C25.8726 15.6421 26.2786 15.8645 26.7032 15.6977C27.0723 15.568 26.8508 15.0305 26.4263 15.0305C26.2417 15.0305 26.0387 15.1603 25.9833 15.3085Z" fill="#FCFAF2"/>
<path d="M31.041 15.9386C31.041 16.3833 31.5025 16.5686 31.7793 16.2351C32.0562 15.9015 31.8716 15.5865 31.3917 15.5865C31.1702 15.5865 31.041 15.7162 31.041 15.9386Z" fill="#FCFAF2"/>
<path d="M16.8278 10.8609C16.8278 11.1018 16.4032 12.1025 15.8864 13.0847C15.3696 14.0669 15.0004 14.9193 15.0558 14.9934C15.2035 15.1232 15.1481 15.1788 16.1264 13.3627C17.0124 11.7319 17.4184 10.3976 17.0308 10.3976C16.9201 10.3976 16.8278 10.6014 16.8278 10.8609Z" fill="#FCFAF2"/>
</svg>
