<svg width="264" height="284" viewBox="0 0 264 284" fill="none" xmlns="http://www.w3.org/2000/svg">
<path d="M4.82956 196.466C34.0483 281.189 118.773 283.635 119.62 283.653C122.395 283.611 124.85 281.851 125.784 279.238C126.643 276.567 125.645 273.651 123.334 272.064C99.1859 255.447 86.9796 237.691 87.0601 219.296H87.0578C88.0085 204.827 94.0304 191.151 104.063 180.679C101.35 191.026 102.8 202.021 108.103 211.309C116.071 224.28 132.686 230.95 155.083 230.254C168.247 229.807 177.722 226.084 183.308 219.171C183.942 222.345 183.72 225.632 182.67 228.693C180.714 231.507 181.338 235.363 184.084 237.413C186.83 239.463 190.707 238.967 192.847 236.292C194.685 234.005 202.882 220.72 184.437 183.822L184.439 183.824C182.868 180.7 179.072 179.432 175.941 180.981C172.81 182.533 171.518 186.322 173.051 189.463C174.629 192.684 178.245 203.355 174.297 209.923C171.466 214.639 164.858 217.205 154.648 217.551C137.165 218.161 124.406 213.566 118.933 204.654C112.914 194.865 115.177 179.333 125.3 160.923H125.302C126.714 158.354 126.187 155.152 124.023 153.172C121.861 151.193 118.626 150.951 116.192 152.586C114.491 153.728 74.5559 181 74.3507 219.181C74.2585 236.108 81.9287 252.179 97.2071 267.157C78.5751 262.5 61.4276 253.192 47.374 240.105C33.3181 227.017 22.815 210.576 16.8427 192.323C3.15786 152.629 32.1901 121.453 60.2663 91.2941C82.9738 66.9004 104.603 43.6679 101.686 17.4451C111.045 23.547 123.526 37.965 123.923 71.5165C124.363 108.795 127.883 124.315 137.39 130.819C146.096 136.786 157.666 133.215 169.75 128.683L169.747 128.681C175.319 126.515 180.137 122.768 183.609 117.901C187.081 113.033 189.056 107.26 189.29 101.286C190.154 88.4319 187.344 75.596 181.185 64.2792C202.695 78.6639 231.77 107.421 246.382 162.305C253.934 190.681 251.464 214.001 239.033 231.619C218.119 261.244 174.357 268.985 150.138 270.964L150.141 270.967C146.742 271.241 144.166 274.148 144.304 277.554C144.438 280.959 147.239 283.651 150.649 283.653C150.822 283.653 150.997 283.646 151.169 283.632C177.606 281.473 225.521 272.795 249.419 238.948C264.12 218.111 267.238 191.227 258.671 159.038C232.023 58.9358 160.863 39.6213 157.848 38.8524C154.818 38.0766 151.675 39.621 150.436 42.4946C149.199 45.3659 150.233 48.7104 152.877 50.3821C168.505 61.9804 177.403 80.5441 176.651 99.993C176.644 103.607 175.558 107.133 173.534 110.125C171.509 113.117 168.638 115.435 165.289 116.785C155.242 120.548 147.868 122.584 144.566 120.335C137.92 115.782 136.858 90.2106 136.635 71.3727C135.872 6.89023 94.9126 0.738667 93.1671 0.508588C90.906 0.208222 88.6592 1.14245 87.2779 2.9565C85.8967 4.77054 85.594 7.1877 86.4832 9.28546C96.729 33.4806 75.523 56.2565 50.9664 82.6319C21.7598 113.998 -11.3423 149.554 4.83033 196.466L4.82956 196.466Z" fill="#F0EEDD"/>
</svg>
