<svg width="118" height="104" viewBox="0 0 118 104" fill="none" xmlns="http://www.w3.org/2000/svg">
<path d="M-4.93969 111.206H43.5614C43.585 111.206 43.6333 111.23 43.658 111.23H110.942C111.787 111.23 112.584 110.772 113.019 110.047C113.454 109.323 113.477 108.405 113.043 107.657L79.4119 46.8188C78.5674 45.2734 76.0325 45.2734 75.1869 46.8188L63.5502 67.8469L40.1807 20.1652C39.7707 19.3442 38.925 18.813 38.0074 18.813C37.0899 18.813 36.2453 19.3442 35.8342 20.1652L-7.1149 107.705C-7.47766 108.453 -7.42939 109.347 -6.99473 110.047C-6.56009 110.747 -5.78739 111.206 -4.94169 111.206L-4.93969 111.206ZM81.0075 106.378C80.9839 106.378 80.9592 106.354 80.9356 106.354L47.762 106.353L67.2694 71.0578L70.3354 73.4242C70.7701 73.7622 71.3013 73.9307 71.8078 73.9307C72.4592 73.9307 73.1118 73.6656 73.5947 73.1344L76.444 69.9965L81.0791 73.449C81.7305 73.9319 82.5762 74.0521 83.3242 73.787L87.9109 72.1698L106.839 106.378L81.0075 106.378ZM77.3135 52.9747L85.5706 67.8942L82.9392 68.8118L77.5796 64.8283C76.5901 64.0803 75.1896 64.2251 74.3451 65.1416L71.5204 68.2313L69.637 66.7824L77.3135 52.9747ZM38.01 26.684L49.4299 50.0053L42.936 52.5884L37.6 48.1466C37.0935 47.7367 36.4657 47.5188 35.8132 47.5918C35.1618 47.6637 34.5823 47.9781 34.1712 48.4847L31.4432 51.8888L27.363 48.3398L38.01 26.684ZM25.1897 52.8301L30.2111 57.1753C30.7177 57.61 31.3455 57.8032 32.0216 57.7549C32.673 57.7066 33.2772 57.3685 33.6872 56.862L36.4399 53.4342L40.9784 57.2248C41.4141 57.5618 41.9689 57.7549 42.5238 57.7549C42.8135 57.7549 43.1269 57.7066 43.4166 57.5865L51.5772 54.3272L60.7024 72.9651L42.2341 106.354L-1.07732 106.353L25.1897 52.8301Z" fill="#F0EEDD"/>
</svg>
