<svg width="34" height="35" viewBox="0 0 34 35" fill="none" xmlns="http://www.w3.org/2000/svg">
<circle cx="17.2072" cy="17.9738" r="16.7927" fill="#6A5847"/>
<path d="M12.9619 0.85038C6.35315 2.55251 1.55347 7.65889 0.242793 14.3564C-0.163333 16.4286 -0.0525716 19.5738 0.519698 21.7385C0.925824 23.3666 2.32881 26.3638 3.01184 27.1039C3.23336 27.3444 3.3995 27.6034 3.36258 27.6404C3.2149 27.7884 5.94702 30.4711 7.05464 31.2852C8.40224 32.2658 11.0974 33.5423 12.7958 33.9864C14.7895 34.5229 19.4784 34.4859 21.4352 33.9124C25.1457 32.8393 28.4132 30.6006 30.7207 27.5294C33.6744 23.5886 34.7451 17.9457 33.4713 13.0798C31.8468 6.86333 26.6964 1.97897 20.4014 0.683868C18.26 0.239834 15.0295 0.313839 12.9619 0.85038ZM18.7031 0.757874C19.6261 0.868881 20.8629 1.0909 21.4721 1.25741C26.7887 2.71902 31.293 7.10385 32.936 12.4138C33.3606 13.7644 33.8774 16.7986 33.7113 16.9651C33.6559 17.0021 32.8806 16.299 31.9945 15.374C31.0899 14.4674 30.2777 13.7089 30.1669 13.7089C30.0562 13.7089 29.5762 14.0974 29.0962 14.5784L28.2101 15.4665L25.2565 12.5063L22.3213 9.56454L21.786 10.0641L21.2691 10.5636L18.3154 7.60339C16.7094 5.97527 15.3064 4.64317 15.1956 4.64317C15.1033 4.64317 12.4266 7.23336 9.25142 10.4156L3.51027 16.1695L3.04876 15.6885C2.80877 15.411 2.53187 15.189 2.43957 15.189C2.34727 15.189 1.83038 15.633 1.29503 16.151L0.298174 17.1316L0.408936 15.559C0.538158 13.9309 1.25811 11.4702 2.07036 9.87906C4.54404 5.0132 9.15911 1.70144 14.6234 0.85038C16.5432 0.535858 16.7278 0.535858 18.7031 0.757874ZM16.7648 6.58581L18.3339 8.15843L17.6324 8.84298L16.9494 9.52753L16.3032 8.89849L15.6571 8.26944L14.7341 9.23151L13.8296 10.1751L12.9066 9.26851C12.3897 8.75048 11.9651 8.28794 11.9651 8.21394C11.9651 8.04742 14.9556 5.0132 15.1033 5.0132C15.1587 5.0132 15.9156 5.71625 16.7648 6.58581ZM12.7404 9.58304L13.8111 10.6376L14.6972 9.76805C15.1772 9.28702 15.6571 8.89849 15.7679 8.89849C15.8787 8.89849 16.1556 9.102 16.3955 9.36102C16.6355 9.62004 16.894 9.82356 16.9863 9.82356C17.0601 9.82356 17.4293 9.52753 17.7985 9.17601C18.1493 8.82448 18.5185 8.52846 18.5923 8.52846C18.6477 8.52846 19.2569 9.065 19.903 9.73105C20.5491 10.3971 21.1768 10.9336 21.306 10.9336C21.4168 10.9336 21.6567 10.7671 21.8413 10.5636C22.0259 10.3601 22.2659 10.1936 22.3767 10.1936C22.6351 10.1936 27.8409 15.3925 27.8409 15.6515C27.8409 15.744 26.8625 16.8171 25.6626 18.0197L23.4843 20.2028L21.8229 19.9993L20.1799 19.7773L18.3339 17.9457C17.3186 16.9466 16.4325 16.114 16.3586 16.114C16.2848 16.114 15.9525 16.3546 15.6202 16.6691C15.2879 16.9651 14.9556 17.2241 14.8818 17.2241C14.8264 17.2241 13.8296 16.299 12.7035 15.1705L10.6359 13.0983L8.06996 15.67L5.50398 18.2232L4.67326 17.4091C4.21176 16.9651 3.84255 16.5026 3.84255 16.4101C3.84255 16.225 11.4113 8.52846 11.5959 8.52846C11.6328 8.52846 12.1497 9.00949 12.7404 9.58304ZM12.8881 15.8365L14.9187 17.8532L15.6571 17.1316L16.3955 16.4101L17.8724 17.9457C18.7031 18.7967 19.3492 19.5183 19.3123 19.5553C19.2754 19.5738 18.2047 19.5368 16.9494 19.4258C15.6756 19.3333 12.8143 19.2408 10.5621 19.2408C6.74082 19.2408 6.48237 19.2223 6.18701 18.8892C6.02087 18.6857 5.87318 18.4822 5.87318 18.4452C5.87318 18.2787 10.5806 13.7089 10.7098 13.7459C10.8021 13.7829 11.7805 14.7079 12.8881 15.8365ZM31.9576 15.892L33.7667 17.7052L33.6375 18.9447C33.5636 19.6293 33.4529 20.2213 33.3975 20.2583C33.3421 20.2953 31.7361 20.4434 29.8531 20.5544C27.1025 20.7394 26.161 20.7394 25.1827 20.5544C24.5181 20.4249 23.9643 20.2768 23.9643 20.2028C23.9643 20.0733 29.9269 14.0789 30.0562 14.0789C30.1115 14.0789 30.9607 14.8929 31.9576 15.892ZM4.26714 17.3721C5.26399 18.3712 6.02087 19.2408 5.94702 19.3148C5.87318 19.3888 5.35629 19.4443 4.78403 19.4628C4.21176 19.4628 3.04876 19.5738 2.18112 19.7033C1.31349 19.8328 0.556618 19.9068 0.482777 19.8698C0.390475 19.8328 0.335095 19.2778 0.335095 18.6487C0.335095 17.5201 0.353555 17.5016 1.29503 16.5396C1.83038 16.003 2.31035 15.559 2.36573 15.559C2.42111 15.559 3.27028 16.3731 4.26714 17.3721ZM18.5185 19.8883C21.9152 20.2583 25.1088 20.7764 24.9427 20.9244C24.8688 20.9799 23.5581 21.2759 22.0259 21.5534C18.5185 22.1825 14.8264 23.1261 12.3343 23.9956C10.1744 24.7542 10.4698 24.7357 5.50398 24.5692L1.90422 24.4582L1.59039 23.8476C1.22119 23.1261 0.408936 20.4064 0.538158 20.2953C0.611999 20.2028 5.19015 19.6663 6.7962 19.5553C8.73453 19.4258 16.1371 19.6293 18.5185 19.8883ZM33.379 20.9059C33.379 21.2759 32.4191 23.9956 32.216 24.1806C32.0868 24.2916 31.3115 24.5507 30.4808 24.7727C28.6532 25.2537 25.8288 26.2898 24.0381 27.1409L22.7459 27.7699L20.5122 27.0484C18.2047 26.2898 13.9957 25.3092 12.1128 25.0872C11.522 25.0132 11.0974 24.8837 11.1344 24.7912C11.2636 24.5877 14.8264 23.4776 17.6139 22.7745C20.2538 22.1085 25.718 21.1834 28.3947 20.9614C31.0346 20.7394 33.379 20.7024 33.379 20.9059ZM9.50986 25.0872C12.925 25.4572 16.2848 26.1048 19.0908 26.9559C20.3091 27.3259 21.4721 27.6589 21.7121 27.7144C22.3213 27.8624 22.2105 28.0474 21.2506 28.621C18.8323 30.0086 15.3433 32.5803 14.4941 33.5608C14.1619 33.9309 14.1434 33.9309 12.8512 33.6349C11.3559 33.2648 8.91913 32.1732 7.58999 31.2667C6.15009 30.2861 4.06407 28.1584 3.08568 26.6783C2.58725 25.9198 2.18112 25.1982 2.18112 25.0687C2.18112 24.6987 6.0024 24.7172 9.50986 25.0872ZM31.9022 24.9022C31.9022 25.6423 29.3731 28.8985 27.7671 30.2121C24.315 33.0613 19.8292 34.5414 15.8417 34.1344C14.328 33.9864 14.3095 34.0234 16.3032 32.4138C18.4077 30.7116 19.9768 29.6571 22.6721 28.1769C25.4596 26.6413 31.9022 24.3657 31.9022 24.9022Z" fill="#FCFAF2"/>
<path d="M18.1489 2.60805C17.9828 2.88557 18.2228 3.16309 18.6289 3.16309C18.8504 3.16309 18.9796 3.03358 18.9796 2.79306C18.9796 2.40453 18.3705 2.25652 18.1489 2.60805Z" fill="#FCFAF2"/>
<path d="M9.58367 4.53219C9.32524 4.84672 9.45445 5.19824 9.84211 5.19824C10.2482 5.19824 10.3774 4.82822 10.0821 4.53219C9.84211 4.29168 9.78673 4.29168 9.58367 4.53219Z" fill="#FCFAF2"/>
<path d="M20.6969 6.60461C20.5492 7.01164 21.0292 7.28917 21.3615 6.97464C21.4907 6.82663 21.5461 6.62311 21.4907 6.5121C21.3061 6.21608 20.8261 6.27158 20.6969 6.60461Z" fill="#FCFAF2"/>
<path d="M25.4409 6.65978C25.4409 7.06681 25.8655 7.28883 26.1424 7.01131C26.4193 6.73379 26.1978 6.30826 25.7917 6.30826C25.5701 6.30826 25.4409 6.43777 25.4409 6.65978Z" fill="#FCFAF2"/>
<path d="M7.5529 8.78765C7.38676 8.97266 7.40522 9.08366 7.62674 9.26867C7.97748 9.56469 8.3836 9.25017 8.21746 8.82465C8.06978 8.45463 7.8298 8.45463 7.5529 8.78765Z" fill="#FCFAF2"/>
<path d="M28.3945 10.5638C28.3945 10.8598 28.4868 10.9524 28.8191 10.8968C29.0406 10.8598 29.2253 10.7118 29.2253 10.5638C29.2253 10.4158 29.0406 10.2678 28.8191 10.2308C28.4868 10.1753 28.3945 10.2678 28.3945 10.5638Z" fill="#FCFAF2"/>
<path d="M3.41804 10.8227C3.28882 11.1557 3.4365 11.3037 3.87954 11.3037C4.0826 11.3037 4.21182 11.1742 4.21182 10.9337C4.21182 10.5081 3.56572 10.4156 3.41804 10.8227Z" fill="#FCFAF2"/>
<path d="M16.2111 13.4314C15.6573 13.9865 15.288 14.449 15.3803 14.449C15.4726 14.449 15.9526 14.0605 16.4326 13.5794L17.3187 12.7099L18.6109 13.9865L19.9031 15.2631L20.5492 14.634L21.1953 14.005L22.6722 15.4666C23.4844 16.2807 24.149 16.8542 24.149 16.7617C24.149 16.5027 21.3246 13.709 21.0846 13.709C20.9738 13.709 20.6969 13.9125 20.4569 14.1715C20.2169 14.4305 19.94 14.634 19.8477 14.634C19.7554 14.634 19.2016 14.1345 18.6109 13.5239C18.0202 12.9134 17.4664 12.4138 17.3741 12.4138C17.2818 12.4138 16.7649 12.8764 16.2111 13.4314Z" fill="#FCFAF2"/>
<path d="M9.14068 17.15C8.75301 17.52 8.49456 17.8716 8.54994 17.9271C8.60532 17.9826 8.93761 17.7421 9.28836 17.409L9.93447 16.78L10.4514 17.2795C11.2082 18.0196 11.4113 17.8901 10.6729 17.1315C10.3221 16.78 9.98986 16.484 9.93447 16.484C9.87909 16.484 9.52835 16.78 9.14068 17.15Z" fill="#FCFAF2"/>
<path d="M28.3022 17.7792C27.9145 18.1862 27.6745 18.5192 27.7668 18.5192C27.8776 18.5192 28.1545 18.3157 28.3945 18.0567C28.6345 17.7977 28.9114 17.5942 29.0221 17.5942C29.1329 17.5942 29.6498 18.0197 30.1851 18.5562C30.7205 19.0743 31.2004 19.4628 31.2558 19.4073C31.3666 19.2963 29.336 17.0391 29.1329 17.0391C29.0775 17.0391 28.6898 17.3722 28.3022 17.7792Z" fill="#FCFAF2"/>
<path d="M4.80237 21.0539C4.58084 21.0909 4.43316 21.2204 4.507 21.3129C4.56238 21.4054 4.67314 21.4424 4.76545 21.3869C4.98697 21.2574 10.1189 21.2389 11.965 21.3684C13.2203 21.461 13.4418 21.4424 13.0726 21.2759C12.6111 21.0724 5.68846 20.8874 4.80237 21.0539Z" fill="#FCFAF2"/>
<path d="M4.9502 22.5525C4.9502 22.6265 5.5963 22.6635 6.39009 22.6265C7.16542 22.5895 8.40226 22.645 9.10375 22.7375C10.4883 22.9225 11.2636 22.7745 10.0268 22.5525C9.02991 22.386 4.9502 22.3675 4.9502 22.5525Z" fill="#FCFAF2"/>
<path d="M24.5179 22.7004C21.6751 23.348 19.7183 23.9955 19.7183 24.273C19.7183 24.347 20.069 24.2915 20.5121 24.1435C21.8781 23.6625 26.1794 22.5894 26.7885 22.5894C27.1208 22.5894 27.5085 22.4969 27.6562 22.4044C28.1731 22.0714 26.5486 22.2194 24.5179 22.7004Z" fill="#FCFAF2"/>
<path d="M27.1948 23.6074C27.1025 23.6259 26.5117 23.8109 25.9026 23.9774C24.0934 24.5139 21.9336 25.3835 21.9336 25.587C21.9336 25.6795 22.0444 25.735 22.1736 25.6795C23.9642 24.921 24.8503 24.5879 26.1425 24.2364C26.9732 24.0144 27.6563 23.7554 27.6563 23.6629C27.6563 23.5149 27.5271 23.4964 27.1948 23.6074Z" fill="#FCFAF2"/>
<path d="M6.7959 26.8077C6.7959 26.9002 7.38663 27.0482 8.08812 27.1037C9.54648 27.2517 12.9986 28.0658 15.0661 28.7503C15.8045 29.0094 16.4506 29.1389 16.506 29.0464C16.6906 28.7133 10.4326 27.0482 7.8666 26.7522C7.20202 26.6597 6.7959 26.6782 6.7959 26.8077Z" fill="#FCFAF2"/>
<path d="M7.16553 28.3253C7.16553 28.4178 7.29475 28.5103 7.44243 28.5103C7.9224 28.5103 11.2637 29.6389 12.4636 30.2124C13.1097 30.527 13.682 30.7305 13.7374 30.675C13.922 30.49 11.6698 29.4539 9.65766 28.7693C7.68241 28.1033 7.16553 28.0108 7.16553 28.3253Z" fill="#FCFAF2"/>
<path d="M25.8105 28.0289C23.7614 29.065 23.5214 29.1945 22.2107 30.1196C20.6231 31.2482 20.3831 31.4517 20.5124 31.5812C20.5677 31.6367 20.937 31.4332 21.3246 31.1372C22.4876 30.1936 25.1459 28.6025 26.4381 28.0474C27.1027 27.7699 27.6565 27.4554 27.6565 27.3629C27.6565 27.1224 27.4535 27.1779 25.8105 28.0289Z" fill="#FCFAF2"/>
<path d="M25.6259 29.6016C24.0199 30.6562 23.0415 31.4517 23.3553 31.4702C23.466 31.4702 23.7983 31.2852 24.0937 31.0447C24.7398 30.5081 26.6043 29.2871 26.992 29.139C27.2873 29.028 27.3981 28.695 27.1581 28.695C27.0658 28.695 26.3828 29.102 25.6259 29.6016Z" fill="#FCFAF2"/>
</svg>
