<svg width="34" height="36" viewBox="0 0 34 36" fill="none" xmlns="http://www.w3.org/2000/svg">
<circle cx="17.2072" cy="18.2668" r="16.7927" fill="#6A5847"/>
<path d="M14.9674 0.821178C13.637 1.04229 12.3804 1.3371 11.6413 1.57663C4.73043 3.86141 0 10.3657 0 17.6069C0 22.6003 1.73696 26.6539 5.37717 30.1179C8.05652 32.6423 11.2533 34.1347 15.1522 34.6506C19.9196 35.2771 25.5 33.324 28.9554 29.7863C32.4293 26.267 34 22.4529 34 17.6069C34 9.81289 28.7522 3.19809 20.9728 1.17127C19.9011 0.894882 15.8913 0.65535 14.9674 0.821178ZM19.8826 1.28182C21.7859 1.61348 24.9457 2.7743 24.9457 3.12438C24.9457 3.21651 22.3957 3.30864 19.2728 3.34549L13.5815 3.38234L19.6793 3.43762L25.7772 3.47447L26.6457 4.08252C27.7913 4.91167 29.0109 5.99878 29.0109 6.23832C29.0109 6.34887 28.087 6.42257 26.5902 6.42257C24.9641 6.42257 24.225 6.47785 24.2989 6.60683C24.3728 6.73581 25.3707 6.79109 26.9783 6.77266C28.3826 6.77266 29.6207 6.80951 29.713 6.86479C30.0641 7.0859 31.5978 9.51808 32.2261 10.8447C33.0761 12.7057 33.7228 15.2669 33.3533 15.2669C33.2978 15.2669 32.5957 14.9168 31.8196 14.4746C30.4337 13.7191 30.3598 13.7007 28.6413 13.7007H26.8859L25.0196 14.6957C23.4489 15.5248 22.987 15.6907 22.1554 15.6907C20.363 15.7091 19.2913 14.7878 19.3283 13.2769C19.3652 11.8029 20.8989 10.9553 21.8413 11.895C22.3033 12.3741 22.1739 13.2216 21.6196 13.369C21.1761 13.4796 21.1207 13.8481 21.5457 13.756C21.712 13.7191 22.0076 13.498 22.2109 13.2401C22.5065 12.8347 22.525 12.6873 22.3402 12.1714C21.9522 11.029 20.5478 10.8263 19.6054 11.7844C19.1065 12.2819 19.0326 12.4662 19.0326 13.369C19.0326 14.3272 19.088 14.4562 19.7717 15.101C21.1207 16.3724 22.6543 16.3171 25.4261 14.8984C27.0707 14.0508 27.3848 13.9587 28.4935 13.9402C29.9348 13.9402 30.7293 14.1613 32.1337 15.0089C32.7065 15.359 33.2609 15.6354 33.3717 15.6354C33.5935 15.6354 33.8152 16.8515 33.8152 17.9939V18.6388L32.9467 18.5098C32.4293 18.4361 31.5978 18.1044 30.8587 17.6622C29.1772 16.6488 28.6413 16.5014 27.1076 16.5935C26.0728 16.6672 25.4261 16.8331 24.2065 17.4043C22.8576 18.0123 22.4696 18.1044 21.3978 18.1044C19.088 18.0676 17.8315 17.1094 16.2239 14.1613C14.6348 11.2501 13.4522 10.163 11.4935 9.83132C9.44239 9.49965 7.42826 11.0106 7.83478 12.5952C7.98261 13.2032 8.68478 13.9587 9.14674 13.9955C10.2924 14.0876 10.9207 13.7376 10.8837 13.0005V12.5952L10.7174 13.019C10.5511 13.4243 9.86739 13.7928 9.31304 13.7928C8.7587 13.7928 8.13043 12.9268 8.13043 12.1714C8.13043 10.8447 9.33152 10.1261 10.5141 10.771C11.4196 11.2685 11.9185 12.3188 11.9 13.7007C11.9 15.1379 11.5674 16.0592 10.7543 16.962C9.775 18.0491 8.85109 18.4545 7.11413 18.5466L5.63587 18.6203L3.84348 17.6806C2.84565 17.1463 1.66304 16.6857 1.20109 16.6119C0.425 16.5198 0.369565 16.4645 0.369565 15.9302C0.369565 14.8799 1.1087 12.2819 1.82935 10.7342C2.49457 9.35225 3.10435 8.33884 4.02826 7.19645L4.36087 6.75423L9.36848 6.79109C12.6761 6.79109 14.4315 6.73581 14.5054 6.60683C14.5793 6.47785 13.0826 6.42257 9.81196 6.42257C7.15109 6.42257 4.98913 6.34887 4.98913 6.27517C4.98913 5.83295 7.77935 3.65873 9.40543 2.82957C10.5326 2.25838 12.4543 1.59505 13.6739 1.35552C15.1522 1.06071 18.4043 1.00544 19.8826 1.28182ZM12.9163 10.642C13.8957 11.1395 14.912 12.3556 15.8543 14.1429C17.5913 17.3858 18.9033 18.3992 21.4163 18.3992C22.6543 18.3992 22.987 18.3255 24.1696 17.7543C26.8304 16.4645 28.1978 16.483 30.5446 17.8649C31.2283 18.2703 32.2076 18.694 32.7065 18.823C33.5565 19.0257 33.6304 19.081 33.6304 19.5969C33.612 21.9001 31.1543 27.6121 30.175 27.6121C29.6761 27.5936 28.438 26.9856 27.7359 26.396C26.2946 25.1983 25.7587 22.4713 26.6641 20.9051C27.5511 19.3389 29.1033 19.1178 29.8239 20.4445C30.6 21.8633 29.2511 23.3557 27.8837 22.6371C27.6989 22.5266 27.5326 22.3239 27.5326 22.1765C27.5326 22.0291 27.4587 21.9001 27.3478 21.9001C27.0707 21.9001 27.1261 22.1765 27.5141 22.6556C27.7728 22.9872 28.05 23.0978 28.6043 23.0978C29.5098 23.0978 30.0457 22.6556 30.3228 21.6974C30.5076 21.1078 30.4891 20.9235 30.1935 20.4076C29.6207 19.4311 28.9554 19.0626 27.6065 18.9889C25.2413 18.8415 23.7261 19.947 22.0076 23.0793C20.2152 26.3407 19.1804 27.133 16.7228 27.133C15.3924 27.133 15.1152 27.0777 13.8217 26.4512C11.3826 25.2536 9.73804 25.2904 7.52065 26.6171C6.07935 27.4831 4.52717 27.8884 3.76957 27.6121C3.41848 27.4646 2.32826 25.9906 2.18043 25.4378C2.14348 25.272 2.55 25.1983 3.78804 25.1614C5.24783 25.1246 5.56196 25.0509 6.375 24.5903C8.25978 23.4847 8.77717 23.3005 9.92283 23.2268C11.438 23.1162 12.3804 23.3742 14.025 24.3139C15.1707 24.9772 15.5217 25.1062 16.6859 25.1614C18.2565 25.2536 19.0696 24.9219 19.7163 23.9454C20.4185 22.8951 20.1598 21.4026 19.1804 20.7209C17.7761 19.7259 15.8174 21.4579 17 22.6371C17.3696 23.0056 18.0348 23.1531 17.8315 22.8214C17.7761 22.7108 17.5913 22.6371 17.462 22.6371C17.0924 22.6371 16.9076 21.7896 17.1663 21.2368C17.3141 20.8867 17.4989 20.7946 18.0902 20.7946C19.088 20.7946 19.6054 21.2552 19.7163 22.287C19.8457 23.4663 19.4207 24.2217 18.3489 24.7008C17.1478 25.2167 16.2054 25.0509 13.8587 23.8717C11.9924 22.9319 11.8815 22.9135 10.3478 22.9135C8.81413 22.9135 8.74022 22.9319 6.98478 23.8532C5.06304 24.8851 3.97283 25.143 2.58696 24.9035L1.75543 24.7561L1.14565 22.9319C0.813043 21.937 0.480435 20.5366 0.425 19.818L0.31413 18.5282L1.12717 18.6388C1.57065 18.694 2.67935 19.1363 3.60326 19.6153C5.15544 20.4445 5.37717 20.4998 6.92935 20.5735C9.0913 20.6656 10.2185 20.2787 11.7891 18.8599C12.8609 17.8833 13.8587 16.2987 13.8587 15.5617C13.8587 14.9905 13.563 15.2853 13.3413 16.0776C12.8793 17.8096 10.8283 19.6338 8.74022 20.1865C7.13261 20.6103 5.82065 20.4076 4.02826 19.4679C3.21522 19.0441 2.03261 18.5651 1.40435 18.3992C0.31413 18.086 0.277174 18.0676 0.277174 17.4595C0.277174 16.8331 0.295652 16.8331 1.0163 16.8883C1.45978 16.9252 2.45761 17.3305 3.51087 17.8833C5.02609 18.694 5.45109 18.8415 6.55978 18.8967C8.86957 19.0626 10.8467 17.957 11.7707 16.0039C12.6576 14.0876 12.4543 12.2082 11.2348 10.9921C10.8467 10.6052 10.5326 10.2367 10.5326 10.1814C10.5326 9.96029 12.1957 10.292 12.9163 10.642ZM27.5696 19.2468C27.625 19.3021 27.3663 19.6522 26.9967 20.0207C26.1098 20.8867 25.7957 21.8264 25.925 23.1899C26.1098 25.2167 27.3109 26.9303 28.9924 27.5384C30.1565 27.9806 30.212 28.0543 29.7315 28.607C29.1587 29.2519 28.7152 29.2151 27.3663 28.3491C26.1837 27.5752 24.9087 25.9353 24.6685 24.8482C24.5946 24.535 24.4652 24.2954 24.3728 24.2954C24.2804 24.2954 24.262 24.5165 24.3174 24.7929C24.7054 26.3775 26.2576 28.257 27.8467 29.0124C28.8076 29.4915 28.8261 29.5099 28.512 29.86C28.3457 30.0627 27.625 30.6339 26.9413 31.1498L25.6848 32.0711L24.3359 31.3709C23.0978 30.7076 22.8946 30.6707 21.4348 30.6523C20.012 30.6523 19.7533 30.7076 18.6261 31.2788C17.9239 31.6288 17.3696 31.9789 17.3696 32.0342C17.3696 32.3106 15.5772 32.6791 14.413 32.6607C13.3413 32.6423 13.0087 32.5317 11.3087 31.6473C9.44239 30.6891 9.35 30.6523 7.89022 30.6523H6.375L5.22935 29.5652C4.58261 28.9571 4.06522 28.3675 4.06522 28.257C4.06522 28.128 4.49022 27.9806 5.1 27.9253C5.85761 27.8516 6.46739 27.6121 7.35435 27.0777C9.01739 26.0827 9.42391 25.9537 10.8467 25.9537C11.8815 25.9537 12.325 26.0643 13.6554 26.6723C15.6326 27.5752 16.5935 27.7226 17.9978 27.3725C19.9196 26.8566 20.7696 26.0459 22.3772 23.0978C23.2826 21.4395 24.1141 20.4445 25.075 19.8549C25.925 19.3205 27.3109 18.9889 27.5696 19.2468ZM11.1793 31.9421C13.0457 32.9002 13.2304 32.9555 14.5239 32.9555C16.0391 32.9555 16.8337 32.6975 18.5707 31.6657C19.6054 31.0576 19.7533 31.0208 21.3424 31.0208C22.8207 31.0208 23.1348 31.0761 24.0772 31.5551C24.65 31.85 25.1304 32.1448 25.1304 32.2185C25.1304 32.458 22.6543 33.4898 21.0652 33.9136C19.7717 34.2453 19.0511 34.319 16.9076 34.3006C13.3598 34.2821 11.5304 33.8031 8.37065 31.9974C7.63152 31.5736 7.02174 31.1682 7.02174 31.0761C7.02174 31.0024 7.50217 30.9287 8.11196 30.9287C9.05435 30.9287 9.44239 31.0576 11.1793 31.9421Z" fill="#FCFAF2"/>
<path d="M17.0002 8.81801C16.8893 9.03911 16.8524 9.37077 16.9078 9.55503C17.0371 9.94197 17.7763 10.2184 18.1089 10.0157C18.4415 9.81299 18.6263 9.11282 18.4415 8.76273C18.2013 8.32051 17.2589 8.33894 17.0002 8.81801ZM18.1089 8.91013C18.4415 9.29707 18.2013 9.77614 17.7024 9.70244C17.2219 9.64716 17.0187 9.03911 17.4067 8.79958C17.7393 8.57847 17.8502 8.5969 18.1089 8.91013Z" fill="#FCFAF2"/>
<path d="M25.2966 10.8634C25.0009 11.4162 25.352 12.1348 25.9248 12.1348C26.4607 12.1348 26.7933 11.8215 26.7933 11.3056C26.7933 10.4765 25.6846 10.1448 25.2966 10.8634ZM26.6085 11.2872C26.6085 11.6557 26.1466 11.9689 25.7955 11.84C25.4444 11.711 25.389 10.9187 25.74 10.7897C26.0542 10.6791 26.6085 10.9924 26.6085 11.2872Z" fill="#FCFAF2"/>
<path d="M5.02648 13.7194C4.12105 14.3459 4.91561 15.6172 5.89496 15.0829C6.41235 14.8249 6.35692 14.0326 5.82105 13.6825C5.48844 13.4614 5.37757 13.4799 5.02648 13.7194ZM5.89496 14.1248C6.02431 14.3643 6.00583 14.5486 5.87648 14.6775C5.39605 15.1566 4.69388 14.7144 5.00801 14.1248C5.1004 13.9405 5.30366 13.7931 5.45148 13.7931C5.59931 13.7931 5.80257 13.9405 5.89496 14.1248Z" fill="#FCFAF2"/>
<path d="M13.7849 19.726C13.5077 20.1129 13.6186 20.6288 14.0621 20.8868C14.4316 21.1263 15.1523 20.7947 15.2632 20.334C15.5034 19.3943 14.3393 18.9337 13.7849 19.726ZM14.8751 20.0576C14.8751 20.3893 14.7643 20.5367 14.4501 20.5736C13.9512 20.6473 13.711 20.1682 14.0436 19.7628C14.3947 19.3575 14.8751 19.5233 14.8751 20.0576Z" fill="#FCFAF2"/>
<path d="M22.6359 26.9485C22.2293 27.5565 22.5435 28.1646 23.2456 28.1646C24.1696 28.1646 24.5206 27.3907 23.8739 26.8195C23.3935 26.3773 22.9685 26.4325 22.6359 26.9485ZM23.8 27.3907C23.8739 27.9066 23.3565 28.1277 22.9685 27.7408C22.5804 27.3538 22.8022 26.8379 23.3196 26.9116C23.5967 26.9485 23.763 27.1143 23.8 27.3907Z" fill="#FCFAF2"/>
<path d="M11.5674 28.6255C11.1609 29.0308 11.1979 29.5652 11.6598 29.8784C12.1772 30.2469 12.7316 30.0627 12.8794 29.4915C13.1011 28.6071 12.1957 27.999 11.5674 28.6255ZM12.6392 29.0124C12.7685 29.3625 12.4544 29.8231 12.0663 29.8231C11.7522 29.8231 11.5674 29.3809 11.7152 28.994C11.8446 28.6255 12.4913 28.6439 12.6392 29.0124Z" fill="#FCFAF2"/>
</svg>
